M48
; DRILL file {KiCad 9.0.0} date 2025-10-22T11:06:58-0700
; FORMAT={-:-/ absolute / metric / decimal}
; #@! TF.CreationDate,2025-10-22T11:06:58-07:00
; #@! TF.GenerationSoftware,Kicad,Pcbnew,9.0.0
; #@! TF.FileFunction,Plated,1,2,PTH
FMAT,2
METRIC
; #@! TA.AperFunction,Plated,PTH,ViaDrill
T1C0.508
; #@! TA.AperFunction,Plated,PTH,ComponentDrill
T2C0.750
; #@! TA.AperFunction,Plated,PTH,ComponentDrill
T3C0.800
; #@! TA.AperFunction,Plated,PTH,ComponentDrill
T4C1.000
; #@! TA.AperFunction,Plated,PTH,ComponentDrill
T5C1.016
%
G90
G05
T1
X156.972Y-108.966
X157.225Y-87.235
X158.75Y-88.91
X158.75Y-88.91
X160.275Y-87.235
X160.275Y-90.585
T2
X142.24Y-74.168
X142.24Y-75.438
X142.24Y-76.708
T3
X142.748Y-89.154
X142.748Y-96.774
X153.162Y-92.964
X153.162Y-95.464
X164.338Y-92.964
X164.338Y-95.464
T4
X142.748Y-79.995
X142.748Y-82.535
X142.748Y-85.075
X156.417Y-74.93
X157.485Y-124.46
X160.025Y-124.46
X161.417Y-74.93
T5
X147.32Y-69.85
X147.32Y-72.39
X147.32Y-74.93
X147.32Y-77.47
X147.32Y-80.01
X147.32Y-82.55
X147.32Y-85.09
X147.32Y-87.63
X170.18Y-69.85
X170.18Y-72.39
X170.18Y-74.93
X170.18Y-77.47
X170.18Y-80.01
X170.18Y-82.55
X170.18Y-85.09
X170.18Y-87.63
T4
G00X149.144Y-109.22
M15
G01X148.544Y-109.22
M16
G05
G00X149.144Y-113.92
M15
G01X148.544Y-113.92
M16
G05
G00X149.144Y-118.62
M15
G01X148.544Y-118.62
M16
G05
M30
