%TF.GenerationSoftware,KiCad,Pcbnew,9.0.0*%
%TF.CreationDate,2025-10-22T11:07:00-07:00*%
%TF.ProjectId,sstv-backpack-v1.0.1,73737476-2d62-4616-936b-7061636b2d76,1.0*%
%TF.SameCoordinates,Original*%
%TF.FileFunction,Copper,L2,Bot*%
%TF.FilePolarity,Positive*%
%FSLAX46Y46*%
G04 Gerber Fmt 4.6, Leading zero omitted, Abs format (unit mm)*
G04 Created by KiCad (PCBNEW 9.0.0) date 2025-10-22 11:07:00*
%MOMM*%
%LPD*%
G01*
G04 APERTURE LIST*
%TA.AperFunction,ComponentPad*%
%ADD10R,1.524000X1.524000*%
%TD*%
%TA.AperFunction,ComponentPad*%
%ADD11O,3.048000X1.524000*%
%TD*%
%TA.AperFunction,ComponentPad*%
%ADD12O,1.600000X1.600000*%
%TD*%
%TA.AperFunction,ComponentPad*%
%ADD13C,1.600000*%
%TD*%
%TA.AperFunction,ComponentPad*%
%ADD14R,1.500000X1.050000*%
%TD*%
%TA.AperFunction,ComponentPad*%
%ADD15O,1.500000X1.050000*%
%TD*%
%TA.AperFunction,ComponentPad*%
%ADD16R,2.000000X2.000000*%
%TD*%
%TA.AperFunction,ComponentPad*%
%ADD17C,2.000000*%
%TD*%
%TA.AperFunction,ComponentPad*%
%ADD18O,2.600000X1.300000*%
%TD*%
%TA.AperFunction,ComponentPad*%
%ADD19R,1.700000X1.700000*%
%TD*%
%TA.AperFunction,ComponentPad*%
%ADD20O,1.700000X1.700000*%
%TD*%
%TA.AperFunction,ViaPad*%
%ADD21C,1.016000*%
%TD*%
%TA.AperFunction,Conductor*%
%ADD22C,0.635000*%
%TD*%
%TA.AperFunction,Conductor*%
%ADD23C,0.381000*%
%TD*%
%TA.AperFunction,Conductor*%
%ADD24C,0.889000*%
%TD*%
G04 APERTURE END LIST*
D10*
%TO.P,U1,P$1,GND/R*%
%TO.N,unconnected-(U1-GND{slash}R-PadP$1)*%
X170180000Y-87630000D03*
D11*
%TO.P,U1,P$2,GPIO1*%
%TO.N,unconnected-(U1-GPIO1-PadP$2)*%
X170180000Y-85090000D03*
%TO.P,U1,P$3,GPIO3*%
%TO.N,unconnected-(U1-GPIO3-PadP$3)*%
X170180000Y-82550000D03*
%TO.P,U1,P$4,3V3/5V*%
%TO.N,unconnected-(U1-3V3{slash}5V-PadP$4)*%
X170180000Y-80010000D03*
D10*
%TO.P,U1,P$5,GND@2*%
%TO.N,GND*%
X170180000Y-77470000D03*
D11*
%TO.P,U1,P$6,GPIO0*%
%TO.N,unconnected-(U1-GPIO0-PadP$6)*%
X170180000Y-74930000D03*
%TO.P,U1,P$7,GPIO16*%
%TO.N,unconnected-(U1-GPIO16-PadP$7)*%
X170180000Y-72390000D03*
%TO.P,U1,P$8,3V3*%
%TO.N,unconnected-(U1-3V3-PadP$8)*%
X170180000Y-69850000D03*
%TO.P,U1,P$9,5V*%
%TO.N,+5V*%
X147320000Y-69850000D03*
D10*
%TO.P,U1,P$10,GND@3*%
%TO.N,GND*%
X147320000Y-72390000D03*
D11*
%TO.P,U1,P$11,GPIO12*%
%TO.N,/CAPTURE*%
X147320000Y-74930000D03*
%TO.P,U1,P$12,GPIO13*%
%TO.N,/BUZZER*%
X147320000Y-77470000D03*
%TO.P,U1,P$13,GPIO15*%
%TO.N,PTT_TRIG*%
X147320000Y-80010000D03*
%TO.P,U1,P$14,GPIO14*%
%TO.N,/TX OUT*%
X147320000Y-82550000D03*
%TO.P,U1,P$15,GPIO2*%
%TO.N,unconnected-(U1-GPIO2-PadP$15)*%
X147320000Y-85090000D03*
%TO.P,U1,P$16,GPIO4*%
%TO.N,unconnected-(U1-GPIO4-PadP$16)*%
X147320000Y-87630000D03*
%TD*%
D12*
%TO.P,R1,2*%
%TO.N,Net-(Q1-B)*%
X142748000Y-89154000D03*
D13*
%TO.P,R1,1*%
%TO.N,PTT_TRIG*%
X142748000Y-96774000D03*
%TD*%
D14*
%TO.P,Q1,1,E*%
%TO.N,GND*%
X142240000Y-74168000D03*
D15*
%TO.P,Q1,2,B*%
%TO.N,Net-(Q1-B)*%
X142240000Y-75438000D03*
%TO.P,Q1,3,C*%
%TO.N,PTT*%
X142240000Y-76708000D03*
%TD*%
D16*
%TO.P,BZ1,1,+*%
%TO.N,/BUZZER*%
X156417000Y-74930000D03*
D17*
%TO.P,BZ1,2,-*%
%TO.N,GND*%
X161417000Y-74930000D03*
%TD*%
D18*
%TO.P,SW2,1*%
%TO.N,/8V IN*%
X148844000Y-109220000D03*
%TO.P,SW2,2*%
%TO.N,/VIN*%
X148844000Y-113920000D03*
%TO.P,SW2,3*%
%TO.N,unconnected-(SW2-Pad3)*%
X148844000Y-118620000D03*
%TD*%
D13*
%TO.P,C2,1*%
%TO.N,/8V IN*%
X164338000Y-95464000D03*
%TO.P,C2,2*%
%TO.N,GND*%
X164338000Y-92964000D03*
%TD*%
D19*
%TO.P,J2,1,Pin_1*%
%TO.N,GND*%
X160025000Y-124460000D03*
D20*
%TO.P,J2,2,Pin_2*%
%TO.N,/VIN*%
X157485000Y-124460000D03*
%TD*%
D19*
%TO.P,J1,1,Pin_1*%
%TO.N,GND*%
X142748000Y-85075000D03*
D20*
%TO.P,J1,2,Pin_2*%
%TO.N,/TX OUT*%
X142748000Y-82535000D03*
%TO.P,J1,3,Pin_3*%
%TO.N,PTT*%
X142748000Y-79995000D03*
%TD*%
D13*
%TO.P,C1,1*%
%TO.N,+5V*%
X153162000Y-95464000D03*
%TO.P,C1,2*%
%TO.N,GND*%
X153162000Y-92964000D03*
%TD*%
D21*
%TO.N,GND*%
X157225000Y-87235000D03*
X160275000Y-90585000D03*
X160275000Y-87235000D03*
X158750000Y-88910000D03*
X158750000Y-88910000D03*
%TO.N,/CAPTURE*%
X156972000Y-108966000D03*
%TD*%
D22*
%TO.N,PTT*%
X142748000Y-78740000D02*
X142748000Y-79995000D01*
X142240000Y-78232000D02*
X142748000Y-78740000D01*
X142240000Y-76708000D02*
X142240000Y-78232000D01*
D23*
%TO.N,Net-(Q1-B)*%
X143764000Y-75438000D02*
X142240000Y-75438000D01*
X144780000Y-87122000D02*
X144780000Y-76454000D01*
X142748000Y-89154000D02*
X144780000Y-87122000D01*
X144780000Y-76454000D02*
X143764000Y-75438000D01*
D24*
%TO.N,+5V*%
X154980000Y-95464000D02*
X155956000Y-94488000D01*
X150622000Y-74168000D02*
X150622000Y-71628000D01*
X150622000Y-71628000D02*
X148844000Y-69850000D01*
X152908000Y-76454000D02*
X150622000Y-74168000D01*
X153162000Y-95464000D02*
X154980000Y-95464000D01*
X152908000Y-85598000D02*
X152908000Y-76454000D01*
X155956000Y-94488000D02*
X155956000Y-88646000D01*
X148844000Y-69850000D02*
X147320000Y-69850000D01*
X155956000Y-88646000D02*
X152908000Y-85598000D01*
D22*
%TO.N,/CAPTURE*%
X147955000Y-74930000D02*
X147320000Y-74930000D01*
X150368000Y-77343000D02*
X147955000Y-74930000D01*
X156972000Y-108966000D02*
X150368000Y-102362000D01*
X150368000Y-102362000D02*
X150368000Y-77343000D01*
%TD*%
%TA.AperFunction,Conductor*%
%TO.N,GND*%
G36*
X176217894Y-64000971D02*
G01*
X176390446Y-64016068D01*
X176411731Y-64019821D01*
X176468954Y-64035153D01*
X176573802Y-64063247D01*
X176594103Y-64070636D01*
X176722120Y-64130331D01*
X176746165Y-64141544D01*
X176764884Y-64152351D01*
X176902327Y-64248590D01*
X176918884Y-64262484D01*
X177037515Y-64381115D01*
X177051409Y-64397672D01*
X177147648Y-64535115D01*
X177158455Y-64553834D01*
X177229360Y-64705889D01*
X177236753Y-64726201D01*
X177280178Y-64888268D01*
X177283931Y-64909553D01*
X177299028Y-65082104D01*
X177299500Y-65092912D01*
X177299500Y-125407087D01*
X177299028Y-125417894D01*
X177299028Y-125417895D01*
X177283931Y-125590446D01*
X177280178Y-125611731D01*
X177236753Y-125773798D01*
X177229360Y-125794110D01*
X177158455Y-125946165D01*
X177147648Y-125964884D01*
X177051409Y-126102327D01*
X177037515Y-126118884D01*
X176918884Y-126237515D01*
X176902327Y-126251409D01*
X176764884Y-126347648D01*
X176746165Y-126358455D01*
X176594110Y-126429360D01*
X176573798Y-126436753D01*
X176411731Y-126480178D01*
X176390446Y-126483931D01*
X176236074Y-126497437D01*
X176217893Y-126499028D01*
X176207088Y-126499500D01*
X141292912Y-126499500D01*
X141282106Y-126499028D01*
X141261813Y-126497252D01*
X141109553Y-126483931D01*
X141088268Y-126480178D01*
X140926201Y-126436753D01*
X140905889Y-126429360D01*
X140753834Y-126358455D01*
X140735115Y-126347648D01*
X140597672Y-126251409D01*
X140581115Y-126237515D01*
X140462484Y-126118884D01*
X140448590Y-126102327D01*
X140352351Y-125964884D01*
X140341544Y-125946165D01*
X140278049Y-125810000D01*
X140270636Y-125794103D01*
X140263246Y-125773798D01*
X140219821Y-125611731D01*
X140216068Y-125590445D01*
X140200972Y-125417894D01*
X140200500Y-125407087D01*
X140200500Y-124353713D01*
X140889500Y-124353713D01*
X140889500Y-124566286D01*
X140922753Y-124776239D01*
X140988444Y-124978414D01*
X141084951Y-125167820D01*
X141209890Y-125339786D01*
X141360213Y-125490109D01*
X141532179Y-125615048D01*
X141532181Y-125615049D01*
X141532184Y-125615051D01*
X141721588Y-125711557D01*
X141923757Y-125777246D01*
X142133713Y-125810500D01*
X142133714Y-125810500D01*
X142346286Y-125810500D01*
X142346287Y-125810500D01*
X142556243Y-125777246D01*
X142758412Y-125711557D01*
X142947816Y-125615051D01*
X142981682Y-125590446D01*
X143119786Y-125490109D01*
X143119788Y-125490106D01*
X143119792Y-125490104D01*
X143270104Y-125339792D01*
X143270106Y-125339788D01*
X143270109Y-125339786D01*
X143395048Y-125167820D01*
X143395047Y-125167820D01*
X143395051Y-125167816D01*
X143491557Y-124978412D01*
X143557246Y-124776243D01*
X143590500Y-124566287D01*
X143590500Y-124353713D01*
X156134500Y-124353713D01*
X156134500Y-124566286D01*
X156167753Y-124776239D01*
X156233444Y-124978414D01*
X156329951Y-125167820D01*
X156454890Y-125339786D01*
X156605213Y-125490109D01*
X156777179Y-125615048D01*
X156777181Y-125615049D01*
X156777184Y-125615051D01*
X156966588Y-125711557D01*
X157168757Y-125777246D01*
X157378713Y-125810500D01*
X157378714Y-125810500D01*
X157591286Y-125810500D01*
X157591287Y-125810500D01*
X157801243Y-125777246D01*
X158003412Y-125711557D01*
X158192816Y-125615051D01*
X158279478Y-125552088D01*
X158364784Y-125490110D01*
X158364784Y-125490109D01*
X158364792Y-125490104D01*
X158478717Y-125376178D01*
X158540036Y-125342696D01*
X158609728Y-125347680D01*
X158665662Y-125389551D01*
X158682577Y-125420528D01*
X158731646Y-125552088D01*
X158731649Y-125552093D01*
X158817809Y-125667187D01*
X158817812Y-125667190D01*
X158932906Y-125753350D01*
X158932913Y-125753354D01*
X159067620Y-125803596D01*
X159067627Y-125803598D01*
X159127155Y-125809999D01*
X159127172Y-125810000D01*
X159775000Y-125810000D01*
X159775000Y-124893012D01*
X159832007Y-124925925D01*
X159959174Y-124960000D01*
X160090826Y-124960000D01*
X160217993Y-124925925D01*
X160275000Y-124893012D01*
X160275000Y-125810000D01*
X160922828Y-125810000D01*
X160922844Y-125809999D01*
X160982372Y-125803598D01*
X160982379Y-125803596D01*
X161117086Y-125753354D01*
X161117093Y-125753350D01*
X161232187Y-125667190D01*
X161232190Y-125667187D01*
X161318350Y-125552093D01*
X161318354Y-125552086D01*
X161368596Y-125417379D01*
X161368598Y-125417372D01*
X161374999Y-125357844D01*
X161375000Y-125357827D01*
X161375000Y-124710000D01*
X160458012Y-124710000D01*
X160490925Y-124652993D01*
X160525000Y-124525826D01*
X160525000Y-124394174D01*
X160514158Y-124353713D01*
X173909500Y-124353713D01*
X173909500Y-124566286D01*
X173942753Y-124776239D01*
X174008444Y-124978414D01*
X174104951Y-125167820D01*
X174229890Y-125339786D01*
X174380213Y-125490109D01*
X174552179Y-125615048D01*
X174552181Y-125615049D01*
X174552184Y-125615051D01*
X174741588Y-125711557D01*
X174943757Y-125777246D01*
X175153713Y-125810500D01*
X175153714Y-125810500D01*
X175366286Y-125810500D01*
X175366287Y-125810500D01*
X175576243Y-125777246D01*
X175778412Y-125711557D01*
X175967816Y-125615051D01*
X176001682Y-125590446D01*
X176139786Y-125490109D01*
X176139788Y-125490106D01*
X176139792Y-125490104D01*
X176290104Y-125339792D01*
X176290106Y-125339788D01*
X176290109Y-125339786D01*
X176415048Y-125167820D01*
X176415047Y-125167820D01*
X176415051Y-125167816D01*
X176511557Y-124978412D01*
X176577246Y-124776243D01*
X176610500Y-124566287D01*
X176610500Y-124353713D01*
X176577246Y-124143757D01*
X176511557Y-123941588D01*
X176415051Y-123752184D01*
X176415049Y-123752181D01*
X176415048Y-123752179D01*
X176290109Y-123580213D01*
X176139786Y-123429890D01*
X175967820Y-123304951D01*
X175778414Y-123208444D01*
X175778413Y-123208443D01*
X175778412Y-123208443D01*
X175576243Y-123142754D01*
X175576241Y-123142753D01*
X175576240Y-123142753D01*
X175414957Y-123117208D01*
X175366287Y-123109500D01*
X175153713Y-123109500D01*
X175105042Y-123117208D01*
X174943760Y-123142753D01*
X174741585Y-123208444D01*
X174552179Y-123304951D01*
X174380213Y-123429890D01*
X174229890Y-123580213D01*
X174104951Y-123752179D01*
X174008444Y-123941585D01*
X173942753Y-124143760D01*
X173909500Y-124353713D01*
X160514158Y-124353713D01*
X160490925Y-124267007D01*
X160458012Y-124210000D01*
X161375000Y-124210000D01*
X161375000Y-123562172D01*
X161374999Y-123562155D01*
X161368598Y-123502627D01*
X161368596Y-123502620D01*
X161318354Y-123367913D01*
X161318350Y-123367906D01*
X161232190Y-123252812D01*
X161232187Y-123252809D01*
X161117093Y-123166649D01*
X161117086Y-123166645D01*
X160982379Y-123116403D01*
X160982372Y-123116401D01*
X160922844Y-123110000D01*
X160275000Y-123110000D01*
X160275000Y-124026988D01*
X160217993Y-123994075D01*
X160090826Y-123960000D01*
X159959174Y-123960000D01*
X159832007Y-123994075D01*
X159775000Y-124026988D01*
X159775000Y-123110000D01*
X159127155Y-123110000D01*
X159067627Y-123116401D01*
X159067620Y-123116403D01*
X158932913Y-123166645D01*
X158932906Y-123166649D01*
X158817812Y-123252809D01*
X158817809Y-123252812D01*
X158731649Y-123367906D01*
X158731646Y-123367912D01*
X158682577Y-123499471D01*
X158640705Y-123555404D01*
X158575241Y-123579821D01*
X158506968Y-123564969D01*
X158478714Y-123543818D01*
X158364786Y-123429890D01*
X158192820Y-123304951D01*
X158003414Y-123208444D01*
X158003413Y-123208443D01*
X158003412Y-123208443D01*
X157801243Y-123142754D01*
X157801241Y-123142753D01*
X157801240Y-123142753D01*
X157639957Y-123117208D01*
X157591287Y-123109500D01*
X157378713Y-123109500D01*
X157330042Y-123117208D01*
X157168760Y-123142753D01*
X156966585Y-123208444D01*
X156777179Y-123304951D01*
X156605213Y-123429890D01*
X156454890Y-123580213D01*
X156329951Y-123752179D01*
X156233444Y-123941585D01*
X156167753Y-124143760D01*
X156134500Y-124353713D01*
X143590500Y-124353713D01*
X143557246Y-124143757D01*
X143491557Y-123941588D01*
X143395051Y-123752184D01*
X143395049Y-123752181D01*
X143395048Y-123752179D01*
X143270109Y-123580213D01*
X143119786Y-123429890D01*
X142947820Y-123304951D01*
X142758414Y-123208444D01*
X142758413Y-123208443D01*
X142758412Y-123208443D01*
X142556243Y-123142754D01*
X142556241Y-123142753D01*
X142556240Y-123142753D01*
X142394957Y-123117208D01*
X142346287Y-123109500D01*
X142133713Y-123109500D01*
X142085042Y-123117208D01*
X141923760Y-123142753D01*
X141721585Y-123208444D01*
X141532179Y-123304951D01*
X141360213Y-123429890D01*
X141209890Y-123580213D01*
X141084951Y-123752179D01*
X140988444Y-123941585D01*
X140922753Y-124143760D01*
X140889500Y-124353713D01*
X140200500Y-124353713D01*
X140200500Y-118529448D01*
X147043500Y-118529448D01*
X147043500Y-118710551D01*
X147071829Y-118889410D01*
X147127787Y-119061636D01*
X147127788Y-119061639D01*
X147210006Y-119222997D01*
X147316441Y-119369494D01*
X147316445Y-119369499D01*
X147444500Y-119497554D01*
X147444505Y-119497558D01*
X147572287Y-119590396D01*
X147591006Y-119603996D01*
X147696484Y-119657740D01*
X147752360Y-119686211D01*
X147752363Y-119686212D01*
X147838476Y-119714191D01*
X147924591Y-119742171D01*
X148007429Y-119755291D01*
X148103449Y-119770500D01*
X148103454Y-119770500D01*
X149584551Y-119770500D01*
X149671259Y-119756765D01*
X149763409Y-119742171D01*
X149935639Y-119686211D01*
X150096994Y-119603996D01*
X150243501Y-119497553D01*
X150371553Y-119369501D01*
X150477996Y-119222994D01*
X150560211Y-119061639D01*
X150616171Y-118889409D01*
X150630765Y-118797259D01*
X150644500Y-118710551D01*
X150644500Y-118529448D01*
X150628019Y-118425397D01*
X150616171Y-118350591D01*
X150560211Y-118178361D01*
X150560211Y-118178360D01*
X150531740Y-118122484D01*
X150477996Y-118017006D01*
X150464396Y-117998287D01*
X150371558Y-117870505D01*
X150371554Y-117870500D01*
X150243499Y-117742445D01*
X150243494Y-117742441D01*
X150096997Y-117636006D01*
X150096996Y-117636005D01*
X150096994Y-117636004D01*
X150045300Y-117609664D01*
X149935639Y-117553788D01*
X149935636Y-117553787D01*
X149763410Y-117497829D01*
X149584551Y-117469500D01*
X149584546Y-117469500D01*
X148103454Y-117469500D01*
X148103449Y-117469500D01*
X147924589Y-117497829D01*
X147752363Y-117553787D01*
X147752360Y-117553788D01*
X147591002Y-117636006D01*
X147444505Y-117742441D01*
X147444500Y-117742445D01*
X147316445Y-117870500D01*
X147316441Y-117870505D01*
X147210006Y-118017002D01*
X147127788Y-118178360D01*
X147127787Y-118178363D01*
X147071829Y-118350589D01*
X147043500Y-118529448D01*
X140200500Y-118529448D01*
X140200500Y-113829448D01*
X147043500Y-113829448D01*
X147043500Y-114010551D01*
X147071829Y-114189410D01*
X147127787Y-114361636D01*
X147127788Y-114361639D01*
X147210006Y-114522997D01*
X147316441Y-114669494D01*
X147316445Y-114669499D01*
X147444500Y-114797554D01*
X147444505Y-114797558D01*
X147572287Y-114890396D01*
X147591006Y-114903996D01*
X147696484Y-114957740D01*
X147752360Y-114986211D01*
X147752363Y-114986212D01*
X147838476Y-115014191D01*
X147924591Y-115042171D01*
X148007429Y-115055291D01*
X148103449Y-115070500D01*
X148103454Y-115070500D01*
X149584551Y-115070500D01*
X149671259Y-115056765D01*
X149763409Y-115042171D01*
X149935639Y-114986211D01*
X150096994Y-114903996D01*
X150243501Y-114797553D01*
X150371553Y-114669501D01*
X150477996Y-114522994D01*
X150560211Y-114361639D01*
X150616171Y-114189409D01*
X150630765Y-114097259D01*
X150644500Y-114010551D01*
X150644500Y-113829448D01*
X150628019Y-113725397D01*
X150616171Y-113650591D01*
X150560211Y-113478361D01*
X150560211Y-113478360D01*
X150531740Y-113422484D01*
X150477996Y-113317006D01*
X150464396Y-113298287D01*
X150371558Y-113170505D01*
X150371554Y-113170500D01*
X150243499Y-113042445D01*
X150243494Y-113042441D01*
X150096997Y-112936006D01*
X150096996Y-112936005D01*
X150096994Y-112936004D01*
X150045300Y-112909664D01*
X149935639Y-112853788D01*
X149935636Y-112853787D01*
X149763410Y-112797829D01*
X149584551Y-112769500D01*
X149584546Y-112769500D01*
X148103454Y-112769500D01*
X148103449Y-112769500D01*
X147924589Y-112797829D01*
X147752363Y-112853787D01*
X147752360Y-112853788D01*
X147591002Y-112936006D01*
X147444505Y-113042441D01*
X147444500Y-113042445D01*
X147316445Y-113170500D01*
X147316441Y-113170505D01*
X147210006Y-113317002D01*
X147127788Y-113478360D01*
X147127787Y-113478363D01*
X147071829Y-113650589D01*
X147043500Y-113829448D01*
X140200500Y-113829448D01*
X140200500Y-109129448D01*
X147043500Y-109129448D01*
X147043500Y-109310551D01*
X147071829Y-109489410D01*
X147127787Y-109661636D01*
X147127788Y-109661639D01*
X147210006Y-109822997D01*
X147316441Y-109969494D01*
X147316445Y-109969499D01*
X147444500Y-110097554D01*
X147444505Y-110097558D01*
X147572287Y-110190396D01*
X147591006Y-110203996D01*
X147696484Y-110257740D01*
X147752360Y-110286211D01*
X147752363Y-110286212D01*
X147838476Y-110314191D01*
X147924591Y-110342171D01*
X148007429Y-110355291D01*
X148103449Y-110370500D01*
X148103454Y-110370500D01*
X149584551Y-110370500D01*
X149671259Y-110356765D01*
X149763409Y-110342171D01*
X149935639Y-110286211D01*
X150096994Y-110203996D01*
X150243501Y-110097553D01*
X150371553Y-109969501D01*
X150477996Y-109822994D01*
X150560211Y-109661639D01*
X150616171Y-109489409D01*
X150630765Y-109397259D01*
X150644500Y-109310551D01*
X150644500Y-109129448D01*
X150628019Y-109025397D01*
X150616171Y-108950591D01*
X150560211Y-108778361D01*
X150560211Y-108778360D01*
X150505934Y-108671838D01*
X150477996Y-108617006D01*
X150384485Y-108488298D01*
X150371558Y-108470505D01*
X150371554Y-108470500D01*
X150243499Y-108342445D01*
X150243494Y-108342441D01*
X150096997Y-108236006D01*
X150096996Y-108236005D01*
X150096994Y-108236004D01*
X150045300Y-108209664D01*
X149935639Y-108153788D01*
X149935636Y-108153787D01*
X149763410Y-108097829D01*
X149584551Y-108069500D01*
X149584546Y-108069500D01*
X148103454Y-108069500D01*
X148103449Y-108069500D01*
X147924589Y-108097829D01*
X147752363Y-108153787D01*
X147752360Y-108153788D01*
X147591002Y-108236006D01*
X147444505Y-108342441D01*
X147444500Y-108342445D01*
X147316445Y-108470500D01*
X147316441Y-108470505D01*
X147210006Y-108617002D01*
X147127788Y-108778360D01*
X147127787Y-108778363D01*
X147071829Y-108950589D01*
X147043500Y-109129448D01*
X140200500Y-109129448D01*
X140200500Y-96671648D01*
X141447500Y-96671648D01*
X141447500Y-96876351D01*
X141479522Y-97078534D01*
X141542781Y-97273223D01*
X141635715Y-97455613D01*
X141756028Y-97621213D01*
X141900786Y-97765971D01*
X142055749Y-97878556D01*
X142066390Y-97886287D01*
X142182607Y-97945503D01*
X142248776Y-97979218D01*
X142248778Y-97979218D01*
X142248781Y-97979220D01*
X142353137Y-98013127D01*
X142443465Y-98042477D01*
X142544557Y-98058488D01*
X142645648Y-98074500D01*
X142645649Y-98074500D01*
X142850351Y-98074500D01*
X142850352Y-98074500D01*
X143052534Y-98042477D01*
X143247219Y-97979220D01*
X143429610Y-97886287D01*
X143522590Y-97818732D01*
X143595213Y-97765971D01*
X143595215Y-97765968D01*
X143595219Y-97765966D01*
X143739966Y-97621219D01*
X143739968Y-97621215D01*
X143739971Y-97621213D01*
X143792732Y-97548590D01*
X143860287Y-97455610D01*
X143953220Y-97273219D01*
X144016477Y-97078534D01*
X144048500Y-96876352D01*
X144048500Y-96671648D01*
X144016477Y-96469466D01*
X143996830Y-96409000D01*
X143961885Y-96301449D01*
X143953220Y-96274781D01*
X143953218Y-96274778D01*
X143953218Y-96274776D01*
X143914111Y-96198026D01*
X143860287Y-96092390D01*
X143852556Y-96081749D01*
X143739971Y-95926786D01*
X143595213Y-95782028D01*
X143429613Y-95661715D01*
X143429612Y-95661714D01*
X143429610Y-95661713D01*
X143372653Y-95632691D01*
X143247223Y-95568781D01*
X143052534Y-95505522D01*
X142877995Y-95477878D01*
X142850352Y-95473500D01*
X142645648Y-95473500D01*
X142621329Y-95477351D01*
X142443465Y-95505522D01*
X142248776Y-95568781D01*
X142066386Y-95661715D01*
X141900786Y-95782028D01*
X141756028Y-95926786D01*
X141635715Y-96092386D01*
X141542781Y-96274776D01*
X141479522Y-96469465D01*
X141447500Y-96671648D01*
X140200500Y-96671648D01*
X140200500Y-75336992D01*
X140989500Y-75336992D01*
X140989500Y-75539007D01*
X141028907Y-75737119D01*
X141028909Y-75737127D01*
X141106213Y-75923755D01*
X141159904Y-76004109D01*
X141180782Y-76070787D01*
X141162297Y-76138167D01*
X141159904Y-76141891D01*
X141106213Y-76222244D01*
X141028909Y-76408872D01*
X141028907Y-76408880D01*
X140989500Y-76606992D01*
X140989500Y-76809007D01*
X141028907Y-77007119D01*
X141028909Y-77007127D01*
X141106212Y-77193752D01*
X141106217Y-77193762D01*
X141218441Y-77361718D01*
X141361276Y-77504553D01*
X141361278Y-77504554D01*
X141361282Y-77504558D01*
X141366889Y-77508304D01*
X141411694Y-77561914D01*
X141422000Y-77611407D01*
X141422000Y-78312570D01*
X141453433Y-78470594D01*
X141453436Y-78470606D01*
X141515093Y-78619461D01*
X141515100Y-78619474D01*
X141604617Y-78753444D01*
X141604620Y-78753448D01*
X141754456Y-78903284D01*
X141787941Y-78964607D01*
X141782957Y-79034299D01*
X141754457Y-79078645D01*
X141717898Y-79115204D01*
X141717892Y-79115211D01*
X141592951Y-79287179D01*
X141496444Y-79476585D01*
X141430753Y-79678760D01*
X141407000Y-79828732D01*
X141397500Y-79888713D01*
X141397500Y-80101287D01*
X141430754Y-80311243D01*
X141434276Y-80322084D01*
X141496444Y-80513414D01*
X141592951Y-80702820D01*
X141717890Y-80874786D01*
X141868213Y-81025109D01*
X142040182Y-81150050D01*
X142048946Y-81154516D01*
X142099742Y-81202491D01*
X142116536Y-81270312D01*
X142093998Y-81336447D01*
X142048946Y-81375484D01*
X142040182Y-81379949D01*
X141868213Y-81504890D01*
X141717890Y-81655213D01*
X141592951Y-81827179D01*
X141496444Y-82016585D01*
X141430753Y-82218760D01*
X141407000Y-82368732D01*
X141397500Y-82428713D01*
X141397500Y-82641287D01*
X141430754Y-82851243D01*
X141434276Y-82862084D01*
X141496444Y-83053414D01*
X141592951Y-83242820D01*
X141717890Y-83414786D01*
X141831818Y-83528714D01*
X141865303Y-83590037D01*
X141860319Y-83659729D01*
X141818447Y-83715662D01*
X141787471Y-83732577D01*
X141655912Y-83781646D01*
X141655906Y-83781649D01*
X141540812Y-83867809D01*
X141540809Y-83867812D01*
X141454649Y-83982906D01*
X141454645Y-83982913D01*
X141404403Y-84117620D01*
X141404401Y-84117627D01*
X141398000Y-84177155D01*
X141398000Y-84825000D01*
X142314988Y-84825000D01*
X142282075Y-84882007D01*
X142248000Y-85009174D01*
X142248000Y-85140826D01*
X142282075Y-85267993D01*
X142314988Y-85325000D01*
X141398000Y-85325000D01*
X141398000Y-85972844D01*
X141404401Y-86032372D01*
X141404403Y-86032379D01*
X141454645Y-86167086D01*
X141454649Y-86167093D01*
X141540809Y-86282187D01*
X141540812Y-86282190D01*
X141655906Y-86368350D01*
X141655913Y-86368354D01*
X141790620Y-86418596D01*
X141790627Y-86418598D01*
X141850155Y-86424999D01*
X141850172Y-86425000D01*
X142498000Y-86425000D01*
X142498000Y-85508012D01*
X142555007Y-85540925D01*
X142682174Y-85575000D01*
X142813826Y-85575000D01*
X142940993Y-85540925D01*
X142998000Y-85508012D01*
X142998000Y-86425000D01*
X143645828Y-86425000D01*
X143645844Y-86424999D01*
X143705372Y-86418598D01*
X143705379Y-86418596D01*
X143840086Y-86368354D01*
X143840089Y-86368352D01*
X143890688Y-86330474D01*
X143956152Y-86306056D01*
X144024425Y-86320907D01*
X144073831Y-86370312D01*
X144089000Y-86429740D01*
X144089000Y-86784415D01*
X144069315Y-86851454D01*
X144052681Y-86872096D01*
X143085745Y-87839031D01*
X143024422Y-87872516D01*
X142978666Y-87873823D01*
X142928986Y-87865954D01*
X142850352Y-87853500D01*
X142645648Y-87853500D01*
X142622224Y-87857210D01*
X142443465Y-87885522D01*
X142248776Y-87948781D01*
X142066386Y-88041715D01*
X141900786Y-88162028D01*
X141756028Y-88306786D01*
X141635715Y-88472386D01*
X141542781Y-88654776D01*
X141479522Y-88849465D01*
X141447500Y-89051648D01*
X141447500Y-89256351D01*
X141479522Y-89458534D01*
X141542781Y-89653223D01*
X141635715Y-89835613D01*
X141756028Y-90001213D01*
X141900786Y-90145971D01*
X142055749Y-90258556D01*
X142066390Y-90266287D01*
X142182607Y-90325503D01*
X142248776Y-90359218D01*
X142248778Y-90359218D01*
X142248781Y-90359220D01*
X142353137Y-90393127D01*
X142443465Y-90422477D01*
X142544557Y-90438488D01*
X142645648Y-90454500D01*
X142645649Y-90454500D01*
X142850351Y-90454500D01*
X142850352Y-90454500D01*
X143052534Y-90422477D01*
X143247219Y-90359220D01*
X143429610Y-90266287D01*
X143522590Y-90198732D01*
X143595213Y-90145971D01*
X143595215Y-90145968D01*
X143595219Y-90145966D01*
X143739966Y-90001219D01*
X143739968Y-90001215D01*
X143739971Y-90001213D01*
X143792732Y-89928590D01*
X143860287Y-89835610D01*
X143953220Y-89653219D01*
X144016477Y-89458534D01*
X144048500Y-89256352D01*
X144048500Y-89051648D01*
X144028176Y-88923331D01*
X144037130Y-88854038D01*
X144062965Y-88816255D01*
X145103505Y-87775715D01*
X145164826Y-87742232D01*
X145234518Y-87747216D01*
X145290451Y-87789088D01*
X145313657Y-87844000D01*
X145326587Y-87925637D01*
X145387993Y-88114629D01*
X145387994Y-88114631D01*
X145430663Y-88198372D01*
X145478213Y-88291694D01*
X145595019Y-88452464D01*
X145735536Y-88592981D01*
X145896306Y-88709787D01*
X145974333Y-88749544D01*
X146073367Y-88800005D01*
X146073370Y-88800006D01*
X146167866Y-88830709D01*
X146262364Y-88861413D01*
X146458639Y-88892500D01*
X146458640Y-88892500D01*
X148181360Y-88892500D01*
X148181361Y-88892500D01*
X148377636Y-88861413D01*
X148566632Y-88800005D01*
X148743694Y-88709787D01*
X148904464Y-88592981D01*
X149044981Y-88452464D01*
X149161787Y-88291694D01*
X149227852Y-88162034D01*
X149252006Y-88114631D01*
X149252006Y-88114629D01*
X149308069Y-87942084D01*
X149347506Y-87884409D01*
X149411865Y-87857210D01*
X149480711Y-87869124D01*
X149532187Y-87916368D01*
X149550000Y-87980402D01*
X149550000Y-102442570D01*
X149581433Y-102600594D01*
X149581436Y-102600606D01*
X149643093Y-102749461D01*
X149643100Y-102749474D01*
X149732617Y-102883444D01*
X149732620Y-102883448D01*
X155949068Y-109099895D01*
X155982553Y-109161218D01*
X155983004Y-109163385D01*
X156002254Y-109260161D01*
X156002256Y-109260169D01*
X156078277Y-109443701D01*
X156078282Y-109443710D01*
X156188646Y-109608880D01*
X156188649Y-109608884D01*
X156329115Y-109749350D01*
X156329119Y-109749353D01*
X156494289Y-109859717D01*
X156494295Y-109859720D01*
X156494296Y-109859721D01*
X156677831Y-109935744D01*
X156872666Y-109974499D01*
X156872670Y-109974500D01*
X156872671Y-109974500D01*
X157071330Y-109974500D01*
X157071331Y-109974499D01*
X157266169Y-109935744D01*
X157449704Y-109859721D01*
X157614881Y-109749353D01*
X157755353Y-109608881D01*
X157865721Y-109443704D01*
X157941744Y-109260169D01*
X157980500Y-109065329D01*
X157980500Y-108866671D01*
X157941744Y-108671831D01*
X157865721Y-108488296D01*
X157865720Y-108488295D01*
X157865717Y-108488289D01*
X157755353Y-108323119D01*
X157755350Y-108323115D01*
X157614884Y-108182649D01*
X157614880Y-108182646D01*
X157449710Y-108072282D01*
X157449701Y-108072277D01*
X157266169Y-107996256D01*
X157266161Y-107996254D01*
X157169385Y-107977004D01*
X157107474Y-107944619D01*
X157105895Y-107943068D01*
X151222319Y-102059492D01*
X151188834Y-101998169D01*
X151186000Y-101971811D01*
X151186000Y-77262433D01*
X151185999Y-77262429D01*
X151154566Y-77104405D01*
X151154565Y-77104398D01*
X151105261Y-76985368D01*
X151092902Y-76955531D01*
X151092901Y-76955530D01*
X151092898Y-76955524D01*
X151003382Y-76821555D01*
X151003379Y-76821551D01*
X149370947Y-75189120D01*
X149337462Y-75127797D01*
X149336155Y-75082046D01*
X149344500Y-75029361D01*
X149344500Y-74830639D01*
X149313413Y-74634364D01*
X149259383Y-74468075D01*
X149252006Y-74445370D01*
X149252005Y-74445367D01*
X149161786Y-74268305D01*
X149156534Y-74261076D01*
X149044981Y-74107536D01*
X148904464Y-73967019D01*
X148743694Y-73850213D01*
X148689332Y-73822514D01*
X148566632Y-73759994D01*
X148566629Y-73759993D01*
X148471554Y-73729102D01*
X148413878Y-73689665D01*
X148386680Y-73625306D01*
X148398595Y-73556460D01*
X148435562Y-73511903D01*
X148439191Y-73509185D01*
X148525350Y-73394093D01*
X148525354Y-73394086D01*
X148575596Y-73259379D01*
X148575598Y-73259372D01*
X148581999Y-73199844D01*
X148582000Y-73199827D01*
X148582000Y-72640000D01*
X147762251Y-72640000D01*
X147793381Y-72586081D01*
X147828000Y-72456880D01*
X147828000Y-72323120D01*
X147793381Y-72193919D01*
X147762251Y-72140000D01*
X148582000Y-72140000D01*
X148582000Y-71580172D01*
X148581999Y-71580155D01*
X148575598Y-71520627D01*
X148575596Y-71520620D01*
X148525354Y-71385913D01*
X148525350Y-71385906D01*
X148439190Y-71270813D01*
X148435560Y-71268095D01*
X148428722Y-71258960D01*
X148418924Y-71253117D01*
X148408162Y-71231495D01*
X148393689Y-71212161D01*
X148392875Y-71200781D01*
X148387791Y-71190567D01*
X148390427Y-71166557D01*
X148388705Y-71142469D01*
X148394172Y-71132455D01*
X148395418Y-71121115D01*
X148410614Y-71102344D01*
X148422190Y-71081146D01*
X148433338Y-71074277D01*
X148439383Y-71066811D01*
X148470190Y-71051571D01*
X148470980Y-71051085D01*
X148471174Y-71051020D01*
X148566632Y-71020005D01*
X148569501Y-71018542D01*
X148577094Y-71016035D01*
X148607617Y-71015014D01*
X148637992Y-71011746D01*
X148642211Y-71013857D01*
X148646924Y-71013700D01*
X148673153Y-71029343D01*
X148700473Y-71043016D01*
X148703666Y-71046097D01*
X149640681Y-71983112D01*
X149674166Y-72044435D01*
X149677000Y-72070793D01*
X149677000Y-74261074D01*
X149677000Y-74261076D01*
X149676999Y-74261076D01*
X149695523Y-74354197D01*
X149706336Y-74408555D01*
X149707121Y-74412500D01*
X149713316Y-74443646D01*
X149784552Y-74615627D01*
X149887967Y-74770398D01*
X149887973Y-74770406D01*
X151926681Y-76809113D01*
X151960166Y-76870436D01*
X151963000Y-76896794D01*
X151963000Y-85691074D01*
X151963000Y-85691076D01*
X151962999Y-85691076D01*
X151999235Y-85873239D01*
X151999245Y-85873346D01*
X151999256Y-85873344D01*
X151999314Y-85873639D01*
X151999317Y-85873650D01*
X152070550Y-86045623D01*
X152070552Y-86045626D01*
X152173967Y-86200398D01*
X152173973Y-86200406D01*
X154974681Y-89001113D01*
X155008166Y-89062436D01*
X155011000Y-89088794D01*
X155011000Y-94045206D01*
X154991315Y-94112245D01*
X154974681Y-94132887D01*
X154624887Y-94482681D01*
X154563564Y-94516166D01*
X154537206Y-94519000D01*
X154107547Y-94519000D01*
X154040508Y-94499315D01*
X154019866Y-94482681D01*
X154009213Y-94472028D01*
X153843611Y-94351713D01*
X153789621Y-94324203D01*
X153738825Y-94276228D01*
X153722031Y-94208407D01*
X153744569Y-94142272D01*
X153789624Y-94103233D01*
X153843349Y-94075859D01*
X153887921Y-94043474D01*
X153208447Y-93364000D01*
X153214661Y-93364000D01*
X153316394Y-93336741D01*
X153407606Y-93284080D01*
X153482080Y-93209606D01*
X153534741Y-93118394D01*
X153562000Y-93016661D01*
X153562000Y-93010448D01*
X154241474Y-93689922D01*
X154241474Y-93689921D01*
X154273859Y-93645349D01*
X154366755Y-93463031D01*
X154429990Y-93268417D01*
X154462000Y-93066317D01*
X154462000Y-92861682D01*
X154429990Y-92659582D01*
X154366755Y-92464968D01*
X154273859Y-92282650D01*
X154241474Y-92238077D01*
X154241474Y-92238076D01*
X153562000Y-92917551D01*
X153562000Y-92911339D01*
X153534741Y-92809606D01*
X153482080Y-92718394D01*
X153407606Y-92643920D01*
X153316394Y-92591259D01*
X153214661Y-92564000D01*
X153208446Y-92564000D01*
X153887922Y-91884524D01*
X153887921Y-91884523D01*
X153843359Y-91852147D01*
X153843350Y-91852141D01*
X153661031Y-91759244D01*
X153466417Y-91696009D01*
X153264317Y-91664000D01*
X153059683Y-91664000D01*
X152857582Y-91696009D01*
X152662968Y-91759244D01*
X152480644Y-91852143D01*
X152436077Y-91884523D01*
X152436077Y-91884524D01*
X153115554Y-92564000D01*
X153109339Y-92564000D01*
X153007606Y-92591259D01*
X152916394Y-92643920D01*
X152841920Y-92718394D01*
X152789259Y-92809606D01*
X152762000Y-92911339D01*
X152762000Y-92917553D01*
X152082524Y-92238077D01*
X152082523Y-92238077D01*
X152050143Y-92282644D01*
X151957244Y-92464968D01*
X151894009Y-92659582D01*
X151862000Y-92861682D01*
X151862000Y-93066317D01*
X151894009Y-93268417D01*
X151957244Y-93463031D01*
X152050141Y-93645350D01*
X152050147Y-93645359D01*
X152082523Y-93689921D01*
X152082524Y-93689922D01*
X152762000Y-93010446D01*
X152762000Y-93016661D01*
X152789259Y-93118394D01*
X152841920Y-93209606D01*
X152916394Y-93284080D01*
X153007606Y-93336741D01*
X153109339Y-93364000D01*
X153115553Y-93364000D01*
X152436076Y-94043474D01*
X152480652Y-94075861D01*
X152534376Y-94103234D01*
X152585172Y-94151208D01*
X152601968Y-94219028D01*
X152579431Y-94285164D01*
X152534379Y-94324203D01*
X152480386Y-94351714D01*
X152314786Y-94472028D01*
X152170028Y-94616786D01*
X152049715Y-94782386D01*
X151956781Y-94964776D01*
X151893522Y-95159465D01*
X151861500Y-95361648D01*
X151861500Y-95566351D01*
X151893522Y-95768534D01*
X151956781Y-95963223D01*
X152049715Y-96145613D01*
X152170028Y-96311213D01*
X152314786Y-96455971D01*
X152469749Y-96568556D01*
X152480390Y-96576287D01*
X152596607Y-96635503D01*
X152662776Y-96669218D01*
X152662778Y-96669218D01*
X152662781Y-96669220D01*
X152767137Y-96703127D01*
X152857465Y-96732477D01*
X152958557Y-96748488D01*
X153059648Y-96764500D01*
X153059649Y-96764500D01*
X153264351Y-96764500D01*
X153264352Y-96764500D01*
X153466534Y-96732477D01*
X153661219Y-96669220D01*
X153843610Y-96576287D01*
X153990638Y-96469466D01*
X154009213Y-96455971D01*
X154009215Y-96455968D01*
X154009219Y-96455966D01*
X154019866Y-96445319D01*
X154081189Y-96411834D01*
X154107547Y-96409000D01*
X155073076Y-96409000D01*
X155073077Y-96408999D01*
X155255646Y-96372684D01*
X155427625Y-96301448D01*
X155467535Y-96274781D01*
X155582403Y-96198029D01*
X156011898Y-95768534D01*
X156418785Y-95361648D01*
X163037500Y-95361648D01*
X163037500Y-95566351D01*
X163069522Y-95768534D01*
X163132781Y-95963223D01*
X163225715Y-96145613D01*
X163346028Y-96311213D01*
X163490786Y-96455971D01*
X163645749Y-96568556D01*
X163656390Y-96576287D01*
X163772607Y-96635503D01*
X163838776Y-96669218D01*
X163838778Y-96669218D01*
X163838781Y-96669220D01*
X163943137Y-96703127D01*
X164033465Y-96732477D01*
X164134557Y-96748488D01*
X164235648Y-96764500D01*
X164235649Y-96764500D01*
X164440351Y-96764500D01*
X164440352Y-96764500D01*
X164642534Y-96732477D01*
X164837219Y-96669220D01*
X165019610Y-96576287D01*
X165166638Y-96469466D01*
X165185213Y-96455971D01*
X165185215Y-96455968D01*
X165185219Y-96455966D01*
X165329966Y-96311219D01*
X165329968Y-96311215D01*
X165329971Y-96311213D01*
X165412202Y-96198030D01*
X165450287Y-96145610D01*
X165543220Y-95963219D01*
X165606477Y-95768534D01*
X165638500Y-95566352D01*
X165638500Y-95361648D01*
X165606477Y-95159466D01*
X165543220Y-94964781D01*
X165543218Y-94964778D01*
X165543218Y-94964776D01*
X165509503Y-94898607D01*
X165450287Y-94782390D01*
X165410285Y-94727331D01*
X165329971Y-94616786D01*
X165185213Y-94472028D01*
X165019611Y-94351713D01*
X164965621Y-94324203D01*
X164914825Y-94276228D01*
X164898031Y-94208407D01*
X164920569Y-94142272D01*
X164965624Y-94103233D01*
X165019349Y-94075859D01*
X165063921Y-94043474D01*
X164384447Y-93364000D01*
X164390661Y-93364000D01*
X164492394Y-93336741D01*
X164583606Y-93284080D01*
X164658080Y-93209606D01*
X164710741Y-93118394D01*
X164738000Y-93016661D01*
X164738000Y-93010447D01*
X165417474Y-93689921D01*
X165449859Y-93645349D01*
X165542755Y-93463031D01*
X165605990Y-93268417D01*
X165638000Y-93066317D01*
X165638000Y-92861682D01*
X165605990Y-92659582D01*
X165542755Y-92464968D01*
X165449859Y-92282650D01*
X165417474Y-92238077D01*
X165417474Y-92238076D01*
X164738000Y-92917551D01*
X164738000Y-92911339D01*
X164710741Y-92809606D01*
X164658080Y-92718394D01*
X164583606Y-92643920D01*
X164492394Y-92591259D01*
X164390661Y-92564000D01*
X164384446Y-92564000D01*
X165063922Y-91884524D01*
X165063921Y-91884523D01*
X165019359Y-91852147D01*
X165019350Y-91852141D01*
X164837031Y-91759244D01*
X164642417Y-91696009D01*
X164440317Y-91664000D01*
X164235683Y-91664000D01*
X164033582Y-91696009D01*
X163838968Y-91759244D01*
X163656644Y-91852143D01*
X163612077Y-91884523D01*
X163612077Y-91884524D01*
X164291554Y-92564000D01*
X164285339Y-92564000D01*
X164183606Y-92591259D01*
X164092394Y-92643920D01*
X164017920Y-92718394D01*
X163965259Y-92809606D01*
X163938000Y-92911339D01*
X163938000Y-92917553D01*
X163258524Y-92238077D01*
X163258523Y-92238077D01*
X163226143Y-92282644D01*
X163133244Y-92464968D01*
X163070009Y-92659582D01*
X163038000Y-92861682D01*
X163038000Y-93066317D01*
X163070009Y-93268417D01*
X163133244Y-93463031D01*
X163226141Y-93645350D01*
X163226147Y-93645359D01*
X163258523Y-93689921D01*
X163258524Y-93689922D01*
X163938000Y-93010446D01*
X163938000Y-93016661D01*
X163965259Y-93118394D01*
X164017920Y-93209606D01*
X164092394Y-93284080D01*
X164183606Y-93336741D01*
X164285339Y-93364000D01*
X164291553Y-93364000D01*
X163612076Y-94043474D01*
X163656652Y-94075861D01*
X163710376Y-94103234D01*
X163761172Y-94151208D01*
X163777968Y-94219028D01*
X163755431Y-94285164D01*
X163710379Y-94324203D01*
X163656386Y-94351714D01*
X163490786Y-94472028D01*
X163346028Y-94616786D01*
X163225715Y-94782386D01*
X163132781Y-94964776D01*
X163069522Y-95159465D01*
X163037500Y-95361648D01*
X156418785Y-95361648D01*
X156511338Y-95269095D01*
X156690024Y-95090408D01*
X156690025Y-95090407D01*
X156690029Y-95090403D01*
X156759130Y-94986984D01*
X156793448Y-94935625D01*
X156856920Y-94782390D01*
X156864684Y-94763647D01*
X156871907Y-94727331D01*
X156901000Y-94581074D01*
X156901000Y-88552926D01*
X156901000Y-88552923D01*
X156900999Y-88552921D01*
X156884980Y-88472390D01*
X156864684Y-88370354D01*
X156793448Y-88198375D01*
X156793447Y-88198372D01*
X156737493Y-88114631D01*
X156690032Y-88043601D01*
X156690026Y-88043593D01*
X153889319Y-85242886D01*
X153855834Y-85181563D01*
X153853000Y-85155205D01*
X153853000Y-76360923D01*
X153852999Y-76360921D01*
X153816685Y-76178356D01*
X153816683Y-76178350D01*
X153814193Y-76172337D01*
X153814193Y-76172338D01*
X153779886Y-76089515D01*
X153745448Y-76006374D01*
X153745446Y-76006371D01*
X153745444Y-76006367D01*
X153642029Y-75851597D01*
X153642026Y-75851593D01*
X151672568Y-73882135D01*
X154916500Y-73882135D01*
X154916500Y-75977870D01*
X154916501Y-75977876D01*
X154922908Y-76037483D01*
X154973202Y-76172327D01*
X154973206Y-76172335D01*
X155059452Y-76287544D01*
X155059455Y-76287547D01*
X155174664Y-76373793D01*
X155174671Y-76373797D01*
X155309517Y-76424091D01*
X155309516Y-76424091D01*
X155316444Y-76424835D01*
X155369127Y-76430500D01*
X157464872Y-76430499D01*
X157524483Y-76424091D01*
X157659331Y-76373796D01*
X157774546Y-76287546D01*
X157860796Y-76172331D01*
X157860796Y-76172329D01*
X157860798Y-76172327D01*
X157901922Y-76062066D01*
X157911091Y-76037483D01*
X157917500Y-75977873D01*
X157917499Y-74811947D01*
X159917000Y-74811947D01*
X159917000Y-75048052D01*
X159953934Y-75281247D01*
X160026897Y-75505802D01*
X160134087Y-75716174D01*
X160194338Y-75799104D01*
X160194340Y-75799105D01*
X160934037Y-75059408D01*
X160951075Y-75122993D01*
X161016901Y-75237007D01*
X161109993Y-75330099D01*
X161224007Y-75395925D01*
X161287590Y-75412962D01*
X160547893Y-76152658D01*
X160630828Y-76212914D01*
X160841197Y-76320102D01*
X161065752Y-76393065D01*
X161065751Y-76393065D01*
X161298948Y-76430000D01*
X161535052Y-76430000D01*
X161768247Y-76393065D01*
X161992802Y-76320102D01*
X162203163Y-76212918D01*
X162203169Y-76212914D01*
X162286104Y-76152658D01*
X162286105Y-76152658D01*
X161546408Y-75412962D01*
X161609993Y-75395925D01*
X161724007Y-75330099D01*
X161817099Y-75237007D01*
X161882925Y-75122993D01*
X161899962Y-75059409D01*
X162639658Y-75799105D01*
X162639658Y-75799104D01*
X162699914Y-75716169D01*
X162699918Y-75716163D01*
X162807102Y-75505802D01*
X162880065Y-75281247D01*
X162917000Y-75048052D01*
X162917000Y-74811947D01*
X162880065Y-74578752D01*
X162807102Y-74354197D01*
X162699914Y-74143828D01*
X162639658Y-74060894D01*
X162639658Y-74060893D01*
X161899962Y-74800590D01*
X161882925Y-74737007D01*
X161817099Y-74622993D01*
X161724007Y-74529901D01*
X161609993Y-74464075D01*
X161546409Y-74447037D01*
X162286105Y-73707340D01*
X162286104Y-73707338D01*
X162203174Y-73647087D01*
X161992802Y-73539897D01*
X161768247Y-73466934D01*
X161768248Y-73466934D01*
X161535052Y-73430000D01*
X161298948Y-73430000D01*
X161065752Y-73466934D01*
X160841197Y-73539897D01*
X160630830Y-73647084D01*
X160547894Y-73707340D01*
X161287591Y-74447037D01*
X161224007Y-74464075D01*
X161109993Y-74529901D01*
X161016901Y-74622993D01*
X160951075Y-74737007D01*
X160934037Y-74800591D01*
X160194340Y-74060894D01*
X160134084Y-74143830D01*
X160026897Y-74354197D01*
X159953934Y-74578752D01*
X159917000Y-74811947D01*
X157917499Y-74811947D01*
X157917499Y-73882128D01*
X157911091Y-73822517D01*
X157907499Y-73812886D01*
X157901922Y-73797931D01*
X157860797Y-73687671D01*
X157860793Y-73687664D01*
X157774547Y-73572455D01*
X157774544Y-73572452D01*
X157659335Y-73486206D01*
X157659328Y-73486202D01*
X157524482Y-73435908D01*
X157524483Y-73435908D01*
X157464883Y-73429501D01*
X157464881Y-73429500D01*
X157464873Y-73429500D01*
X157464864Y-73429500D01*
X155369129Y-73429500D01*
X155369123Y-73429501D01*
X155309516Y-73435908D01*
X155174671Y-73486202D01*
X155174664Y-73486206D01*
X155059455Y-73572452D01*
X155059452Y-73572455D01*
X154973206Y-73687664D01*
X154973202Y-73687671D01*
X154922908Y-73822517D01*
X154919931Y-73850213D01*
X154916501Y-73882123D01*
X154916500Y-73882135D01*
X151672568Y-73882135D01*
X151603319Y-73812886D01*
X151569834Y-73751563D01*
X151567000Y-73725205D01*
X151567000Y-71534923D01*
X151566999Y-71534921D01*
X151530685Y-71352361D01*
X151530684Y-71352354D01*
X151472614Y-71212161D01*
X151459449Y-71180377D01*
X151459444Y-71180368D01*
X151356030Y-71025599D01*
X151312988Y-70982557D01*
X151224402Y-70893971D01*
X150842125Y-70511694D01*
X150163880Y-69833448D01*
X150081071Y-69750639D01*
X168155500Y-69750639D01*
X168155500Y-69949360D01*
X168186587Y-70145637D01*
X168247993Y-70334629D01*
X168247994Y-70334632D01*
X168338213Y-70511694D01*
X168455019Y-70672464D01*
X168595536Y-70812981D01*
X168756306Y-70929787D01*
X168874832Y-70990179D01*
X168912780Y-71009515D01*
X168963576Y-71057490D01*
X168980371Y-71125311D01*
X168957833Y-71191446D01*
X168912780Y-71230485D01*
X168756305Y-71310213D01*
X168595533Y-71427021D01*
X168455021Y-71567533D01*
X168338213Y-71728305D01*
X168247994Y-71905367D01*
X168247993Y-71905370D01*
X168186587Y-72094362D01*
X168155500Y-72290639D01*
X168155500Y-72489360D01*
X168186587Y-72685637D01*
X168247993Y-72874629D01*
X168247994Y-72874632D01*
X168338213Y-73051694D01*
X168455019Y-73212464D01*
X168595536Y-73352981D01*
X168756306Y-73469787D01*
X168838963Y-73511903D01*
X168912780Y-73549515D01*
X168963576Y-73597490D01*
X168980371Y-73665311D01*
X168957833Y-73731446D01*
X168912780Y-73770485D01*
X168756305Y-73850213D01*
X168595533Y-73967021D01*
X168455021Y-74107533D01*
X168338213Y-74268305D01*
X168247994Y-74445367D01*
X168247993Y-74445370D01*
X168186587Y-74634362D01*
X168186587Y-74634364D01*
X168155500Y-74830639D01*
X168155500Y-75029361D01*
X168159982Y-75057661D01*
X168186587Y-75225637D01*
X168247993Y-75414629D01*
X168247994Y-75414632D01*
X168338213Y-75591694D01*
X168455019Y-75752464D01*
X168595536Y-75892981D01*
X168756306Y-76009787D01*
X168835925Y-76050355D01*
X168933367Y-76100005D01*
X168933373Y-76100007D01*
X169028444Y-76130897D01*
X169086120Y-76170334D01*
X169113319Y-76234692D01*
X169101405Y-76303539D01*
X169064447Y-76348088D01*
X169060813Y-76350808D01*
X169060809Y-76350812D01*
X168974649Y-76465906D01*
X168974645Y-76465913D01*
X168924403Y-76600620D01*
X168924401Y-76600627D01*
X168918000Y-76660155D01*
X168918000Y-77220000D01*
X169737749Y-77220000D01*
X169706619Y-77273919D01*
X169672000Y-77403120D01*
X169672000Y-77536880D01*
X169706619Y-77666081D01*
X169737749Y-77720000D01*
X168918000Y-77720000D01*
X168918000Y-78279844D01*
X168924401Y-78339372D01*
X168924403Y-78339379D01*
X168974645Y-78474086D01*
X168974649Y-78474093D01*
X169060809Y-78589187D01*
X169060812Y-78589190D01*
X169064441Y-78591907D01*
X169106310Y-78647842D01*
X169111292Y-78717534D01*
X169077805Y-78778855D01*
X169028445Y-78809102D01*
X168933370Y-78839993D01*
X168933367Y-78839994D01*
X168756305Y-78930213D01*
X168595533Y-79047021D01*
X168455021Y-79187533D01*
X168338213Y-79348305D01*
X168247994Y-79525367D01*
X168247993Y-79525370D01*
X168186587Y-79714362D01*
X168155500Y-79910639D01*
X168155500Y-80109360D01*
X168186587Y-80305637D01*
X168247993Y-80494629D01*
X168247994Y-80494632D01*
X168331000Y-80657537D01*
X168338213Y-80671694D01*
X168455019Y-80832464D01*
X168595536Y-80972981D01*
X168756306Y-81089787D01*
X168874574Y-81150048D01*
X168912780Y-81169515D01*
X168963576Y-81217490D01*
X168980371Y-81285311D01*
X168957833Y-81351446D01*
X168912780Y-81390485D01*
X168756305Y-81470213D01*
X168595533Y-81587021D01*
X168455021Y-81727533D01*
X168338213Y-81888305D01*
X168247994Y-82065367D01*
X168247993Y-82065370D01*
X168186587Y-82254362D01*
X168155500Y-82450639D01*
X168155500Y-82649360D01*
X168186587Y-82845637D01*
X168247993Y-83034629D01*
X168247994Y-83034632D01*
X168331000Y-83197537D01*
X168338213Y-83211694D01*
X168455019Y-83372464D01*
X168595536Y-83512981D01*
X168756306Y-83629787D01*
X168856426Y-83680801D01*
X168912780Y-83709515D01*
X168963576Y-83757490D01*
X168980371Y-83825311D01*
X168957833Y-83891446D01*
X168912780Y-83930485D01*
X168756305Y-84010213D01*
X168595533Y-84127021D01*
X168455021Y-84267533D01*
X168338213Y-84428305D01*
X168247994Y-84605367D01*
X168247993Y-84605370D01*
X168186587Y-84794362D01*
X168155500Y-84990639D01*
X168155500Y-85189360D01*
X168186587Y-85385637D01*
X168247993Y-85574629D01*
X168247994Y-85574632D01*
X168307325Y-85691074D01*
X168338213Y-85751694D01*
X168455019Y-85912464D01*
X168595536Y-86052981D01*
X168756306Y-86169787D01*
X168816383Y-86200398D01*
X168933367Y-86260005D01*
X168933373Y-86260007D01*
X169027863Y-86290708D01*
X169085539Y-86330145D01*
X169112738Y-86394503D01*
X169100824Y-86463349D01*
X169063864Y-86507900D01*
X169060457Y-86510450D01*
X169060452Y-86510455D01*
X168974206Y-86625664D01*
X168974202Y-86625671D01*
X168923908Y-86760517D01*
X168917501Y-86820116D01*
X168917501Y-86820123D01*
X168917500Y-86820135D01*
X168917500Y-88439870D01*
X168917501Y-88439876D01*
X168923908Y-88499483D01*
X168974202Y-88634328D01*
X168974206Y-88634335D01*
X169060452Y-88749544D01*
X169060455Y-88749547D01*
X169175664Y-88835793D01*
X169175671Y-88835797D01*
X169310517Y-88886091D01*
X169310516Y-88886091D01*
X169317444Y-88886835D01*
X169370127Y-88892500D01*
X170989872Y-88892499D01*
X171049483Y-88886091D01*
X171184331Y-88835796D01*
X171299546Y-88749546D01*
X171385796Y-88634331D01*
X171436091Y-88499483D01*
X171442500Y-88439873D01*
X171442499Y-86820128D01*
X171436091Y-86760517D01*
X171433421Y-86753359D01*
X171385797Y-86625671D01*
X171385793Y-86625664D01*
X171299547Y-86510456D01*
X171299548Y-86510456D01*
X171299546Y-86510454D01*
X171296138Y-86507902D01*
X171293588Y-86504496D01*
X171293275Y-86504183D01*
X171293320Y-86504137D01*
X171254270Y-86451969D01*
X171249288Y-86382277D01*
X171282775Y-86320955D01*
X171332134Y-86290708D01*
X171426632Y-86260005D01*
X171603694Y-86169787D01*
X171764464Y-86052981D01*
X171904981Y-85912464D01*
X172021787Y-85751694D01*
X172112005Y-85574632D01*
X172173413Y-85385636D01*
X172204500Y-85189361D01*
X172204500Y-84990639D01*
X172173413Y-84794364D01*
X172142709Y-84699866D01*
X172112006Y-84605370D01*
X172112005Y-84605367D01*
X172066035Y-84515149D01*
X172021787Y-84428306D01*
X171904981Y-84267536D01*
X171764464Y-84127019D01*
X171603694Y-84010213D01*
X171447218Y-83930484D01*
X171396423Y-83882510D01*
X171379628Y-83814689D01*
X171402165Y-83748554D01*
X171447218Y-83709515D01*
X171603694Y-83629787D01*
X171764464Y-83512981D01*
X171904981Y-83372464D01*
X172021787Y-83211694D01*
X172112005Y-83034632D01*
X172173413Y-82845636D01*
X172204500Y-82649361D01*
X172204500Y-82450639D01*
X172173413Y-82254364D01*
X172112005Y-82065368D01*
X172112005Y-82065367D01*
X172066035Y-81975149D01*
X172021787Y-81888306D01*
X171904981Y-81727536D01*
X171764464Y-81587019D01*
X171603694Y-81470213D01*
X171447218Y-81390484D01*
X171396423Y-81342510D01*
X171379628Y-81274689D01*
X171402165Y-81208554D01*
X171447218Y-81169515D01*
X171603694Y-81089787D01*
X171764464Y-80972981D01*
X171904981Y-80832464D01*
X172021787Y-80671694D01*
X172112005Y-80494632D01*
X172173413Y-80305636D01*
X172204500Y-80109361D01*
X172204500Y-79910639D01*
X172173413Y-79714364D01*
X172112005Y-79525368D01*
X172112005Y-79525367D01*
X172066035Y-79435149D01*
X172021787Y-79348306D01*
X171904981Y-79187536D01*
X171764464Y-79047019D01*
X171603694Y-78930213D01*
X171583652Y-78920001D01*
X171426632Y-78839994D01*
X171426629Y-78839993D01*
X171331554Y-78809102D01*
X171273878Y-78769665D01*
X171246680Y-78705306D01*
X171258595Y-78636460D01*
X171295562Y-78591903D01*
X171299191Y-78589185D01*
X171385350Y-78474093D01*
X171385354Y-78474086D01*
X171435596Y-78339379D01*
X171435598Y-78339372D01*
X171441999Y-78279844D01*
X171442000Y-78279827D01*
X171442000Y-77720000D01*
X170622251Y-77720000D01*
X170653381Y-77666081D01*
X170688000Y-77536880D01*
X170688000Y-77403120D01*
X170653381Y-77273919D01*
X170622251Y-77220000D01*
X171442000Y-77220000D01*
X171442000Y-76660172D01*
X171441999Y-76660155D01*
X171435598Y-76600627D01*
X171435596Y-76600620D01*
X171385354Y-76465913D01*
X171385350Y-76465906D01*
X171299190Y-76350812D01*
X171299188Y-76350810D01*
X171295556Y-76348091D01*
X171253688Y-76292156D01*
X171248707Y-76222464D01*
X171282195Y-76161142D01*
X171331555Y-76130897D01*
X171337394Y-76129000D01*
X171426632Y-76100005D01*
X171603694Y-76009787D01*
X171764464Y-75892981D01*
X171904981Y-75752464D01*
X172021787Y-75591694D01*
X172112005Y-75414632D01*
X172173413Y-75225636D01*
X172204500Y-75029361D01*
X172204500Y-74830639D01*
X172173413Y-74634364D01*
X172119383Y-74468075D01*
X172112006Y-74445370D01*
X172112005Y-74445367D01*
X172021786Y-74268305D01*
X172016534Y-74261076D01*
X171904981Y-74107536D01*
X171764464Y-73967019D01*
X171603694Y-73850213D01*
X171447218Y-73770484D01*
X171396423Y-73722510D01*
X171379628Y-73654689D01*
X171402165Y-73588554D01*
X171447218Y-73549515D01*
X171603694Y-73469787D01*
X171764464Y-73352981D01*
X171904981Y-73212464D01*
X172021787Y-73051694D01*
X172112005Y-72874632D01*
X172173413Y-72685636D01*
X172204500Y-72489361D01*
X172204500Y-72290639D01*
X172173413Y-72094364D01*
X172112005Y-71905368D01*
X172112005Y-71905367D01*
X172021786Y-71728305D01*
X171904981Y-71567536D01*
X171764464Y-71427019D01*
X171603694Y-71310213D01*
X171447218Y-71230484D01*
X171396423Y-71182510D01*
X171379628Y-71114689D01*
X171402165Y-71048554D01*
X171447218Y-71009515D01*
X171603694Y-70929787D01*
X171764464Y-70812981D01*
X171904981Y-70672464D01*
X172021787Y-70511694D01*
X172112005Y-70334632D01*
X172173413Y-70145636D01*
X172204500Y-69949361D01*
X172204500Y-69750639D01*
X172173413Y-69554364D01*
X172112005Y-69365368D01*
X172112005Y-69365367D01*
X172021786Y-69188305D01*
X171969234Y-69115973D01*
X171904981Y-69027536D01*
X171764464Y-68887019D01*
X171603694Y-68770213D01*
X171426632Y-68679994D01*
X171426629Y-68679993D01*
X171237637Y-68618587D01*
X171139498Y-68603043D01*
X171041361Y-68587500D01*
X169318639Y-68587500D01*
X169253214Y-68597862D01*
X169122362Y-68618587D01*
X168933370Y-68679993D01*
X168933367Y-68679994D01*
X168756305Y-68770213D01*
X168595533Y-68887021D01*
X168455021Y-69027533D01*
X168338213Y-69188305D01*
X168247994Y-69365367D01*
X168247993Y-69365370D01*
X168186587Y-69554362D01*
X168155500Y-69750639D01*
X150081071Y-69750639D01*
X149446406Y-69115973D01*
X149446398Y-69115967D01*
X149291626Y-69012552D01*
X149291627Y-69012552D01*
X149119646Y-68941316D01*
X149119640Y-68941314D01*
X148952930Y-68908153D01*
X148904238Y-68886854D01*
X148743694Y-68770213D01*
X148566632Y-68679994D01*
X148566629Y-68679993D01*
X148377637Y-68618587D01*
X148279498Y-68603043D01*
X148181361Y-68587500D01*
X146458639Y-68587500D01*
X146393214Y-68597862D01*
X146262362Y-68618587D01*
X146073370Y-68679993D01*
X146073367Y-68679994D01*
X145896305Y-68770213D01*
X145735533Y-68887021D01*
X145595021Y-69027533D01*
X145478213Y-69188305D01*
X145387994Y-69365367D01*
X145387993Y-69365370D01*
X145326587Y-69554362D01*
X145295500Y-69750639D01*
X145295500Y-69949360D01*
X145326587Y-70145637D01*
X145387993Y-70334629D01*
X145387994Y-70334632D01*
X145478213Y-70511694D01*
X145595019Y-70672464D01*
X145735536Y-70812981D01*
X145896306Y-70929787D01*
X145983149Y-70974035D01*
X146073367Y-71020005D01*
X146073373Y-71020007D01*
X146168444Y-71050897D01*
X146226120Y-71090334D01*
X146253319Y-71154692D01*
X146241405Y-71223539D01*
X146204447Y-71268088D01*
X146200813Y-71270808D01*
X146200809Y-71270812D01*
X146114649Y-71385906D01*
X146114645Y-71385913D01*
X146064403Y-71520620D01*
X146064401Y-71520627D01*
X146058000Y-71580155D01*
X146058000Y-72140000D01*
X146877749Y-72140000D01*
X146846619Y-72193919D01*
X146812000Y-72323120D01*
X146812000Y-72456880D01*
X146846619Y-72586081D01*
X146877749Y-72640000D01*
X146058000Y-72640000D01*
X146058000Y-73199844D01*
X146064401Y-73259372D01*
X146064403Y-73259379D01*
X146114645Y-73394086D01*
X146114649Y-73394093D01*
X146200809Y-73509187D01*
X146200812Y-73509190D01*
X146204441Y-73511907D01*
X146246310Y-73567842D01*
X146251292Y-73637534D01*
X146217805Y-73698855D01*
X146168445Y-73729102D01*
X146073370Y-73759993D01*
X146073367Y-73759994D01*
X145896305Y-73850213D01*
X145735533Y-73967021D01*
X145595021Y-74107533D01*
X145478213Y-74268305D01*
X145387994Y-74445367D01*
X145387993Y-74445370D01*
X145326587Y-74634362D01*
X145326587Y-74634364D01*
X145295500Y-74830639D01*
X145295500Y-75029361D01*
X145299982Y-75057661D01*
X145326587Y-75225637D01*
X145387993Y-75414629D01*
X145387994Y-75414632D01*
X145478213Y-75591694D01*
X145595019Y-75752464D01*
X145735536Y-75892981D01*
X145896306Y-76009787D01*
X145975925Y-76050355D01*
X146052780Y-76089515D01*
X146103576Y-76137490D01*
X146120371Y-76205311D01*
X146097833Y-76271446D01*
X146052780Y-76310485D01*
X145896305Y-76390213D01*
X145735533Y-76507021D01*
X145682681Y-76559874D01*
X145621358Y-76593359D01*
X145551666Y-76588375D01*
X145495733Y-76546503D01*
X145471316Y-76481039D01*
X145471000Y-76472193D01*
X145471000Y-76385939D01*
X145444446Y-76252448D01*
X145444445Y-76252447D01*
X145444445Y-76252443D01*
X145425829Y-76207500D01*
X145392359Y-76126695D01*
X145392357Y-76126691D01*
X145392356Y-76126689D01*
X145341352Y-76050356D01*
X145316735Y-76013514D01*
X145316733Y-76013511D01*
X145316732Y-76013510D01*
X144204492Y-74901269D01*
X144204485Y-74901263D01*
X144091312Y-74825644D01*
X144091309Y-74825642D01*
X143965561Y-74773556D01*
X143965557Y-74773555D01*
X143949706Y-74770402D01*
X143949686Y-74770398D01*
X143832060Y-74747000D01*
X143832058Y-74747000D01*
X143614000Y-74747000D01*
X143546961Y-74727315D01*
X143501206Y-74674511D01*
X143490000Y-74623000D01*
X143490000Y-74418000D01*
X142605866Y-74418000D01*
X142581674Y-74415617D01*
X142566004Y-74412500D01*
X142566003Y-74412500D01*
X142525830Y-74412500D01*
X142540075Y-74398255D01*
X142589444Y-74312745D01*
X142615000Y-74217370D01*
X142615000Y-74118630D01*
X142589444Y-74023255D01*
X142540075Y-73937745D01*
X142520330Y-73918000D01*
X143490000Y-73918000D01*
X143490000Y-73595172D01*
X143489999Y-73595155D01*
X143483598Y-73535627D01*
X143483596Y-73535620D01*
X143433354Y-73400913D01*
X143433350Y-73400906D01*
X143347190Y-73285812D01*
X143347187Y-73285809D01*
X143232093Y-73199649D01*
X143232086Y-73199645D01*
X143097379Y-73149403D01*
X143097372Y-73149401D01*
X143037844Y-73143000D01*
X142490000Y-73143000D01*
X142490000Y-73887670D01*
X142470255Y-73867925D01*
X142384745Y-73818556D01*
X142289370Y-73793000D01*
X142190630Y-73793000D01*
X142095255Y-73818556D01*
X142009745Y-73867925D01*
X141990000Y-73887670D01*
X141990000Y-73143000D01*
X141442155Y-73143000D01*
X141382627Y-73149401D01*
X141382620Y-73149403D01*
X141247913Y-73199645D01*
X141247906Y-73199649D01*
X141132812Y-73285809D01*
X141132809Y-73285812D01*
X141046649Y-73400906D01*
X141046645Y-73400913D01*
X140996403Y-73535620D01*
X140996401Y-73535627D01*
X140990000Y-73595155D01*
X140990000Y-73918000D01*
X141959670Y-73918000D01*
X141939925Y-73937745D01*
X141890556Y-74023255D01*
X141865000Y-74118630D01*
X141865000Y-74217370D01*
X141890556Y-74312745D01*
X141939925Y-74398255D01*
X141954170Y-74412500D01*
X141913997Y-74412500D01*
X141913996Y-74412500D01*
X141898326Y-74415617D01*
X141874134Y-74418000D01*
X140990000Y-74418000D01*
X140990000Y-74740844D01*
X140996401Y-74800372D01*
X140996403Y-74800379D01*
X141046645Y-74935086D01*
X141047251Y-74935895D01*
X141047604Y-74936841D01*
X141050897Y-74942872D01*
X141050030Y-74943345D01*
X141071670Y-75001359D01*
X141062547Y-75057661D01*
X141028910Y-75138868D01*
X141028907Y-75138880D01*
X140989500Y-75336992D01*
X140200500Y-75336992D01*
X140200500Y-65933713D01*
X140889500Y-65933713D01*
X140889500Y-66146286D01*
X140922753Y-66356239D01*
X140988444Y-66558414D01*
X141084951Y-66747820D01*
X141209890Y-66919786D01*
X141360213Y-67070109D01*
X141532179Y-67195048D01*
X141532181Y-67195049D01*
X141532184Y-67195051D01*
X141721588Y-67291557D01*
X141923757Y-67357246D01*
X142133713Y-67390500D01*
X142133714Y-67390500D01*
X142346286Y-67390500D01*
X142346287Y-67390500D01*
X142556243Y-67357246D01*
X142758412Y-67291557D01*
X142947816Y-67195051D01*
X142969789Y-67179086D01*
X143119786Y-67070109D01*
X143119788Y-67070106D01*
X143119792Y-67070104D01*
X143270104Y-66919792D01*
X143270106Y-66919788D01*
X143270109Y-66919786D01*
X143395048Y-66747820D01*
X143395047Y-66747820D01*
X143395051Y-66747816D01*
X143491557Y-66558412D01*
X143557246Y-66356243D01*
X143590500Y-66146287D01*
X143590500Y-65933713D01*
X173909500Y-65933713D01*
X173909500Y-66146286D01*
X173942753Y-66356239D01*
X174008444Y-66558414D01*
X174104951Y-66747820D01*
X174229890Y-66919786D01*
X174380213Y-67070109D01*
X174552179Y-67195048D01*
X174552181Y-67195049D01*
X174552184Y-67195051D01*
X174741588Y-67291557D01*
X174943757Y-67357246D01*
X175153713Y-67390500D01*
X175153714Y-67390500D01*
X175366286Y-67390500D01*
X175366287Y-67390500D01*
X175576243Y-67357246D01*
X175778412Y-67291557D01*
X175967816Y-67195051D01*
X175989789Y-67179086D01*
X176139786Y-67070109D01*
X176139788Y-67070106D01*
X176139792Y-67070104D01*
X176290104Y-66919792D01*
X176290106Y-66919788D01*
X176290109Y-66919786D01*
X176415048Y-66747820D01*
X176415047Y-66747820D01*
X176415051Y-66747816D01*
X176511557Y-66558412D01*
X176577246Y-66356243D01*
X176610500Y-66146287D01*
X176610500Y-65933713D01*
X176577246Y-65723757D01*
X176511557Y-65521588D01*
X176415051Y-65332184D01*
X176415049Y-65332181D01*
X176415048Y-65332179D01*
X176290109Y-65160213D01*
X176139786Y-65009890D01*
X175967820Y-64884951D01*
X175778414Y-64788444D01*
X175778413Y-64788443D01*
X175778412Y-64788443D01*
X175576243Y-64722754D01*
X175576241Y-64722753D01*
X175576240Y-64722753D01*
X175414957Y-64697208D01*
X175366287Y-64689500D01*
X175153713Y-64689500D01*
X175105042Y-64697208D01*
X174943760Y-64722753D01*
X174741585Y-64788444D01*
X174552179Y-64884951D01*
X174380213Y-65009890D01*
X174229890Y-65160213D01*
X174104951Y-65332179D01*
X174008444Y-65521585D01*
X173942753Y-65723760D01*
X173909500Y-65933713D01*
X143590500Y-65933713D01*
X143557246Y-65723757D01*
X143491557Y-65521588D01*
X143395051Y-65332184D01*
X143395049Y-65332181D01*
X143395048Y-65332179D01*
X143270109Y-65160213D01*
X143119786Y-65009890D01*
X142947820Y-64884951D01*
X142758414Y-64788444D01*
X142758413Y-64788443D01*
X142758412Y-64788443D01*
X142556243Y-64722754D01*
X142556241Y-64722753D01*
X142556240Y-64722753D01*
X142394957Y-64697208D01*
X142346287Y-64689500D01*
X142133713Y-64689500D01*
X142085042Y-64697208D01*
X141923760Y-64722753D01*
X141721585Y-64788444D01*
X141532179Y-64884951D01*
X141360213Y-65009890D01*
X141209890Y-65160213D01*
X141084951Y-65332179D01*
X140988444Y-65521585D01*
X140922753Y-65723760D01*
X140889500Y-65933713D01*
X140200500Y-65933713D01*
X140200500Y-65092912D01*
X140200972Y-65082105D01*
X140216068Y-64909554D01*
X140216068Y-64909553D01*
X140219821Y-64888268D01*
X140220710Y-64884949D01*
X140263248Y-64726193D01*
X140270635Y-64705899D01*
X140341545Y-64553830D01*
X140352351Y-64535115D01*
X140448594Y-64397666D01*
X140462478Y-64381121D01*
X140581121Y-64262478D01*
X140597666Y-64248594D01*
X140735118Y-64152349D01*
X140753830Y-64141545D01*
X140905899Y-64070635D01*
X140926193Y-64063248D01*
X141088268Y-64019820D01*
X141109551Y-64016068D01*
X141282105Y-64000971D01*
X141292912Y-64000500D01*
X141353392Y-64000500D01*
X176146608Y-64000500D01*
X176207088Y-64000500D01*
X176217894Y-64000971D01*
G37*
%TD.AperFunction*%
%TD*%
M02*
