%TF.GenerationSoftware,KiCad,Pcbnew,9.0.0*%
%TF.CreationDate,2025-10-22T11:07:00-07:00*%
%TF.ProjectId,sstv-backpack-v1.0.1,73737476-2d62-4616-936b-7061636b2d76,1.0*%
%TF.SameCoordinates,Original*%
%TF.FileFunction,Soldermask,Top*%
%TF.FilePolarity,Negative*%
%FSLAX46Y46*%
G04 Gerber Fmt 4.6, Leading zero omitted, Abs format (unit mm)*
G04 Created by KiCad (PCBNEW 9.0.0) date 2025-10-22 11:07:00*
%MOMM*%
%LPD*%
G01*
G04 APERTURE LIST*
G04 Aperture macros list*
%AMRoundRect*
0 Rectangle with rounded corners*
0 $1 Rounding radius*
0 $2 $3 $4 $5 $6 $7 $8 $9 X,Y pos of 4 corners*
0 Add a 4 corners polygon primitive as box body*
4,1,4,$2,$3,$4,$5,$6,$7,$8,$9,$2,$3,0*
0 Add four circle primitives for the rounded corners*
1,1,$1+$1,$2,$3*
1,1,$1+$1,$4,$5*
1,1,$1+$1,$6,$7*
1,1,$1+$1,$8,$9*
0 Add four rect primitives between the rounded corners*
20,1,$1+$1,$2,$3,$4,$5,0*
20,1,$1+$1,$4,$5,$6,$7,0*
20,1,$1+$1,$6,$7,$8,$9,0*
20,1,$1+$1,$8,$9,$2,$3,0*%
G04 Aperture macros list end*
%ADD10RoundRect,0.102000X0.762000X0.762000X-0.762000X0.762000X-0.762000X-0.762000X0.762000X-0.762000X0*%
%ADD11O,3.252000X1.728000*%
%ADD12O,1.600000X1.600000*%
%ADD13C,1.600000*%
%ADD14R,1.500000X1.050000*%
%ADD15O,1.500000X1.050000*%
%ADD16RoundRect,0.250000X0.350000X-0.850000X0.350000X0.850000X-0.350000X0.850000X-0.350000X-0.850000X0*%
%ADD17RoundRect,0.249997X2.650003X-2.950003X2.650003X2.950003X-2.650003X2.950003X-2.650003X-2.950003X0*%
%ADD18R,2.000000X2.000000*%
%ADD19C,2.000000*%
%ADD20O,2.804000X1.504000*%
%ADD21R,1.700000X1.700000*%
%ADD22O,1.700000X1.700000*%
%ADD23C,2.200000*%
%ADD24R,2.000000X1.500000*%
G04 APERTURE END LIST*
D10*
%TO.C,U1*%
X170180000Y-87630000D03*
D11*
X170180000Y-85090000D03*
X170180000Y-82550000D03*
X170180000Y-80010000D03*
D10*
X170180000Y-77470000D03*
D11*
X170180000Y-74930000D03*
X170180000Y-72390000D03*
X170180000Y-69850000D03*
X147320000Y-69850000D03*
D10*
X147320000Y-72390000D03*
D11*
X147320000Y-74930000D03*
X147320000Y-77470000D03*
X147320000Y-80010000D03*
X147320000Y-82550000D03*
X147320000Y-85090000D03*
X147320000Y-87630000D03*
%TD*%
D12*
%TO.C,R1*%
X142748000Y-89154000D03*
D13*
X142748000Y-96774000D03*
%TD*%
D14*
%TO.C,Q1*%
X142240000Y-74168000D03*
D15*
X142240000Y-75438000D03*
X142240000Y-76708000D03*
%TD*%
D16*
%TO.C,VR1*%
X156470000Y-95210000D03*
D17*
X158750000Y-88910000D03*
D16*
X161030000Y-95210000D03*
%TD*%
D18*
%TO.C,BZ1*%
X156417000Y-74930000D03*
D19*
X161417000Y-74930000D03*
%TD*%
D20*
%TO.C,SW2*%
X148844000Y-109220000D03*
X148844000Y-113920000D03*
X148844000Y-118620000D03*
%TD*%
D13*
%TO.C,C2*%
X164338000Y-95464000D03*
X164338000Y-92964000D03*
%TD*%
D21*
%TO.C,J2*%
X160025000Y-124460000D03*
D22*
X157485000Y-124460000D03*
%TD*%
D23*
%TO.C,REF\u002A\u002A*%
X175260000Y-66040000D03*
%TD*%
%TO.C,REF\u002A\u002A*%
X142240000Y-66040000D03*
%TD*%
D21*
%TO.C,J1*%
X142748000Y-85075000D03*
D22*
X142748000Y-82535000D03*
X142748000Y-79995000D03*
%TD*%
D23*
%TO.C,REF\u002A\u002A*%
X175260000Y-124460000D03*
%TD*%
D13*
%TO.C,C1*%
X153162000Y-95464000D03*
X153162000Y-92964000D03*
%TD*%
D24*
%TO.C,SW1*%
X156896000Y-111332000D03*
X171196000Y-111332000D03*
X156896000Y-116332000D03*
X171196000Y-116332000D03*
%TD*%
D23*
%TO.C,REF\u002A\u002A*%
X142240000Y-124460000D03*
%TD*%
M02*
