%TF.GenerationSoftware,KiCad,Pcbnew,9.0.0*%
%TF.CreationDate,2025-10-22T11:06:59-07:00*%
%TF.ProjectId,sstv-backpack-v1.0.1,73737476-2d62-4616-936b-7061636b2d76,1.0*%
%TF.SameCoordinates,Original*%
%TF.FileFunction,Copper,L1,Top*%
%TF.FilePolarity,Positive*%
%FSLAX46Y46*%
G04 Gerber Fmt 4.6, Leading zero omitted, Abs format (unit mm)*
G04 Created by KiCad (PCBNEW 9.0.0) date 2025-10-22 11:06:59*
%MOMM*%
%LPD*%
G01*
G04 APERTURE LIST*
G04 Aperture macros list*
%AMRoundRect*
0 Rectangle with rounded corners*
0 $1 Rounding radius*
0 $2 $3 $4 $5 $6 $7 $8 $9 X,Y pos of 4 corners*
0 Add a 4 corners polygon primitive as box body*
4,1,4,$2,$3,$4,$5,$6,$7,$8,$9,$2,$3,0*
0 Add four circle primitives for the rounded corners*
1,1,$1+$1,$2,$3*
1,1,$1+$1,$4,$5*
1,1,$1+$1,$6,$7*
1,1,$1+$1,$8,$9*
0 Add four rect primitives between the rounded corners*
20,1,$1+$1,$2,$3,$4,$5,0*
20,1,$1+$1,$4,$5,$6,$7,0*
20,1,$1+$1,$6,$7,$8,$9,0*
20,1,$1+$1,$8,$9,$2,$3,0*%
G04 Aperture macros list end*
%TA.AperFunction,ComponentPad*%
%ADD10R,1.524000X1.524000*%
%TD*%
%TA.AperFunction,ComponentPad*%
%ADD11O,3.048000X1.524000*%
%TD*%
%TA.AperFunction,ComponentPad*%
%ADD12O,1.600000X1.600000*%
%TD*%
%TA.AperFunction,ComponentPad*%
%ADD13C,1.600000*%
%TD*%
%TA.AperFunction,ComponentPad*%
%ADD14R,1.500000X1.050000*%
%TD*%
%TA.AperFunction,ComponentPad*%
%ADD15O,1.500000X1.050000*%
%TD*%
%TA.AperFunction,SMDPad,CuDef*%
%ADD16RoundRect,0.250000X0.350000X-0.850000X0.350000X0.850000X-0.350000X0.850000X-0.350000X-0.850000X0*%
%TD*%
%TA.AperFunction,SMDPad,CuDef*%
%ADD17RoundRect,0.250000X1.125000X-1.275000X1.125000X1.275000X-1.125000X1.275000X-1.125000X-1.275000X0*%
%TD*%
%TA.AperFunction,SMDPad,CuDef*%
%ADD18RoundRect,0.249997X2.650003X-2.950003X2.650003X2.950003X-2.650003X2.950003X-2.650003X-2.950003X0*%
%TD*%
%TA.AperFunction,ComponentPad*%
%ADD19R,2.000000X2.000000*%
%TD*%
%TA.AperFunction,ComponentPad*%
%ADD20C,2.000000*%
%TD*%
%TA.AperFunction,ComponentPad*%
%ADD21O,2.600000X1.300000*%
%TD*%
%TA.AperFunction,ComponentPad*%
%ADD22R,1.700000X1.700000*%
%TD*%
%TA.AperFunction,ComponentPad*%
%ADD23O,1.700000X1.700000*%
%TD*%
%TA.AperFunction,SMDPad,CuDef*%
%ADD24R,2.000000X1.500000*%
%TD*%
%TA.AperFunction,ViaPad*%
%ADD25C,1.016000*%
%TD*%
%TA.AperFunction,Conductor*%
%ADD26C,0.635000*%
%TD*%
%TA.AperFunction,Conductor*%
%ADD27C,0.889000*%
%TD*%
G04 APERTURE END LIST*
D10*
%TO.P,U1,P$1,GND/R*%
%TO.N,unconnected-(U1-GND{slash}R-PadP$1)*%
X170180000Y-87630000D03*
D11*
%TO.P,U1,P$2,GPIO1*%
%TO.N,unconnected-(U1-GPIO1-PadP$2)*%
X170180000Y-85090000D03*
%TO.P,U1,P$3,GPIO3*%
%TO.N,unconnected-(U1-GPIO3-PadP$3)*%
X170180000Y-82550000D03*
%TO.P,U1,P$4,3V3/5V*%
%TO.N,unconnected-(U1-3V3{slash}5V-PadP$4)*%
X170180000Y-80010000D03*
D10*
%TO.P,U1,P$5,GND@2*%
%TO.N,GND*%
X170180000Y-77470000D03*
D11*
%TO.P,U1,P$6,GPIO0*%
%TO.N,unconnected-(U1-GPIO0-PadP$6)*%
X170180000Y-74930000D03*
%TO.P,U1,P$7,GPIO16*%
%TO.N,unconnected-(U1-GPIO16-PadP$7)*%
X170180000Y-72390000D03*
%TO.P,U1,P$8,3V3*%
%TO.N,unconnected-(U1-3V3-PadP$8)*%
X170180000Y-69850000D03*
%TO.P,U1,P$9,5V*%
%TO.N,+5V*%
X147320000Y-69850000D03*
D10*
%TO.P,U1,P$10,GND@3*%
%TO.N,GND*%
X147320000Y-72390000D03*
D11*
%TO.P,U1,P$11,GPIO12*%
%TO.N,/CAPTURE*%
X147320000Y-74930000D03*
%TO.P,U1,P$12,GPIO13*%
%TO.N,/BUZZER*%
X147320000Y-77470000D03*
%TO.P,U1,P$13,GPIO15*%
%TO.N,PTT_TRIG*%
X147320000Y-80010000D03*
%TO.P,U1,P$14,GPIO14*%
%TO.N,/TX OUT*%
X147320000Y-82550000D03*
%TO.P,U1,P$15,GPIO2*%
%TO.N,unconnected-(U1-GPIO2-PadP$15)*%
X147320000Y-85090000D03*
%TO.P,U1,P$16,GPIO4*%
%TO.N,unconnected-(U1-GPIO4-PadP$16)*%
X147320000Y-87630000D03*
%TD*%
D12*
%TO.P,R1,2*%
%TO.N,Net-(Q1-B)*%
X142748000Y-89154000D03*
D13*
%TO.P,R1,1*%
%TO.N,PTT_TRIG*%
X142748000Y-96774000D03*
%TD*%
D14*
%TO.P,Q1,1,E*%
%TO.N,GND*%
X142240000Y-74168000D03*
D15*
%TO.P,Q1,2,B*%
%TO.N,Net-(Q1-B)*%
X142240000Y-75438000D03*
%TO.P,Q1,3,C*%
%TO.N,PTT*%
X142240000Y-76708000D03*
%TD*%
D16*
%TO.P,VR1,1,OUT*%
%TO.N,+5V*%
X156470000Y-95210000D03*
D17*
%TO.P,VR1,2,GND*%
%TO.N,GND*%
X157225000Y-90585000D03*
X160275000Y-90585000D03*
D18*
X158750000Y-88910000D03*
D17*
X157225000Y-87235000D03*
X160275000Y-87235000D03*
D16*
%TO.P,VR1,3,IN*%
%TO.N,/8V IN*%
X161030000Y-95210000D03*
%TD*%
D19*
%TO.P,BZ1,1,+*%
%TO.N,/BUZZER*%
X156417000Y-74930000D03*
D20*
%TO.P,BZ1,2,-*%
%TO.N,GND*%
X161417000Y-74930000D03*
%TD*%
D21*
%TO.P,SW2,1*%
%TO.N,/8V IN*%
X148844000Y-109220000D03*
%TO.P,SW2,2*%
%TO.N,/VIN*%
X148844000Y-113920000D03*
%TO.P,SW2,3*%
%TO.N,unconnected-(SW2-Pad3)*%
X148844000Y-118620000D03*
%TD*%
D13*
%TO.P,C2,1*%
%TO.N,/8V IN*%
X164338000Y-95464000D03*
%TO.P,C2,2*%
%TO.N,GND*%
X164338000Y-92964000D03*
%TD*%
D22*
%TO.P,J2,1,Pin_1*%
%TO.N,GND*%
X160025000Y-124460000D03*
D23*
%TO.P,J2,2,Pin_2*%
%TO.N,/VIN*%
X157485000Y-124460000D03*
%TD*%
D22*
%TO.P,J1,1,Pin_1*%
%TO.N,GND*%
X142748000Y-85075000D03*
D23*
%TO.P,J1,2,Pin_2*%
%TO.N,/TX OUT*%
X142748000Y-82535000D03*
%TO.P,J1,3,Pin_3*%
%TO.N,PTT*%
X142748000Y-79995000D03*
%TD*%
D13*
%TO.P,C1,1*%
%TO.N,+5V*%
X153162000Y-95464000D03*
%TO.P,C1,2*%
%TO.N,GND*%
X153162000Y-92964000D03*
%TD*%
D24*
%TO.P,SW1,1,1*%
%TO.N,/CAPTURE*%
X156896000Y-111332000D03*
X171196000Y-111332000D03*
%TO.P,SW1,2,2*%
%TO.N,GND*%
X156896000Y-116332000D03*
X171196000Y-116332000D03*
%TD*%
D25*
%TO.N,GND*%
X157225000Y-87235000D03*
X160275000Y-90585000D03*
X160275000Y-87235000D03*
X158750000Y-88910000D03*
X158750000Y-88910000D03*
%TO.N,/CAPTURE*%
X156972000Y-108966000D03*
%TD*%
D26*
%TO.N,PTT_TRIG*%
X149098000Y-80010000D02*
X147320000Y-80010000D01*
X150368000Y-81280000D02*
X149098000Y-80010000D01*
X150368000Y-90932000D02*
X150368000Y-81280000D01*
X144526000Y-96774000D02*
X150368000Y-90932000D01*
X142748000Y-96774000D02*
X144526000Y-96774000D01*
D27*
%TO.N,+5V*%
X153162000Y-95464000D02*
X156216000Y-95464000D01*
X156216000Y-95464000D02*
X156470000Y-95210000D01*
D26*
%TO.N,/BUZZER*%
X156417000Y-74930000D02*
X154305000Y-74930000D01*
X151765000Y-77470000D02*
X147320000Y-77470000D01*
X154305000Y-74930000D02*
X151765000Y-77470000D01*
D27*
%TO.N,/8V IN*%
X149860000Y-109220000D02*
X158750000Y-100330000D01*
X158750000Y-100330000D02*
X158750000Y-98806000D01*
X161030000Y-96526000D02*
X161030000Y-95210000D01*
X148844000Y-109220000D02*
X149860000Y-109220000D01*
X161284000Y-95464000D02*
X161030000Y-95210000D01*
X158750000Y-98806000D02*
X161030000Y-96526000D01*
X164338000Y-95464000D02*
X161284000Y-95464000D01*
D26*
%TO.N,PTT_TRIG*%
X147305000Y-79995000D02*
X147320000Y-80010000D01*
%TO.N,/TX OUT*%
X142748000Y-82535000D02*
X147305000Y-82535000D01*
X147305000Y-82535000D02*
X147320000Y-82550000D01*
%TO.N,/CAPTURE*%
X156896000Y-111332000D02*
X159338000Y-111332000D01*
X156972000Y-108966000D02*
X159338000Y-111332000D01*
X159338000Y-111332000D02*
X171196000Y-111332000D01*
D27*
%TO.N,/VIN*%
X152908000Y-116332000D02*
X150496000Y-113920000D01*
X152908000Y-119888000D02*
X152913000Y-119888000D01*
X152908000Y-119888000D02*
X152908000Y-116332000D01*
X150496000Y-113920000D02*
X148844000Y-113920000D01*
X152913000Y-119888000D02*
X157485000Y-124460000D01*
%TD*%
%TA.AperFunction,Conductor*%
%TO.N,GND*%
G36*
X176217894Y-64000971D02*
G01*
X176390446Y-64016068D01*
X176411731Y-64019821D01*
X176468954Y-64035153D01*
X176573802Y-64063247D01*
X176594103Y-64070636D01*
X176722120Y-64130331D01*
X176746165Y-64141544D01*
X176764884Y-64152351D01*
X176902327Y-64248590D01*
X176918884Y-64262484D01*
X177037515Y-64381115D01*
X177051409Y-64397672D01*
X177147648Y-64535115D01*
X177158455Y-64553834D01*
X177229360Y-64705889D01*
X177236753Y-64726201D01*
X177280178Y-64888268D01*
X177283931Y-64909553D01*
X177299028Y-65082104D01*
X177299500Y-65092912D01*
X177299500Y-125407087D01*
X177299028Y-125417894D01*
X177299028Y-125417895D01*
X177283931Y-125590446D01*
X177280178Y-125611731D01*
X177236753Y-125773798D01*
X177229360Y-125794110D01*
X177158455Y-125946165D01*
X177147648Y-125964884D01*
X177051409Y-126102327D01*
X177037515Y-126118884D01*
X176918884Y-126237515D01*
X176902327Y-126251409D01*
X176764884Y-126347648D01*
X176746165Y-126358455D01*
X176594110Y-126429360D01*
X176573798Y-126436753D01*
X176411731Y-126480178D01*
X176390446Y-126483931D01*
X176236074Y-126497437D01*
X176217893Y-126499028D01*
X176207088Y-126499500D01*
X141292912Y-126499500D01*
X141282106Y-126499028D01*
X141261813Y-126497252D01*
X141109553Y-126483931D01*
X141088268Y-126480178D01*
X140926201Y-126436753D01*
X140905889Y-126429360D01*
X140753834Y-126358455D01*
X140735115Y-126347648D01*
X140597672Y-126251409D01*
X140581115Y-126237515D01*
X140462484Y-126118884D01*
X140448590Y-126102327D01*
X140352351Y-125964884D01*
X140341544Y-125946165D01*
X140278049Y-125810000D01*
X140270636Y-125794103D01*
X140263246Y-125773798D01*
X140219821Y-125611731D01*
X140216068Y-125590445D01*
X140200972Y-125417894D01*
X140200500Y-125407087D01*
X140200500Y-124353713D01*
X140889500Y-124353713D01*
X140889500Y-124566286D01*
X140922753Y-124776239D01*
X140988444Y-124978414D01*
X141084951Y-125167820D01*
X141209890Y-125339786D01*
X141360213Y-125490109D01*
X141532179Y-125615048D01*
X141532181Y-125615049D01*
X141532184Y-125615051D01*
X141721588Y-125711557D01*
X141923757Y-125777246D01*
X142133713Y-125810500D01*
X142133714Y-125810500D01*
X142346286Y-125810500D01*
X142346287Y-125810500D01*
X142556243Y-125777246D01*
X142758412Y-125711557D01*
X142947816Y-125615051D01*
X142981682Y-125590446D01*
X143119786Y-125490109D01*
X143119788Y-125490106D01*
X143119792Y-125490104D01*
X143270104Y-125339792D01*
X143270106Y-125339788D01*
X143270109Y-125339786D01*
X143395048Y-125167820D01*
X143395047Y-125167820D01*
X143395051Y-125167816D01*
X143491557Y-124978412D01*
X143557246Y-124776243D01*
X143590500Y-124566287D01*
X143590500Y-124353713D01*
X143557246Y-124143757D01*
X143491557Y-123941588D01*
X143395051Y-123752184D01*
X143395049Y-123752181D01*
X143395048Y-123752179D01*
X143270109Y-123580213D01*
X143119786Y-123429890D01*
X142947820Y-123304951D01*
X142758414Y-123208444D01*
X142758413Y-123208443D01*
X142758412Y-123208443D01*
X142556243Y-123142754D01*
X142556241Y-123142753D01*
X142556240Y-123142753D01*
X142394957Y-123117208D01*
X142346287Y-123109500D01*
X142133713Y-123109500D01*
X142085042Y-123117208D01*
X141923760Y-123142753D01*
X141721585Y-123208444D01*
X141532179Y-123304951D01*
X141360213Y-123429890D01*
X141209890Y-123580213D01*
X141084951Y-123752179D01*
X140988444Y-123941585D01*
X140922753Y-124143760D01*
X140889500Y-124353713D01*
X140200500Y-124353713D01*
X140200500Y-118529448D01*
X147043500Y-118529448D01*
X147043500Y-118710551D01*
X147071829Y-118889410D01*
X147127787Y-119061636D01*
X147127788Y-119061639D01*
X147210006Y-119222997D01*
X147316441Y-119369494D01*
X147316445Y-119369499D01*
X147444500Y-119497554D01*
X147444505Y-119497558D01*
X147486250Y-119527887D01*
X147591006Y-119603996D01*
X147696484Y-119657740D01*
X147752360Y-119686211D01*
X147752363Y-119686212D01*
X147838476Y-119714191D01*
X147924591Y-119742171D01*
X148007429Y-119755291D01*
X148103449Y-119770500D01*
X148103454Y-119770500D01*
X149584551Y-119770500D01*
X149671259Y-119756765D01*
X149763409Y-119742171D01*
X149935639Y-119686211D01*
X150096994Y-119603996D01*
X150243501Y-119497553D01*
X150371553Y-119369501D01*
X150477996Y-119222994D01*
X150560211Y-119061639D01*
X150616171Y-118889409D01*
X150630765Y-118797259D01*
X150644500Y-118710551D01*
X150644500Y-118529448D01*
X150628019Y-118425397D01*
X150616171Y-118350591D01*
X150560211Y-118178361D01*
X150560211Y-118178360D01*
X150531740Y-118122484D01*
X150477996Y-118017006D01*
X150464396Y-117998287D01*
X150371558Y-117870505D01*
X150371554Y-117870500D01*
X150243499Y-117742445D01*
X150243494Y-117742441D01*
X150096997Y-117636006D01*
X150096996Y-117636005D01*
X150096994Y-117636004D01*
X150045300Y-117609664D01*
X149935639Y-117553788D01*
X149935636Y-117553787D01*
X149763410Y-117497829D01*
X149584551Y-117469500D01*
X149584546Y-117469500D01*
X148103454Y-117469500D01*
X148103449Y-117469500D01*
X147924589Y-117497829D01*
X147752363Y-117553787D01*
X147752360Y-117553788D01*
X147591002Y-117636006D01*
X147444505Y-117742441D01*
X147444500Y-117742445D01*
X147316445Y-117870500D01*
X147316441Y-117870505D01*
X147210006Y-118017002D01*
X147127788Y-118178360D01*
X147127787Y-118178363D01*
X147071829Y-118350589D01*
X147043500Y-118529448D01*
X140200500Y-118529448D01*
X140200500Y-113829448D01*
X147043500Y-113829448D01*
X147043500Y-114010551D01*
X147071829Y-114189410D01*
X147127787Y-114361636D01*
X147127788Y-114361639D01*
X147210006Y-114522997D01*
X147316441Y-114669494D01*
X147316445Y-114669499D01*
X147444500Y-114797554D01*
X147444505Y-114797558D01*
X147564033Y-114884399D01*
X147591006Y-114903996D01*
X147666686Y-114942557D01*
X147752360Y-114986211D01*
X147752363Y-114986212D01*
X147838476Y-115014191D01*
X147924591Y-115042171D01*
X148007429Y-115055291D01*
X148103449Y-115070500D01*
X148103454Y-115070500D01*
X149584551Y-115070500D01*
X149671259Y-115056765D01*
X149763409Y-115042171D01*
X149935639Y-114986211D01*
X149935639Y-114986210D01*
X149935644Y-114986209D01*
X150047572Y-114929178D01*
X150116242Y-114916281D01*
X150180982Y-114942557D01*
X150191549Y-114951981D01*
X151926681Y-116687113D01*
X151960166Y-116748436D01*
X151963000Y-116774794D01*
X151963000Y-119981078D01*
X151999314Y-120163638D01*
X151999316Y-120163646D01*
X152070550Y-120335622D01*
X152070555Y-120335631D01*
X152173970Y-120490401D01*
X152173973Y-120490405D01*
X152305592Y-120622024D01*
X152305598Y-120622029D01*
X152310511Y-120625312D01*
X152329300Y-120640732D01*
X156098181Y-124409613D01*
X156131666Y-124470936D01*
X156134500Y-124497294D01*
X156134500Y-124566286D01*
X156167753Y-124776239D01*
X156233444Y-124978414D01*
X156329951Y-125167820D01*
X156454890Y-125339786D01*
X156605213Y-125490109D01*
X156777179Y-125615048D01*
X156777181Y-125615049D01*
X156777184Y-125615051D01*
X156966588Y-125711557D01*
X157168757Y-125777246D01*
X157378713Y-125810500D01*
X157378714Y-125810500D01*
X157591286Y-125810500D01*
X157591287Y-125810500D01*
X157801243Y-125777246D01*
X158003412Y-125711557D01*
X158192816Y-125615051D01*
X158279478Y-125552088D01*
X158364784Y-125490110D01*
X158364784Y-125490109D01*
X158364792Y-125490104D01*
X158478717Y-125376178D01*
X158540036Y-125342696D01*
X158609728Y-125347680D01*
X158665662Y-125389551D01*
X158682577Y-125420528D01*
X158731646Y-125552088D01*
X158731649Y-125552093D01*
X158817809Y-125667187D01*
X158817812Y-125667190D01*
X158932906Y-125753350D01*
X158932913Y-125753354D01*
X159067620Y-125803596D01*
X159067627Y-125803598D01*
X159127155Y-125809999D01*
X159127172Y-125810000D01*
X159775000Y-125810000D01*
X159775000Y-124893012D01*
X159832007Y-124925925D01*
X159959174Y-124960000D01*
X160090826Y-124960000D01*
X160217993Y-124925925D01*
X160275000Y-124893012D01*
X160275000Y-125810000D01*
X160922828Y-125810000D01*
X160922844Y-125809999D01*
X160982372Y-125803598D01*
X160982379Y-125803596D01*
X161117086Y-125753354D01*
X161117093Y-125753350D01*
X161232187Y-125667190D01*
X161232190Y-125667187D01*
X161318350Y-125552093D01*
X161318354Y-125552086D01*
X161368596Y-125417379D01*
X161368598Y-125417372D01*
X161374999Y-125357844D01*
X161375000Y-125357827D01*
X161375000Y-124710000D01*
X160458012Y-124710000D01*
X160490925Y-124652993D01*
X160525000Y-124525826D01*
X160525000Y-124394174D01*
X160514158Y-124353713D01*
X173909500Y-124353713D01*
X173909500Y-124566286D01*
X173942753Y-124776239D01*
X174008444Y-124978414D01*
X174104951Y-125167820D01*
X174229890Y-125339786D01*
X174380213Y-125490109D01*
X174552179Y-125615048D01*
X174552181Y-125615049D01*
X174552184Y-125615051D01*
X174741588Y-125711557D01*
X174943757Y-125777246D01*
X175153713Y-125810500D01*
X175153714Y-125810500D01*
X175366286Y-125810500D01*
X175366287Y-125810500D01*
X175576243Y-125777246D01*
X175778412Y-125711557D01*
X175967816Y-125615051D01*
X176001682Y-125590446D01*
X176139786Y-125490109D01*
X176139788Y-125490106D01*
X176139792Y-125490104D01*
X176290104Y-125339792D01*
X176290106Y-125339788D01*
X176290109Y-125339786D01*
X176415048Y-125167820D01*
X176415047Y-125167820D01*
X176415051Y-125167816D01*
X176511557Y-124978412D01*
X176577246Y-124776243D01*
X176610500Y-124566287D01*
X176610500Y-124353713D01*
X176577246Y-124143757D01*
X176511557Y-123941588D01*
X176415051Y-123752184D01*
X176415049Y-123752181D01*
X176415048Y-123752179D01*
X176290109Y-123580213D01*
X176139786Y-123429890D01*
X175967820Y-123304951D01*
X175778414Y-123208444D01*
X175778413Y-123208443D01*
X175778412Y-123208443D01*
X175576243Y-123142754D01*
X175576241Y-123142753D01*
X175576240Y-123142753D01*
X175414957Y-123117208D01*
X175366287Y-123109500D01*
X175153713Y-123109500D01*
X175105042Y-123117208D01*
X174943760Y-123142753D01*
X174741585Y-123208444D01*
X174552179Y-123304951D01*
X174380213Y-123429890D01*
X174229890Y-123580213D01*
X174104951Y-123752179D01*
X174008444Y-123941585D01*
X173942753Y-124143760D01*
X173909500Y-124353713D01*
X160514158Y-124353713D01*
X160490925Y-124267007D01*
X160458012Y-124210000D01*
X161375000Y-124210000D01*
X161375000Y-123562172D01*
X161374999Y-123562155D01*
X161368598Y-123502627D01*
X161368596Y-123502620D01*
X161318354Y-123367913D01*
X161318350Y-123367906D01*
X161232190Y-123252812D01*
X161232187Y-123252809D01*
X161117093Y-123166649D01*
X161117086Y-123166645D01*
X160982379Y-123116403D01*
X160982372Y-123116401D01*
X160922844Y-123110000D01*
X160275000Y-123110000D01*
X160275000Y-124026988D01*
X160217993Y-123994075D01*
X160090826Y-123960000D01*
X159959174Y-123960000D01*
X159832007Y-123994075D01*
X159775000Y-124026988D01*
X159775000Y-123110000D01*
X159127155Y-123110000D01*
X159067627Y-123116401D01*
X159067620Y-123116403D01*
X158932913Y-123166645D01*
X158932906Y-123166649D01*
X158817812Y-123252809D01*
X158817809Y-123252812D01*
X158731649Y-123367906D01*
X158731646Y-123367912D01*
X158682577Y-123499471D01*
X158640705Y-123555404D01*
X158575241Y-123579821D01*
X158506968Y-123564969D01*
X158478714Y-123543818D01*
X158364786Y-123429890D01*
X158192820Y-123304951D01*
X158003414Y-123208444D01*
X158003413Y-123208443D01*
X158003412Y-123208443D01*
X157801243Y-123142754D01*
X157801241Y-123142753D01*
X157801240Y-123142753D01*
X157639957Y-123117208D01*
X157591287Y-123109500D01*
X157591286Y-123109500D01*
X157522294Y-123109500D01*
X157455255Y-123089815D01*
X157434613Y-123073181D01*
X153889319Y-119527887D01*
X153855834Y-119466564D01*
X153853000Y-119440206D01*
X153853000Y-117129844D01*
X155396000Y-117129844D01*
X155402401Y-117189372D01*
X155402403Y-117189379D01*
X155452645Y-117324086D01*
X155452649Y-117324093D01*
X155538809Y-117439187D01*
X155538812Y-117439190D01*
X155653906Y-117525350D01*
X155653913Y-117525354D01*
X155788620Y-117575596D01*
X155788627Y-117575598D01*
X155848155Y-117581999D01*
X155848172Y-117582000D01*
X156646000Y-117582000D01*
X157146000Y-117582000D01*
X157943828Y-117582000D01*
X157943844Y-117581999D01*
X158003372Y-117575598D01*
X158003379Y-117575596D01*
X158138086Y-117525354D01*
X158138093Y-117525350D01*
X158253187Y-117439190D01*
X158253190Y-117439187D01*
X158339350Y-117324093D01*
X158339354Y-117324086D01*
X158389596Y-117189379D01*
X158389598Y-117189372D01*
X158395999Y-117129844D01*
X169696000Y-117129844D01*
X169702401Y-117189372D01*
X169702403Y-117189379D01*
X169752645Y-117324086D01*
X169752649Y-117324093D01*
X169838809Y-117439187D01*
X169838812Y-117439190D01*
X169953906Y-117525350D01*
X169953913Y-117525354D01*
X170088620Y-117575596D01*
X170088627Y-117575598D01*
X170148155Y-117581999D01*
X170148172Y-117582000D01*
X170946000Y-117582000D01*
X171446000Y-117582000D01*
X172243828Y-117582000D01*
X172243844Y-117581999D01*
X172303372Y-117575598D01*
X172303379Y-117575596D01*
X172438086Y-117525354D01*
X172438093Y-117525350D01*
X172553187Y-117439190D01*
X172553190Y-117439187D01*
X172639350Y-117324093D01*
X172639354Y-117324086D01*
X172689596Y-117189379D01*
X172689598Y-117189372D01*
X172695999Y-117129844D01*
X172696000Y-117129827D01*
X172696000Y-116582000D01*
X171446000Y-116582000D01*
X171446000Y-117582000D01*
X170946000Y-117582000D01*
X170946000Y-116582000D01*
X169696000Y-116582000D01*
X169696000Y-117129844D01*
X158395999Y-117129844D01*
X158396000Y-117129827D01*
X158396000Y-116582000D01*
X157146000Y-116582000D01*
X157146000Y-117582000D01*
X156646000Y-117582000D01*
X156646000Y-116582000D01*
X155396000Y-116582000D01*
X155396000Y-117129844D01*
X153853000Y-117129844D01*
X153853000Y-116238923D01*
X153852999Y-116238921D01*
X153816685Y-116056361D01*
X153816684Y-116056354D01*
X153747775Y-115889993D01*
X153746130Y-115885394D01*
X153642029Y-115729597D01*
X153642026Y-115729593D01*
X153446588Y-115534155D01*
X155396000Y-115534155D01*
X155396000Y-116082000D01*
X156646000Y-116082000D01*
X157146000Y-116082000D01*
X158396000Y-116082000D01*
X158396000Y-115534172D01*
X158395999Y-115534155D01*
X169696000Y-115534155D01*
X169696000Y-116082000D01*
X170946000Y-116082000D01*
X171446000Y-116082000D01*
X172696000Y-116082000D01*
X172696000Y-115534172D01*
X172695999Y-115534155D01*
X172689598Y-115474627D01*
X172689596Y-115474620D01*
X172639354Y-115339913D01*
X172639350Y-115339906D01*
X172553190Y-115224812D01*
X172553187Y-115224809D01*
X172438093Y-115138649D01*
X172438086Y-115138645D01*
X172303379Y-115088403D01*
X172303372Y-115088401D01*
X172243844Y-115082000D01*
X171446000Y-115082000D01*
X171446000Y-116082000D01*
X170946000Y-116082000D01*
X170946000Y-115082000D01*
X170148155Y-115082000D01*
X170088627Y-115088401D01*
X170088620Y-115088403D01*
X169953913Y-115138645D01*
X169953906Y-115138649D01*
X169838812Y-115224809D01*
X169838809Y-115224812D01*
X169752649Y-115339906D01*
X169752645Y-115339913D01*
X169702403Y-115474620D01*
X169702401Y-115474627D01*
X169696000Y-115534155D01*
X158395999Y-115534155D01*
X158389598Y-115474627D01*
X158389596Y-115474620D01*
X158339354Y-115339913D01*
X158339350Y-115339906D01*
X158253190Y-115224812D01*
X158253187Y-115224809D01*
X158138093Y-115138649D01*
X158138086Y-115138645D01*
X158003379Y-115088403D01*
X158003372Y-115088401D01*
X157943844Y-115082000D01*
X157146000Y-115082000D01*
X157146000Y-116082000D01*
X156646000Y-116082000D01*
X156646000Y-115082000D01*
X155848155Y-115082000D01*
X155788627Y-115088401D01*
X155788620Y-115088403D01*
X155653913Y-115138645D01*
X155653906Y-115138649D01*
X155538812Y-115224809D01*
X155538809Y-115224812D01*
X155452649Y-115339906D01*
X155452645Y-115339913D01*
X155402403Y-115474620D01*
X155402401Y-115474627D01*
X155396000Y-115534155D01*
X153446588Y-115534155D01*
X151098406Y-113185973D01*
X151098398Y-113185967D01*
X150943626Y-113082552D01*
X150943627Y-113082552D01*
X150771646Y-113011316D01*
X150771638Y-113011314D01*
X150589077Y-112975000D01*
X150589074Y-112975000D01*
X150190958Y-112975000D01*
X150123919Y-112955315D01*
X150118073Y-112951318D01*
X150096997Y-112936006D01*
X150096996Y-112936005D01*
X150096994Y-112936004D01*
X150045300Y-112909664D01*
X149935639Y-112853788D01*
X149935636Y-112853787D01*
X149763410Y-112797829D01*
X149584551Y-112769500D01*
X149584546Y-112769500D01*
X148103454Y-112769500D01*
X148103449Y-112769500D01*
X147924589Y-112797829D01*
X147752363Y-112853787D01*
X147752360Y-112853788D01*
X147591002Y-112936006D01*
X147444505Y-113042441D01*
X147444500Y-113042445D01*
X147316445Y-113170500D01*
X147316441Y-113170505D01*
X147210006Y-113317002D01*
X147127788Y-113478360D01*
X147127787Y-113478363D01*
X147071829Y-113650589D01*
X147043500Y-113829448D01*
X140200500Y-113829448D01*
X140200500Y-110534135D01*
X155395500Y-110534135D01*
X155395500Y-112129870D01*
X155395501Y-112129876D01*
X155401908Y-112189483D01*
X155452202Y-112324328D01*
X155452206Y-112324335D01*
X155538452Y-112439544D01*
X155538455Y-112439547D01*
X155653664Y-112525793D01*
X155653671Y-112525797D01*
X155788517Y-112576091D01*
X155788516Y-112576091D01*
X155795444Y-112576835D01*
X155848127Y-112582500D01*
X157943872Y-112582499D01*
X158003483Y-112576091D01*
X158138331Y-112525796D01*
X158253546Y-112439546D01*
X158339796Y-112324331D01*
X158345397Y-112309313D01*
X158374731Y-112230667D01*
X158416602Y-112174733D01*
X158482067Y-112150316D01*
X158490913Y-112150000D01*
X159257434Y-112150000D01*
X169601087Y-112150000D01*
X169668126Y-112169685D01*
X169713881Y-112222489D01*
X169717269Y-112230667D01*
X169752202Y-112324328D01*
X169752206Y-112324335D01*
X169838452Y-112439544D01*
X169838455Y-112439547D01*
X169953664Y-112525793D01*
X169953671Y-112525797D01*
X170088517Y-112576091D01*
X170088516Y-112576091D01*
X170095444Y-112576835D01*
X170148127Y-112582500D01*
X172243872Y-112582499D01*
X172303483Y-112576091D01*
X172438331Y-112525796D01*
X172553546Y-112439546D01*
X172639796Y-112324331D01*
X172690091Y-112189483D01*
X172696500Y-112129873D01*
X172696499Y-110534128D01*
X172690091Y-110474517D01*
X172674730Y-110433333D01*
X172639797Y-110339671D01*
X172639793Y-110339664D01*
X172553547Y-110224455D01*
X172553544Y-110224452D01*
X172438335Y-110138206D01*
X172438328Y-110138202D01*
X172303482Y-110087908D01*
X172303483Y-110087908D01*
X172243883Y-110081501D01*
X172243881Y-110081500D01*
X172243873Y-110081500D01*
X172243864Y-110081500D01*
X170148129Y-110081500D01*
X170148123Y-110081501D01*
X170088516Y-110087908D01*
X169953671Y-110138202D01*
X169953664Y-110138206D01*
X169838455Y-110224452D01*
X169838452Y-110224455D01*
X169752206Y-110339664D01*
X169752202Y-110339671D01*
X169717269Y-110433333D01*
X169675398Y-110489267D01*
X169609933Y-110513684D01*
X169601087Y-110514000D01*
X159728189Y-110514000D01*
X159661150Y-110494315D01*
X159640508Y-110477681D01*
X157994931Y-108832104D01*
X157961446Y-108770781D01*
X157961009Y-108768685D01*
X157941744Y-108671831D01*
X157865721Y-108488296D01*
X157865720Y-108488295D01*
X157865717Y-108488289D01*
X157755353Y-108323119D01*
X157755350Y-108323115D01*
X157614884Y-108182649D01*
X157614880Y-108182646D01*
X157449710Y-108072282D01*
X157449701Y-108072277D01*
X157266169Y-107996256D01*
X157266161Y-107996254D01*
X157071333Y-107957500D01*
X157071329Y-107957500D01*
X156872671Y-107957500D01*
X156872666Y-107957500D01*
X156677838Y-107996254D01*
X156677830Y-107996256D01*
X156494298Y-108072277D01*
X156494289Y-108072282D01*
X156329119Y-108182646D01*
X156329115Y-108182649D01*
X156188649Y-108323115D01*
X156188646Y-108323119D01*
X156078282Y-108488289D01*
X156078277Y-108488298D01*
X156002256Y-108671830D01*
X156002254Y-108671838D01*
X155963500Y-108866666D01*
X155963500Y-109065333D01*
X156002254Y-109260161D01*
X156002256Y-109260169D01*
X156078277Y-109443701D01*
X156078282Y-109443710D01*
X156188646Y-109608880D01*
X156188649Y-109608884D01*
X156329115Y-109749350D01*
X156329119Y-109749353D01*
X156486329Y-109854398D01*
X156531134Y-109908010D01*
X156539841Y-109977335D01*
X156509687Y-110040363D01*
X156450243Y-110077082D01*
X156417438Y-110081500D01*
X155848129Y-110081500D01*
X155848123Y-110081501D01*
X155788516Y-110087908D01*
X155653671Y-110138202D01*
X155653664Y-110138206D01*
X155538455Y-110224452D01*
X155538452Y-110224455D01*
X155452206Y-110339664D01*
X155452202Y-110339671D01*
X155401908Y-110474517D01*
X155397664Y-110514000D01*
X155395501Y-110534123D01*
X155395500Y-110534135D01*
X140200500Y-110534135D01*
X140200500Y-109129448D01*
X147043500Y-109129448D01*
X147043500Y-109310551D01*
X147071829Y-109489410D01*
X147127787Y-109661636D01*
X147127788Y-109661639D01*
X147210006Y-109822997D01*
X147316441Y-109969494D01*
X147316445Y-109969499D01*
X147444500Y-110097554D01*
X147444505Y-110097558D01*
X147500453Y-110138206D01*
X147591006Y-110203996D01*
X147696484Y-110257740D01*
X147752360Y-110286211D01*
X147752363Y-110286212D01*
X147838476Y-110314191D01*
X147924591Y-110342171D01*
X148007429Y-110355291D01*
X148103449Y-110370500D01*
X148103454Y-110370500D01*
X149584551Y-110370500D01*
X149671259Y-110356765D01*
X149763409Y-110342171D01*
X149935639Y-110286211D01*
X150096994Y-110203996D01*
X150243501Y-110097553D01*
X150249179Y-110091874D01*
X150272248Y-110073718D01*
X150280485Y-110068688D01*
X150307625Y-110057448D01*
X150397884Y-109997139D01*
X150462403Y-109954029D01*
X159484029Y-100932402D01*
X159587448Y-100777625D01*
X159658684Y-100605646D01*
X159695000Y-100423074D01*
X159695000Y-100236925D01*
X159695000Y-99248794D01*
X159714685Y-99181755D01*
X159731319Y-99161113D01*
X161764026Y-97128406D01*
X161764029Y-97128403D01*
X161867448Y-96973625D01*
X161938684Y-96801646D01*
X161946073Y-96764500D01*
X161975000Y-96619074D01*
X161975000Y-96551657D01*
X161976147Y-96543284D01*
X161986002Y-96521315D01*
X161993462Y-96495015D01*
X162010185Y-96467903D01*
X162062133Y-96421178D01*
X162115723Y-96409000D01*
X163392453Y-96409000D01*
X163459492Y-96428685D01*
X163480134Y-96445319D01*
X163490786Y-96455971D01*
X163645749Y-96568556D01*
X163656390Y-96576287D01*
X163772607Y-96635503D01*
X163838776Y-96669218D01*
X163838778Y-96669218D01*
X163838781Y-96669220D01*
X163943137Y-96703127D01*
X164033465Y-96732477D01*
X164111345Y-96744812D01*
X164235648Y-96764500D01*
X164235649Y-96764500D01*
X164440351Y-96764500D01*
X164440352Y-96764500D01*
X164642534Y-96732477D01*
X164837219Y-96669220D01*
X165019610Y-96576287D01*
X165166638Y-96469466D01*
X165185213Y-96455971D01*
X165185215Y-96455968D01*
X165185219Y-96455966D01*
X165329966Y-96311219D01*
X165329968Y-96311215D01*
X165329971Y-96311213D01*
X165401473Y-96212797D01*
X165450287Y-96145610D01*
X165543220Y-95963219D01*
X165606477Y-95768534D01*
X165638500Y-95566352D01*
X165638500Y-95361648D01*
X165606477Y-95159466D01*
X165543220Y-94964781D01*
X165543218Y-94964778D01*
X165543218Y-94964776D01*
X165509503Y-94898607D01*
X165450287Y-94782390D01*
X165442556Y-94771749D01*
X165329971Y-94616786D01*
X165185213Y-94472028D01*
X165019611Y-94351713D01*
X164965621Y-94324203D01*
X164914825Y-94276228D01*
X164898031Y-94208407D01*
X164920569Y-94142272D01*
X164965624Y-94103233D01*
X165019349Y-94075859D01*
X165063921Y-94043474D01*
X164384447Y-93364000D01*
X164390661Y-93364000D01*
X164492394Y-93336741D01*
X164583606Y-93284080D01*
X164658080Y-93209606D01*
X164710741Y-93118394D01*
X164738000Y-93016661D01*
X164738000Y-93010447D01*
X165417474Y-93689921D01*
X165449859Y-93645349D01*
X165542755Y-93463031D01*
X165605990Y-93268417D01*
X165638000Y-93066317D01*
X165638000Y-92861682D01*
X165605990Y-92659582D01*
X165542755Y-92464968D01*
X165449859Y-92282650D01*
X165417474Y-92238077D01*
X165417474Y-92238076D01*
X164738000Y-92917551D01*
X164738000Y-92911339D01*
X164710741Y-92809606D01*
X164658080Y-92718394D01*
X164583606Y-92643920D01*
X164492394Y-92591259D01*
X164390661Y-92564000D01*
X164384446Y-92564000D01*
X165063922Y-91884524D01*
X165063921Y-91884523D01*
X165019359Y-91852147D01*
X165019350Y-91852141D01*
X164837031Y-91759244D01*
X164642417Y-91696009D01*
X164440317Y-91664000D01*
X164235683Y-91664000D01*
X164033582Y-91696009D01*
X163838968Y-91759244D01*
X163656644Y-91852143D01*
X163612077Y-91884523D01*
X163612077Y-91884524D01*
X164291554Y-92564000D01*
X164285339Y-92564000D01*
X164183606Y-92591259D01*
X164092394Y-92643920D01*
X164017920Y-92718394D01*
X163965259Y-92809606D01*
X163938000Y-92911339D01*
X163938000Y-92917553D01*
X163258524Y-92238077D01*
X163258523Y-92238077D01*
X163226143Y-92282644D01*
X163133244Y-92464968D01*
X163070009Y-92659582D01*
X163038000Y-92861682D01*
X163038000Y-93066317D01*
X163070009Y-93268417D01*
X163133244Y-93463031D01*
X163226141Y-93645350D01*
X163226147Y-93645359D01*
X163258523Y-93689921D01*
X163258524Y-93689922D01*
X163938000Y-93010446D01*
X163938000Y-93016661D01*
X163965259Y-93118394D01*
X164017920Y-93209606D01*
X164092394Y-93284080D01*
X164183606Y-93336741D01*
X164285339Y-93364000D01*
X164291553Y-93364000D01*
X163612076Y-94043474D01*
X163656652Y-94075861D01*
X163710376Y-94103234D01*
X163761172Y-94151208D01*
X163777968Y-94219028D01*
X163755431Y-94285164D01*
X163710379Y-94324203D01*
X163656386Y-94351714D01*
X163490786Y-94472028D01*
X163490782Y-94472032D01*
X163480134Y-94482681D01*
X163418811Y-94516166D01*
X163392453Y-94519000D01*
X162254499Y-94519000D01*
X162187460Y-94499315D01*
X162141705Y-94446511D01*
X162130499Y-94395000D01*
X162130499Y-94309998D01*
X162130498Y-94309981D01*
X162119999Y-94207203D01*
X162119998Y-94207200D01*
X162085547Y-94103234D01*
X162064814Y-94040666D01*
X161972712Y-93891344D01*
X161848656Y-93767288D01*
X161723225Y-93689922D01*
X161699336Y-93675187D01*
X161699331Y-93675185D01*
X161697862Y-93674698D01*
X161532797Y-93620001D01*
X161532795Y-93620000D01*
X161430010Y-93609500D01*
X160629998Y-93609500D01*
X160629980Y-93609501D01*
X160527203Y-93620000D01*
X160527200Y-93620001D01*
X160360668Y-93675185D01*
X160360663Y-93675187D01*
X160211342Y-93767289D01*
X160087289Y-93891342D01*
X159995187Y-94040663D01*
X159995185Y-94040668D01*
X159974453Y-94103233D01*
X159940001Y-94207203D01*
X159940001Y-94207204D01*
X159940000Y-94207204D01*
X159929500Y-94309983D01*
X159929500Y-96110001D01*
X159929501Y-96110019D01*
X159940201Y-96214760D01*
X159927431Y-96283453D01*
X159904524Y-96315042D01*
X158015973Y-98203593D01*
X158015967Y-98203601D01*
X157912552Y-98358372D01*
X157841316Y-98530353D01*
X157841314Y-98530361D01*
X157805000Y-98712921D01*
X157805000Y-99887205D01*
X157785315Y-99954244D01*
X157768681Y-99974886D01*
X149706503Y-108037063D01*
X149645180Y-108070548D01*
X149599428Y-108071856D01*
X149584550Y-108069500D01*
X149584546Y-108069500D01*
X148103454Y-108069500D01*
X148103449Y-108069500D01*
X147924589Y-108097829D01*
X147752363Y-108153787D01*
X147752360Y-108153788D01*
X147591002Y-108236006D01*
X147444505Y-108342441D01*
X147444500Y-108342445D01*
X147316445Y-108470500D01*
X147316441Y-108470505D01*
X147210006Y-108617002D01*
X147127788Y-108778360D01*
X147127787Y-108778363D01*
X147071829Y-108950589D01*
X147043500Y-109129448D01*
X140200500Y-109129448D01*
X140200500Y-89051648D01*
X141447500Y-89051648D01*
X141447500Y-89256351D01*
X141479522Y-89458534D01*
X141542781Y-89653223D01*
X141635715Y-89835613D01*
X141756028Y-90001213D01*
X141900786Y-90145971D01*
X142055749Y-90258556D01*
X142066390Y-90266287D01*
X142182607Y-90325503D01*
X142248776Y-90359218D01*
X142248778Y-90359218D01*
X142248781Y-90359220D01*
X142353137Y-90393127D01*
X142443465Y-90422477D01*
X142544557Y-90438488D01*
X142645648Y-90454500D01*
X142645649Y-90454500D01*
X142850351Y-90454500D01*
X142850352Y-90454500D01*
X143052534Y-90422477D01*
X143247219Y-90359220D01*
X143429610Y-90266287D01*
X143522590Y-90198732D01*
X143595213Y-90145971D01*
X143595215Y-90145968D01*
X143595219Y-90145966D01*
X143739966Y-90001219D01*
X143739968Y-90001215D01*
X143739971Y-90001213D01*
X143792732Y-89928590D01*
X143860287Y-89835610D01*
X143953220Y-89653219D01*
X144016477Y-89458534D01*
X144048500Y-89256352D01*
X144048500Y-89051648D01*
X144016477Y-88849466D01*
X144012035Y-88835796D01*
X143984010Y-88749544D01*
X143953220Y-88654781D01*
X143953218Y-88654778D01*
X143953218Y-88654776D01*
X143908041Y-88566113D01*
X143860287Y-88472390D01*
X143852556Y-88461749D01*
X143739971Y-88306786D01*
X143595213Y-88162028D01*
X143429613Y-88041715D01*
X143429612Y-88041714D01*
X143429610Y-88041713D01*
X143372653Y-88012691D01*
X143247223Y-87948781D01*
X143052534Y-87885522D01*
X142877995Y-87857878D01*
X142850352Y-87853500D01*
X142645648Y-87853500D01*
X142622224Y-87857210D01*
X142443465Y-87885522D01*
X142248776Y-87948781D01*
X142066386Y-88041715D01*
X141900786Y-88162028D01*
X141756028Y-88306786D01*
X141635715Y-88472386D01*
X141542781Y-88654776D01*
X141479522Y-88849465D01*
X141447500Y-89051648D01*
X140200500Y-89051648D01*
X140200500Y-79888713D01*
X141397500Y-79888713D01*
X141397500Y-80101286D01*
X141430753Y-80311239D01*
X141496444Y-80513414D01*
X141592951Y-80702820D01*
X141717890Y-80874786D01*
X141868213Y-81025109D01*
X142040182Y-81150050D01*
X142048946Y-81154516D01*
X142099742Y-81202491D01*
X142116536Y-81270312D01*
X142093998Y-81336447D01*
X142048946Y-81375484D01*
X142040182Y-81379949D01*
X141868213Y-81504890D01*
X141717890Y-81655213D01*
X141592951Y-81827179D01*
X141496444Y-82016585D01*
X141430753Y-82218760D01*
X141397500Y-82428713D01*
X141397500Y-82641287D01*
X141430754Y-82851243D01*
X141434276Y-82862084D01*
X141496444Y-83053414D01*
X141592951Y-83242820D01*
X141717890Y-83414786D01*
X141831818Y-83528714D01*
X141865303Y-83590037D01*
X141860319Y-83659729D01*
X141818447Y-83715662D01*
X141787471Y-83732577D01*
X141655912Y-83781646D01*
X141655906Y-83781649D01*
X141540812Y-83867809D01*
X141540809Y-83867812D01*
X141454649Y-83982906D01*
X141454645Y-83982913D01*
X141404403Y-84117620D01*
X141404401Y-84117627D01*
X141398000Y-84177155D01*
X141398000Y-84825000D01*
X142314988Y-84825000D01*
X142282075Y-84882007D01*
X142248000Y-85009174D01*
X142248000Y-85140826D01*
X142282075Y-85267993D01*
X142314988Y-85325000D01*
X141398000Y-85325000D01*
X141398000Y-85972844D01*
X141404401Y-86032372D01*
X141404403Y-86032379D01*
X141454645Y-86167086D01*
X141454649Y-86167093D01*
X141540809Y-86282187D01*
X141540812Y-86282190D01*
X141655906Y-86368350D01*
X141655913Y-86368354D01*
X141790620Y-86418596D01*
X141790627Y-86418598D01*
X141850155Y-86424999D01*
X141850172Y-86425000D01*
X142498000Y-86425000D01*
X142498000Y-85508012D01*
X142555007Y-85540925D01*
X142682174Y-85575000D01*
X142813826Y-85575000D01*
X142940993Y-85540925D01*
X142998000Y-85508012D01*
X142998000Y-86425000D01*
X143645828Y-86425000D01*
X143645844Y-86424999D01*
X143705372Y-86418598D01*
X143705379Y-86418596D01*
X143840086Y-86368354D01*
X143840093Y-86368350D01*
X143955187Y-86282190D01*
X143955190Y-86282187D01*
X144041350Y-86167093D01*
X144041354Y-86167086D01*
X144091596Y-86032379D01*
X144091598Y-86032372D01*
X144097999Y-85972844D01*
X144098000Y-85972827D01*
X144098000Y-85325000D01*
X143181012Y-85325000D01*
X143213925Y-85267993D01*
X143248000Y-85140826D01*
X143248000Y-85009174D01*
X143213925Y-84882007D01*
X143181012Y-84825000D01*
X144098000Y-84825000D01*
X144098000Y-84177172D01*
X144097999Y-84177155D01*
X144091598Y-84117627D01*
X144091596Y-84117620D01*
X144041354Y-83982913D01*
X144041350Y-83982906D01*
X143955190Y-83867812D01*
X143955187Y-83867809D01*
X143840093Y-83781649D01*
X143840088Y-83781646D01*
X143708528Y-83732577D01*
X143681438Y-83712297D01*
X143653990Y-83692534D01*
X143653551Y-83691420D01*
X143652595Y-83690705D01*
X143640778Y-83659024D01*
X143628363Y-83627533D01*
X143628595Y-83626360D01*
X143628178Y-83625241D01*
X143635364Y-83592206D01*
X143641946Y-83558997D01*
X143642859Y-83557753D01*
X143643030Y-83556968D01*
X143662570Y-83530355D01*
X143663337Y-83529558D01*
X143778104Y-83414792D01*
X143790915Y-83397158D01*
X143796888Y-83390960D01*
X143820065Y-83377740D01*
X143841194Y-83361448D01*
X143852278Y-83359366D01*
X143857579Y-83356343D01*
X143866004Y-83356788D01*
X143886180Y-83353000D01*
X145524192Y-83353000D01*
X145591231Y-83372685D01*
X145611873Y-83389318D01*
X145735536Y-83512981D01*
X145896306Y-83629787D01*
X146014580Y-83690051D01*
X146052780Y-83709515D01*
X146103576Y-83757490D01*
X146120371Y-83825311D01*
X146097833Y-83891446D01*
X146052780Y-83930485D01*
X145896305Y-84010213D01*
X145735533Y-84127021D01*
X145595021Y-84267533D01*
X145478213Y-84428305D01*
X145387994Y-84605367D01*
X145387993Y-84605370D01*
X145326587Y-84794362D01*
X145295500Y-84990639D01*
X145295500Y-85189360D01*
X145326587Y-85385637D01*
X145387993Y-85574629D01*
X145387994Y-85574632D01*
X145478213Y-85751694D01*
X145595019Y-85912464D01*
X145735536Y-86052981D01*
X145896306Y-86169787D01*
X146014832Y-86230179D01*
X146052780Y-86249515D01*
X146103576Y-86297490D01*
X146120371Y-86365311D01*
X146097833Y-86431446D01*
X146052780Y-86470485D01*
X145896305Y-86550213D01*
X145735533Y-86667021D01*
X145595021Y-86807533D01*
X145478213Y-86968305D01*
X145387994Y-87145367D01*
X145387993Y-87145370D01*
X145326587Y-87334362D01*
X145295500Y-87530639D01*
X145295500Y-87729360D01*
X145326587Y-87925637D01*
X145387993Y-88114629D01*
X145387994Y-88114632D01*
X145478213Y-88291694D01*
X145595019Y-88452464D01*
X145735536Y-88592981D01*
X145896306Y-88709787D01*
X145974333Y-88749544D01*
X146073367Y-88800005D01*
X146073370Y-88800006D01*
X146167866Y-88830709D01*
X146262364Y-88861413D01*
X146458639Y-88892500D01*
X146458640Y-88892500D01*
X148181360Y-88892500D01*
X148181361Y-88892500D01*
X148377636Y-88861413D01*
X148566632Y-88800005D01*
X148743694Y-88709787D01*
X148904464Y-88592981D01*
X149044981Y-88452464D01*
X149161787Y-88291694D01*
X149252005Y-88114632D01*
X149308069Y-87942084D01*
X149347506Y-87884409D01*
X149411865Y-87857210D01*
X149480711Y-87869124D01*
X149532187Y-87916368D01*
X149550000Y-87980402D01*
X149550000Y-90541811D01*
X149530315Y-90608850D01*
X149513681Y-90629492D01*
X144223492Y-95919681D01*
X144162169Y-95953166D01*
X144135811Y-95956000D01*
X143820547Y-95956000D01*
X143753508Y-95936315D01*
X143732866Y-95919681D01*
X143595213Y-95782028D01*
X143429613Y-95661715D01*
X143429612Y-95661714D01*
X143429610Y-95661713D01*
X143372653Y-95632691D01*
X143247223Y-95568781D01*
X143052534Y-95505522D01*
X142877995Y-95477878D01*
X142850352Y-95473500D01*
X142645648Y-95473500D01*
X142621329Y-95477351D01*
X142443465Y-95505522D01*
X142248776Y-95568781D01*
X142066386Y-95661715D01*
X141900786Y-95782028D01*
X141756028Y-95926786D01*
X141635715Y-96092386D01*
X141542781Y-96274776D01*
X141479522Y-96469465D01*
X141447500Y-96671648D01*
X141447500Y-96876351D01*
X141479522Y-97078534D01*
X141542781Y-97273223D01*
X141635715Y-97455613D01*
X141756028Y-97621213D01*
X141900786Y-97765971D01*
X142055749Y-97878556D01*
X142066390Y-97886287D01*
X142182607Y-97945503D01*
X142248776Y-97979218D01*
X142248778Y-97979218D01*
X142248781Y-97979220D01*
X142353137Y-98013127D01*
X142443465Y-98042477D01*
X142544557Y-98058488D01*
X142645648Y-98074500D01*
X142645649Y-98074500D01*
X142850351Y-98074500D01*
X142850352Y-98074500D01*
X143052534Y-98042477D01*
X143247219Y-97979220D01*
X143429610Y-97886287D01*
X143522590Y-97818732D01*
X143595213Y-97765971D01*
X143595215Y-97765968D01*
X143595219Y-97765966D01*
X143732866Y-97628319D01*
X143794189Y-97594834D01*
X143820547Y-97592000D01*
X144606567Y-97592000D01*
X144606568Y-97591999D01*
X144764602Y-97560565D01*
X144839035Y-97529733D01*
X144913468Y-97498903D01*
X145047445Y-97409382D01*
X146503661Y-95953166D01*
X147095179Y-95361648D01*
X151861500Y-95361648D01*
X151861500Y-95566351D01*
X151893522Y-95768534D01*
X151956781Y-95963223D01*
X152020691Y-96088653D01*
X152031578Y-96110019D01*
X152049715Y-96145613D01*
X152170028Y-96311213D01*
X152314786Y-96455971D01*
X152469749Y-96568556D01*
X152480390Y-96576287D01*
X152596607Y-96635503D01*
X152662776Y-96669218D01*
X152662778Y-96669218D01*
X152662781Y-96669220D01*
X152767137Y-96703127D01*
X152857465Y-96732477D01*
X152935345Y-96744812D01*
X153059648Y-96764500D01*
X153059649Y-96764500D01*
X153264351Y-96764500D01*
X153264352Y-96764500D01*
X153466534Y-96732477D01*
X153661219Y-96669220D01*
X153843610Y-96576287D01*
X153990638Y-96469466D01*
X154009213Y-96455971D01*
X154009215Y-96455968D01*
X154009219Y-96455966D01*
X154019866Y-96445319D01*
X154081189Y-96411834D01*
X154107547Y-96409000D01*
X155384277Y-96409000D01*
X155451316Y-96428685D01*
X155489816Y-96467904D01*
X155498960Y-96482730D01*
X155527288Y-96528656D01*
X155651344Y-96652712D01*
X155800666Y-96744814D01*
X155967203Y-96799999D01*
X156069991Y-96810500D01*
X156870008Y-96810499D01*
X156870016Y-96810498D01*
X156870019Y-96810498D01*
X156926302Y-96804748D01*
X156972797Y-96799999D01*
X157139334Y-96744814D01*
X157288656Y-96652712D01*
X157412712Y-96528656D01*
X157504814Y-96379334D01*
X157559999Y-96212797D01*
X157570500Y-96110009D01*
X157570499Y-94309992D01*
X157559999Y-94207203D01*
X157504814Y-94040666D01*
X157412712Y-93891344D01*
X157288656Y-93767288D01*
X157163225Y-93689922D01*
X157139336Y-93675187D01*
X157139331Y-93675185D01*
X157137862Y-93674698D01*
X156972797Y-93620001D01*
X156972795Y-93620000D01*
X156870010Y-93609500D01*
X156069998Y-93609500D01*
X156069980Y-93609501D01*
X155967203Y-93620000D01*
X155967200Y-93620001D01*
X155800668Y-93675185D01*
X155800663Y-93675187D01*
X155651342Y-93767289D01*
X155527289Y-93891342D01*
X155435187Y-94040663D01*
X155435185Y-94040668D01*
X155414453Y-94103233D01*
X155380001Y-94207203D01*
X155380001Y-94207204D01*
X155380000Y-94207204D01*
X155369500Y-94309983D01*
X155369500Y-94395000D01*
X155349815Y-94462039D01*
X155297011Y-94507794D01*
X155245500Y-94519000D01*
X154107547Y-94519000D01*
X154040508Y-94499315D01*
X154019866Y-94482681D01*
X154009213Y-94472028D01*
X153843611Y-94351713D01*
X153789621Y-94324203D01*
X153738825Y-94276228D01*
X153722031Y-94208407D01*
X153744569Y-94142272D01*
X153789624Y-94103233D01*
X153843349Y-94075859D01*
X153887921Y-94043474D01*
X153208447Y-93364000D01*
X153214661Y-93364000D01*
X153316394Y-93336741D01*
X153407606Y-93284080D01*
X153482080Y-93209606D01*
X153534741Y-93118394D01*
X153562000Y-93016661D01*
X153562000Y-93010448D01*
X154241474Y-93689922D01*
X154241474Y-93689921D01*
X154273859Y-93645349D01*
X154366755Y-93463031D01*
X154429990Y-93268417D01*
X154462000Y-93066317D01*
X154462000Y-92861682D01*
X154429990Y-92659582D01*
X154366755Y-92464968D01*
X154273859Y-92282650D01*
X154241474Y-92238077D01*
X154241474Y-92238076D01*
X153562000Y-92917551D01*
X153562000Y-92911339D01*
X153534741Y-92809606D01*
X153482080Y-92718394D01*
X153407606Y-92643920D01*
X153316394Y-92591259D01*
X153214661Y-92564000D01*
X153208446Y-92564000D01*
X153862458Y-91909988D01*
X155350001Y-91909988D01*
X155360494Y-92012699D01*
X155415640Y-92179120D01*
X155415642Y-92179125D01*
X155507683Y-92328346D01*
X155631653Y-92452316D01*
X155780874Y-92544357D01*
X155780879Y-92544359D01*
X155947302Y-92599506D01*
X155947300Y-92599506D01*
X156006134Y-92605516D01*
X156006137Y-92605516D01*
X156056305Y-92610642D01*
X156063461Y-92611373D01*
X156071419Y-92610000D01*
X156101375Y-92610000D01*
X156101384Y-92609999D01*
X156975000Y-92609999D01*
X157475000Y-92609999D01*
X158500000Y-92609999D01*
X159000000Y-92609999D01*
X160024999Y-92609999D01*
X160525000Y-92609999D01*
X161449974Y-92609999D01*
X161449988Y-92609998D01*
X161552699Y-92599505D01*
X161719120Y-92544359D01*
X161719125Y-92544357D01*
X161868346Y-92452316D01*
X161992316Y-92328346D01*
X162084357Y-92179125D01*
X162084359Y-92179120D01*
X162139506Y-92012698D01*
X162149060Y-91919181D01*
X162149060Y-91919177D01*
X162149999Y-91909980D01*
X162150000Y-91909975D01*
X162150000Y-90835000D01*
X160525000Y-90835000D01*
X160525000Y-92609999D01*
X160024999Y-92609999D01*
X160025000Y-92609998D01*
X160025000Y-90835000D01*
X159000000Y-90835000D01*
X159000000Y-92609999D01*
X158500000Y-92609999D01*
X158500000Y-90835000D01*
X157475000Y-90835000D01*
X157475000Y-92609999D01*
X156975000Y-92609999D01*
X156975000Y-90835000D01*
X155350001Y-90835000D01*
X155350001Y-91909988D01*
X153862458Y-91909988D01*
X153887922Y-91884524D01*
X153887921Y-91884523D01*
X153843359Y-91852147D01*
X153843350Y-91852141D01*
X153661031Y-91759244D01*
X153466417Y-91696009D01*
X153264317Y-91664000D01*
X153059683Y-91664000D01*
X152857582Y-91696009D01*
X152662968Y-91759244D01*
X152480644Y-91852143D01*
X152436077Y-91884523D01*
X152436077Y-91884524D01*
X153115554Y-92564000D01*
X153109339Y-92564000D01*
X153007606Y-92591259D01*
X152916394Y-92643920D01*
X152841920Y-92718394D01*
X152789259Y-92809606D01*
X152762000Y-92911339D01*
X152762000Y-92917553D01*
X152082524Y-92238077D01*
X152082523Y-92238077D01*
X152050143Y-92282644D01*
X151957244Y-92464968D01*
X151894009Y-92659582D01*
X151862000Y-92861682D01*
X151862000Y-93066317D01*
X151894009Y-93268417D01*
X151957244Y-93463031D01*
X152050141Y-93645350D01*
X152050147Y-93645359D01*
X152082523Y-93689921D01*
X152082524Y-93689922D01*
X152762000Y-93010446D01*
X152762000Y-93016661D01*
X152789259Y-93118394D01*
X152841920Y-93209606D01*
X152916394Y-93284080D01*
X153007606Y-93336741D01*
X153109339Y-93364000D01*
X153115553Y-93364000D01*
X152436076Y-94043474D01*
X152480652Y-94075861D01*
X152534376Y-94103234D01*
X152585172Y-94151208D01*
X152601968Y-94219028D01*
X152579431Y-94285164D01*
X152534379Y-94324203D01*
X152480386Y-94351714D01*
X152314786Y-94472028D01*
X152170028Y-94616786D01*
X152049715Y-94782386D01*
X151956781Y-94964776D01*
X151893522Y-95159465D01*
X151861500Y-95361648D01*
X147095179Y-95361648D01*
X147187732Y-95269095D01*
X148993795Y-93463031D01*
X150879235Y-91577589D01*
X150879240Y-91577586D01*
X150889443Y-91567382D01*
X150889445Y-91567382D01*
X151003382Y-91453445D01*
X151003618Y-91453090D01*
X151039236Y-91399784D01*
X151039238Y-91399780D01*
X151092903Y-91319468D01*
X151154565Y-91170602D01*
X151186000Y-91012565D01*
X151186000Y-90851434D01*
X151186000Y-90335000D01*
X155350000Y-90335000D01*
X156975000Y-90335000D01*
X157475000Y-90335000D01*
X158500000Y-90335000D01*
X159000000Y-90335000D01*
X160025000Y-90335000D01*
X160525000Y-90335000D01*
X162149999Y-90335000D01*
X162149999Y-89160000D01*
X160525000Y-89160000D01*
X160525000Y-90335000D01*
X160025000Y-90335000D01*
X160025000Y-89160000D01*
X159000000Y-89160000D01*
X159000000Y-90335000D01*
X158500000Y-90335000D01*
X158500000Y-89160000D01*
X157475000Y-89160000D01*
X157475000Y-90335000D01*
X156975000Y-90335000D01*
X156975000Y-89160000D01*
X155350000Y-89160000D01*
X155350000Y-90335000D01*
X151186000Y-90335000D01*
X151186000Y-88660000D01*
X155350000Y-88660000D01*
X156975000Y-88660000D01*
X157475000Y-88660000D01*
X158500000Y-88660000D01*
X159000000Y-88660000D01*
X160025000Y-88660000D01*
X160525000Y-88660000D01*
X162149999Y-88660000D01*
X162149999Y-88566113D01*
X162150000Y-88566092D01*
X162150000Y-87485000D01*
X160525000Y-87485000D01*
X160525000Y-88660000D01*
X160025000Y-88660000D01*
X160025000Y-87485000D01*
X159000000Y-87485000D01*
X159000000Y-88660000D01*
X158500000Y-88660000D01*
X158500000Y-87485000D01*
X157475000Y-87485000D01*
X157475000Y-88660000D01*
X156975000Y-88660000D01*
X156975000Y-87485000D01*
X155350000Y-87485000D01*
X155350000Y-88660000D01*
X151186000Y-88660000D01*
X151186000Y-85910011D01*
X155350000Y-85910011D01*
X155350000Y-86985000D01*
X156975000Y-86985000D01*
X157475000Y-86985000D01*
X158500000Y-86985000D01*
X159000000Y-86985000D01*
X160025000Y-86985000D01*
X160525000Y-86985000D01*
X162149999Y-86985000D01*
X162149999Y-85910028D01*
X162149998Y-85910013D01*
X162140148Y-85813589D01*
X162139976Y-85810219D01*
X162139505Y-85807300D01*
X162084359Y-85640879D01*
X162084357Y-85640874D01*
X161992316Y-85491653D01*
X161868346Y-85367683D01*
X161719125Y-85275642D01*
X161719120Y-85275640D01*
X161552698Y-85220494D01*
X161449988Y-85210000D01*
X160525000Y-85210000D01*
X160525000Y-86985000D01*
X160025000Y-86985000D01*
X160025000Y-85210000D01*
X159000000Y-85210000D01*
X159000000Y-86985000D01*
X158500000Y-86985000D01*
X158500000Y-85210000D01*
X157475000Y-85210000D01*
X157475000Y-86985000D01*
X156975000Y-86985000D01*
X156975000Y-85210000D01*
X156049197Y-85210000D01*
X156046364Y-85210374D01*
X155947300Y-85220494D01*
X155780879Y-85275640D01*
X155780874Y-85275642D01*
X155631653Y-85367683D01*
X155507683Y-85491653D01*
X155415642Y-85640874D01*
X155415640Y-85640879D01*
X155360494Y-85807301D01*
X155350000Y-85910011D01*
X151186000Y-85910011D01*
X151186000Y-81199434D01*
X151154565Y-81041398D01*
X151095228Y-80898149D01*
X151093584Y-80893551D01*
X151003382Y-80758554D01*
X149619448Y-79374620D01*
X149619444Y-79374617D01*
X149485474Y-79285100D01*
X149485461Y-79285093D01*
X149336606Y-79223436D01*
X149336594Y-79223433D01*
X149178570Y-79192000D01*
X149178566Y-79192000D01*
X149100807Y-79192000D01*
X149033768Y-79172315D01*
X149013126Y-79155681D01*
X148904466Y-79047021D01*
X148904464Y-79047019D01*
X148743694Y-78930213D01*
X148587218Y-78850484D01*
X148536423Y-78802510D01*
X148519628Y-78734689D01*
X148542165Y-78668554D01*
X148587218Y-78629515D01*
X148743694Y-78549787D01*
X148904464Y-78432981D01*
X149013126Y-78324319D01*
X149074449Y-78290834D01*
X149100807Y-78288000D01*
X151845567Y-78288000D01*
X151845568Y-78287999D01*
X152003602Y-78256565D01*
X152078035Y-78225733D01*
X152152468Y-78194903D01*
X152286445Y-78105382D01*
X154607508Y-75784319D01*
X154634435Y-75769615D01*
X154660254Y-75753023D01*
X154666454Y-75752131D01*
X154668831Y-75750834D01*
X154695189Y-75748000D01*
X154792501Y-75748000D01*
X154859540Y-75767685D01*
X154905295Y-75820489D01*
X154916501Y-75872000D01*
X154916501Y-75977876D01*
X154922908Y-76037483D01*
X154973202Y-76172328D01*
X154973206Y-76172335D01*
X155059452Y-76287544D01*
X155059455Y-76287547D01*
X155174664Y-76373793D01*
X155174671Y-76373797D01*
X155309517Y-76424091D01*
X155309516Y-76424091D01*
X155316444Y-76424835D01*
X155369127Y-76430500D01*
X157464872Y-76430499D01*
X157524483Y-76424091D01*
X157659331Y-76373796D01*
X157774546Y-76287546D01*
X157860796Y-76172331D01*
X157911091Y-76037483D01*
X157917500Y-75977873D01*
X157917499Y-74811947D01*
X159917000Y-74811947D01*
X159917000Y-75048052D01*
X159953934Y-75281247D01*
X160026897Y-75505802D01*
X160134087Y-75716174D01*
X160194338Y-75799104D01*
X160194340Y-75799105D01*
X160934037Y-75059408D01*
X160951075Y-75122993D01*
X161016901Y-75237007D01*
X161109993Y-75330099D01*
X161224007Y-75395925D01*
X161287590Y-75412962D01*
X160547893Y-76152658D01*
X160630828Y-76212914D01*
X160841197Y-76320102D01*
X161065752Y-76393065D01*
X161065751Y-76393065D01*
X161298948Y-76430000D01*
X161535052Y-76430000D01*
X161768247Y-76393065D01*
X161992802Y-76320102D01*
X162203163Y-76212918D01*
X162203169Y-76212914D01*
X162286104Y-76152658D01*
X162286105Y-76152658D01*
X161546408Y-75412962D01*
X161609993Y-75395925D01*
X161724007Y-75330099D01*
X161817099Y-75237007D01*
X161882925Y-75122993D01*
X161899962Y-75059409D01*
X162639658Y-75799105D01*
X162639658Y-75799104D01*
X162699914Y-75716169D01*
X162699918Y-75716163D01*
X162807102Y-75505802D01*
X162880065Y-75281247D01*
X162917000Y-75048052D01*
X162917000Y-74811947D01*
X162880065Y-74578752D01*
X162807102Y-74354197D01*
X162699914Y-74143828D01*
X162639658Y-74060894D01*
X162639658Y-74060893D01*
X161899962Y-74800590D01*
X161882925Y-74737007D01*
X161817099Y-74622993D01*
X161724007Y-74529901D01*
X161609993Y-74464075D01*
X161546409Y-74447037D01*
X162286105Y-73707340D01*
X162286104Y-73707338D01*
X162203174Y-73647087D01*
X161992802Y-73539897D01*
X161768247Y-73466934D01*
X161768248Y-73466934D01*
X161535052Y-73430000D01*
X161298948Y-73430000D01*
X161065752Y-73466934D01*
X160841197Y-73539897D01*
X160630830Y-73647084D01*
X160547894Y-73707340D01*
X161287591Y-74447037D01*
X161224007Y-74464075D01*
X161109993Y-74529901D01*
X161016901Y-74622993D01*
X160951075Y-74737007D01*
X160934037Y-74800591D01*
X160194340Y-74060894D01*
X160134084Y-74143830D01*
X160026897Y-74354197D01*
X159953934Y-74578752D01*
X159917000Y-74811947D01*
X157917499Y-74811947D01*
X157917499Y-73882128D01*
X157911091Y-73822517D01*
X157909614Y-73818556D01*
X157901922Y-73797931D01*
X157860797Y-73687671D01*
X157860793Y-73687664D01*
X157774547Y-73572455D01*
X157774544Y-73572452D01*
X157659335Y-73486206D01*
X157659328Y-73486202D01*
X157524482Y-73435908D01*
X157524483Y-73435908D01*
X157464883Y-73429501D01*
X157464881Y-73429500D01*
X157464873Y-73429500D01*
X157464864Y-73429500D01*
X155369129Y-73429500D01*
X155369123Y-73429501D01*
X155309516Y-73435908D01*
X155174671Y-73486202D01*
X155174664Y-73486206D01*
X155059455Y-73572452D01*
X155059452Y-73572455D01*
X154973206Y-73687664D01*
X154973202Y-73687671D01*
X154922908Y-73822517D01*
X154919931Y-73850213D01*
X154916501Y-73882123D01*
X154916500Y-73882135D01*
X154916500Y-73988000D01*
X154896815Y-74055039D01*
X154844011Y-74100794D01*
X154792500Y-74112000D01*
X154224429Y-74112000D01*
X154066405Y-74143433D01*
X154066393Y-74143436D01*
X153961132Y-74187037D01*
X153917533Y-74205096D01*
X153917528Y-74205099D01*
X153783559Y-74294614D01*
X153783551Y-74294620D01*
X151462492Y-76615681D01*
X151401169Y-76649166D01*
X151374811Y-76652000D01*
X149100807Y-76652000D01*
X149033768Y-76632315D01*
X149013126Y-76615681D01*
X148904466Y-76507021D01*
X148904464Y-76507019D01*
X148743694Y-76390213D01*
X148587218Y-76310484D01*
X148536423Y-76262510D01*
X148519628Y-76194689D01*
X148542165Y-76128554D01*
X148587218Y-76089515D01*
X148743694Y-76009787D01*
X148904464Y-75892981D01*
X149044981Y-75752464D01*
X149161787Y-75591694D01*
X149252005Y-75414632D01*
X149313413Y-75225636D01*
X149344500Y-75029361D01*
X149344500Y-74830639D01*
X149313413Y-74634364D01*
X149259383Y-74468075D01*
X149252006Y-74445370D01*
X149252005Y-74445367D01*
X149184430Y-74312745D01*
X149161787Y-74268306D01*
X149044981Y-74107536D01*
X148904464Y-73967019D01*
X148743694Y-73850213D01*
X148689332Y-73822514D01*
X148566632Y-73759994D01*
X148566629Y-73759993D01*
X148471554Y-73729102D01*
X148413878Y-73689665D01*
X148386680Y-73625306D01*
X148398595Y-73556460D01*
X148435562Y-73511903D01*
X148439191Y-73509185D01*
X148525350Y-73394093D01*
X148525354Y-73394086D01*
X148575596Y-73259379D01*
X148575598Y-73259372D01*
X148581999Y-73199844D01*
X148582000Y-73199827D01*
X148582000Y-72640000D01*
X147762251Y-72640000D01*
X147793381Y-72586081D01*
X147828000Y-72456880D01*
X147828000Y-72323120D01*
X147793381Y-72193919D01*
X147762251Y-72140000D01*
X148582000Y-72140000D01*
X148582000Y-71580172D01*
X148581999Y-71580155D01*
X148575598Y-71520627D01*
X148575596Y-71520620D01*
X148525354Y-71385913D01*
X148525350Y-71385906D01*
X148439190Y-71270812D01*
X148439188Y-71270810D01*
X148435556Y-71268091D01*
X148393688Y-71212156D01*
X148388707Y-71142464D01*
X148422195Y-71081142D01*
X148471555Y-71050897D01*
X148566626Y-71020007D01*
X148566632Y-71020005D01*
X148743694Y-70929787D01*
X148904464Y-70812981D01*
X149044981Y-70672464D01*
X149161787Y-70511694D01*
X149252005Y-70334632D01*
X149313413Y-70145636D01*
X149344500Y-69949361D01*
X149344500Y-69750639D01*
X168155500Y-69750639D01*
X168155500Y-69949360D01*
X168186587Y-70145637D01*
X168247993Y-70334629D01*
X168247994Y-70334632D01*
X168338213Y-70511694D01*
X168455019Y-70672464D01*
X168595536Y-70812981D01*
X168756306Y-70929787D01*
X168874832Y-70990179D01*
X168912780Y-71009515D01*
X168963576Y-71057490D01*
X168980371Y-71125311D01*
X168957833Y-71191446D01*
X168912780Y-71230485D01*
X168756305Y-71310213D01*
X168595533Y-71427021D01*
X168455021Y-71567533D01*
X168338213Y-71728305D01*
X168247994Y-71905367D01*
X168247993Y-71905370D01*
X168186587Y-72094362D01*
X168155500Y-72290639D01*
X168155500Y-72489360D01*
X168186587Y-72685637D01*
X168247993Y-72874629D01*
X168247994Y-72874632D01*
X168338213Y-73051694D01*
X168455019Y-73212464D01*
X168595536Y-73352981D01*
X168756306Y-73469787D01*
X168838963Y-73511903D01*
X168912780Y-73549515D01*
X168963576Y-73597490D01*
X168980371Y-73665311D01*
X168957833Y-73731446D01*
X168912780Y-73770485D01*
X168756305Y-73850213D01*
X168595533Y-73967021D01*
X168455021Y-74107533D01*
X168338213Y-74268305D01*
X168247994Y-74445367D01*
X168247993Y-74445370D01*
X168186587Y-74634362D01*
X168186587Y-74634364D01*
X168155500Y-74830639D01*
X168155500Y-75029361D01*
X168159982Y-75057661D01*
X168186587Y-75225637D01*
X168247993Y-75414629D01*
X168247994Y-75414632D01*
X168338213Y-75591694D01*
X168455019Y-75752464D01*
X168595536Y-75892981D01*
X168756306Y-76009787D01*
X168843149Y-76054035D01*
X168933367Y-76100005D01*
X168933373Y-76100007D01*
X169028444Y-76130897D01*
X169086120Y-76170334D01*
X169113319Y-76234692D01*
X169101405Y-76303539D01*
X169064447Y-76348088D01*
X169060813Y-76350808D01*
X169060809Y-76350812D01*
X168974649Y-76465906D01*
X168974645Y-76465913D01*
X168924403Y-76600620D01*
X168924401Y-76600627D01*
X168918000Y-76660155D01*
X168918000Y-77220000D01*
X169737749Y-77220000D01*
X169706619Y-77273919D01*
X169672000Y-77403120D01*
X169672000Y-77536880D01*
X169706619Y-77666081D01*
X169737749Y-77720000D01*
X168918000Y-77720000D01*
X168918000Y-78279844D01*
X168924401Y-78339372D01*
X168924403Y-78339379D01*
X168974645Y-78474086D01*
X168974649Y-78474093D01*
X169060809Y-78589187D01*
X169060812Y-78589190D01*
X169064441Y-78591907D01*
X169106310Y-78647842D01*
X169111292Y-78717534D01*
X169077805Y-78778855D01*
X169028445Y-78809102D01*
X168933370Y-78839993D01*
X168933367Y-78839994D01*
X168756305Y-78930213D01*
X168595533Y-79047021D01*
X168455021Y-79187533D01*
X168338213Y-79348305D01*
X168247994Y-79525367D01*
X168247993Y-79525370D01*
X168186587Y-79714362D01*
X168155500Y-79910639D01*
X168155500Y-80109360D01*
X168186587Y-80305637D01*
X168247993Y-80494629D01*
X168247994Y-80494632D01*
X168338213Y-80671694D01*
X168455019Y-80832464D01*
X168595536Y-80972981D01*
X168756306Y-81089787D01*
X168874574Y-81150048D01*
X168912780Y-81169515D01*
X168963576Y-81217490D01*
X168980371Y-81285311D01*
X168957833Y-81351446D01*
X168912780Y-81390485D01*
X168756305Y-81470213D01*
X168595533Y-81587021D01*
X168455021Y-81727533D01*
X168338213Y-81888305D01*
X168247994Y-82065367D01*
X168247993Y-82065370D01*
X168186587Y-82254362D01*
X168155500Y-82450639D01*
X168155500Y-82649360D01*
X168186587Y-82845637D01*
X168247993Y-83034629D01*
X168247994Y-83034632D01*
X168338213Y-83211694D01*
X168455019Y-83372464D01*
X168595536Y-83512981D01*
X168756306Y-83629787D01*
X168874580Y-83690051D01*
X168912780Y-83709515D01*
X168963576Y-83757490D01*
X168980371Y-83825311D01*
X168957833Y-83891446D01*
X168912780Y-83930485D01*
X168756305Y-84010213D01*
X168595533Y-84127021D01*
X168455021Y-84267533D01*
X168338213Y-84428305D01*
X168247994Y-84605367D01*
X168247993Y-84605370D01*
X168186587Y-84794362D01*
X168155500Y-84990639D01*
X168155500Y-85189360D01*
X168186587Y-85385637D01*
X168247993Y-85574629D01*
X168247994Y-85574632D01*
X168338213Y-85751694D01*
X168455019Y-85912464D01*
X168595536Y-86052981D01*
X168756306Y-86169787D01*
X168843149Y-86214035D01*
X168933367Y-86260005D01*
X168933373Y-86260007D01*
X169027863Y-86290708D01*
X169085539Y-86330145D01*
X169112738Y-86394503D01*
X169100824Y-86463349D01*
X169063864Y-86507900D01*
X169060457Y-86510450D01*
X169060452Y-86510455D01*
X168974206Y-86625664D01*
X168974202Y-86625671D01*
X168923908Y-86760517D01*
X168917501Y-86820116D01*
X168917501Y-86820123D01*
X168917500Y-86820135D01*
X168917500Y-88439870D01*
X168917501Y-88439876D01*
X168923908Y-88499483D01*
X168974202Y-88634328D01*
X168974206Y-88634335D01*
X169060452Y-88749544D01*
X169060455Y-88749547D01*
X169175664Y-88835793D01*
X169175671Y-88835797D01*
X169310517Y-88886091D01*
X169310516Y-88886091D01*
X169317444Y-88886835D01*
X169370127Y-88892500D01*
X170989872Y-88892499D01*
X171049483Y-88886091D01*
X171184331Y-88835796D01*
X171299546Y-88749546D01*
X171385796Y-88634331D01*
X171436091Y-88499483D01*
X171442500Y-88439873D01*
X171442499Y-86820128D01*
X171436091Y-86760517D01*
X171401219Y-86667021D01*
X171385797Y-86625671D01*
X171385793Y-86625664D01*
X171299547Y-86510456D01*
X171299548Y-86510456D01*
X171299546Y-86510454D01*
X171296138Y-86507902D01*
X171293588Y-86504496D01*
X171293275Y-86504183D01*
X171293320Y-86504137D01*
X171254270Y-86451969D01*
X171249288Y-86382277D01*
X171282775Y-86320955D01*
X171332134Y-86290708D01*
X171426632Y-86260005D01*
X171603694Y-86169787D01*
X171764464Y-86052981D01*
X171904981Y-85912464D01*
X172021787Y-85751694D01*
X172112005Y-85574632D01*
X172173413Y-85385636D01*
X172204500Y-85189361D01*
X172204500Y-84990639D01*
X172173413Y-84794364D01*
X172142709Y-84699866D01*
X172112006Y-84605370D01*
X172112005Y-84605367D01*
X172021786Y-84428305D01*
X171904981Y-84267536D01*
X171764464Y-84127019D01*
X171603694Y-84010213D01*
X171447218Y-83930484D01*
X171396423Y-83882510D01*
X171379628Y-83814689D01*
X171402165Y-83748554D01*
X171447218Y-83709515D01*
X171603694Y-83629787D01*
X171764464Y-83512981D01*
X171904981Y-83372464D01*
X172021787Y-83211694D01*
X172112005Y-83034632D01*
X172173413Y-82845636D01*
X172204500Y-82649361D01*
X172204500Y-82450639D01*
X172173413Y-82254364D01*
X172112005Y-82065368D01*
X172112005Y-82065367D01*
X172021786Y-81888305D01*
X171977379Y-81827184D01*
X171904981Y-81727536D01*
X171764464Y-81587019D01*
X171603694Y-81470213D01*
X171447218Y-81390484D01*
X171396423Y-81342510D01*
X171379628Y-81274689D01*
X171402165Y-81208554D01*
X171447218Y-81169515D01*
X171603694Y-81089787D01*
X171764464Y-80972981D01*
X171904981Y-80832464D01*
X172021787Y-80671694D01*
X172112005Y-80494632D01*
X172173413Y-80305636D01*
X172204500Y-80109361D01*
X172204500Y-79910639D01*
X172173413Y-79714364D01*
X172112005Y-79525368D01*
X172112005Y-79525367D01*
X172066035Y-79435149D01*
X172021787Y-79348306D01*
X171904981Y-79187536D01*
X171764464Y-79047019D01*
X171603694Y-78930213D01*
X171426632Y-78839994D01*
X171426629Y-78839993D01*
X171331554Y-78809102D01*
X171273878Y-78769665D01*
X171246680Y-78705306D01*
X171258595Y-78636460D01*
X171295562Y-78591903D01*
X171299191Y-78589185D01*
X171385350Y-78474093D01*
X171385354Y-78474086D01*
X171435596Y-78339379D01*
X171435598Y-78339372D01*
X171441999Y-78279844D01*
X171442000Y-78279827D01*
X171442000Y-77720000D01*
X170622251Y-77720000D01*
X170653381Y-77666081D01*
X170688000Y-77536880D01*
X170688000Y-77403120D01*
X170653381Y-77273919D01*
X170622251Y-77220000D01*
X171442000Y-77220000D01*
X171442000Y-76660172D01*
X171441999Y-76660155D01*
X171435598Y-76600627D01*
X171435596Y-76600620D01*
X171385354Y-76465913D01*
X171385350Y-76465906D01*
X171299190Y-76350812D01*
X171299188Y-76350810D01*
X171295556Y-76348091D01*
X171253688Y-76292156D01*
X171248707Y-76222464D01*
X171282195Y-76161142D01*
X171331555Y-76130897D01*
X171426626Y-76100007D01*
X171426632Y-76100005D01*
X171603694Y-76009787D01*
X171764464Y-75892981D01*
X171904981Y-75752464D01*
X172021787Y-75591694D01*
X172112005Y-75414632D01*
X172173413Y-75225636D01*
X172204500Y-75029361D01*
X172204500Y-74830639D01*
X172173413Y-74634364D01*
X172119383Y-74468075D01*
X172112006Y-74445370D01*
X172112005Y-74445367D01*
X172044430Y-74312745D01*
X172021787Y-74268306D01*
X171904981Y-74107536D01*
X171764464Y-73967019D01*
X171603694Y-73850213D01*
X171447218Y-73770484D01*
X171396423Y-73722510D01*
X171379628Y-73654689D01*
X171402165Y-73588554D01*
X171447218Y-73549515D01*
X171603694Y-73469787D01*
X171764464Y-73352981D01*
X171904981Y-73212464D01*
X172021787Y-73051694D01*
X172112005Y-72874632D01*
X172173413Y-72685636D01*
X172204500Y-72489361D01*
X172204500Y-72290639D01*
X172173413Y-72094364D01*
X172112005Y-71905368D01*
X172112005Y-71905367D01*
X172021786Y-71728305D01*
X171904981Y-71567536D01*
X171764464Y-71427019D01*
X171603694Y-71310213D01*
X171447218Y-71230484D01*
X171396423Y-71182510D01*
X171379628Y-71114689D01*
X171402165Y-71048554D01*
X171447218Y-71009515D01*
X171603694Y-70929787D01*
X171764464Y-70812981D01*
X171904981Y-70672464D01*
X172021787Y-70511694D01*
X172112005Y-70334632D01*
X172173413Y-70145636D01*
X172204500Y-69949361D01*
X172204500Y-69750639D01*
X172173413Y-69554364D01*
X172112005Y-69365368D01*
X172112005Y-69365367D01*
X172021786Y-69188305D01*
X171904981Y-69027536D01*
X171764464Y-68887019D01*
X171603694Y-68770213D01*
X171426632Y-68679994D01*
X171426629Y-68679993D01*
X171237637Y-68618587D01*
X171139498Y-68603043D01*
X171041361Y-68587500D01*
X169318639Y-68587500D01*
X169253214Y-68597862D01*
X169122362Y-68618587D01*
X168933370Y-68679993D01*
X168933367Y-68679994D01*
X168756305Y-68770213D01*
X168595533Y-68887021D01*
X168455021Y-69027533D01*
X168338213Y-69188305D01*
X168247994Y-69365367D01*
X168247993Y-69365370D01*
X168186587Y-69554362D01*
X168155500Y-69750639D01*
X149344500Y-69750639D01*
X149313413Y-69554364D01*
X149252005Y-69365368D01*
X149252005Y-69365367D01*
X149161786Y-69188305D01*
X149044981Y-69027536D01*
X148904464Y-68887019D01*
X148743694Y-68770213D01*
X148566632Y-68679994D01*
X148566629Y-68679993D01*
X148377637Y-68618587D01*
X148279498Y-68603043D01*
X148181361Y-68587500D01*
X146458639Y-68587500D01*
X146393214Y-68597862D01*
X146262362Y-68618587D01*
X146073370Y-68679993D01*
X146073367Y-68679994D01*
X145896305Y-68770213D01*
X145735533Y-68887021D01*
X145595021Y-69027533D01*
X145478213Y-69188305D01*
X145387994Y-69365367D01*
X145387993Y-69365370D01*
X145326587Y-69554362D01*
X145295500Y-69750639D01*
X145295500Y-69949360D01*
X145326587Y-70145637D01*
X145387993Y-70334629D01*
X145387994Y-70334632D01*
X145478213Y-70511694D01*
X145595019Y-70672464D01*
X145735536Y-70812981D01*
X145896306Y-70929787D01*
X145983149Y-70974035D01*
X146073367Y-71020005D01*
X146073373Y-71020007D01*
X146168444Y-71050897D01*
X146226120Y-71090334D01*
X146253319Y-71154692D01*
X146241405Y-71223539D01*
X146204447Y-71268088D01*
X146200813Y-71270808D01*
X146200809Y-71270812D01*
X146114649Y-71385906D01*
X146114645Y-71385913D01*
X146064403Y-71520620D01*
X146064401Y-71520627D01*
X146058000Y-71580155D01*
X146058000Y-72140000D01*
X146877749Y-72140000D01*
X146846619Y-72193919D01*
X146812000Y-72323120D01*
X146812000Y-72456880D01*
X146846619Y-72586081D01*
X146877749Y-72640000D01*
X146058000Y-72640000D01*
X146058000Y-73199844D01*
X146064401Y-73259372D01*
X146064403Y-73259379D01*
X146114645Y-73394086D01*
X146114649Y-73394093D01*
X146200809Y-73509187D01*
X146200812Y-73509190D01*
X146204441Y-73511907D01*
X146246310Y-73567842D01*
X146251292Y-73637534D01*
X146217805Y-73698855D01*
X146168445Y-73729102D01*
X146073370Y-73759993D01*
X146073367Y-73759994D01*
X145896305Y-73850213D01*
X145735533Y-73967021D01*
X145595021Y-74107533D01*
X145478213Y-74268305D01*
X145387994Y-74445367D01*
X145387993Y-74445370D01*
X145326587Y-74634362D01*
X145326587Y-74634364D01*
X145295500Y-74830639D01*
X145295500Y-75029361D01*
X145299982Y-75057661D01*
X145326587Y-75225637D01*
X145387993Y-75414629D01*
X145387994Y-75414632D01*
X145478213Y-75591694D01*
X145595019Y-75752464D01*
X145735536Y-75892981D01*
X145896306Y-76009787D01*
X145998907Y-76062065D01*
X146052780Y-76089515D01*
X146103576Y-76137490D01*
X146120371Y-76205311D01*
X146097833Y-76271446D01*
X146052780Y-76310485D01*
X145896305Y-76390213D01*
X145735533Y-76507021D01*
X145595021Y-76647533D01*
X145478213Y-76808305D01*
X145387994Y-76985367D01*
X145387993Y-76985370D01*
X145326587Y-77174362D01*
X145295500Y-77370639D01*
X145295500Y-77569360D01*
X145326587Y-77765637D01*
X145387993Y-77954629D01*
X145387994Y-77954632D01*
X145464805Y-78105379D01*
X145478213Y-78131694D01*
X145595019Y-78292464D01*
X145735536Y-78432981D01*
X145896306Y-78549787D01*
X145978963Y-78591903D01*
X146052780Y-78629515D01*
X146103576Y-78677490D01*
X146120371Y-78745311D01*
X146097833Y-78811446D01*
X146052780Y-78850485D01*
X145896305Y-78930213D01*
X145735533Y-79047021D01*
X145595021Y-79187533D01*
X145478213Y-79348305D01*
X145387994Y-79525367D01*
X145387993Y-79525370D01*
X145326587Y-79714362D01*
X145295500Y-79910639D01*
X145295500Y-80109360D01*
X145326587Y-80305637D01*
X145387993Y-80494629D01*
X145387994Y-80494632D01*
X145478213Y-80671694D01*
X145595019Y-80832464D01*
X145735536Y-80972981D01*
X145896306Y-81089787D01*
X146014574Y-81150048D01*
X146052780Y-81169515D01*
X146103576Y-81217490D01*
X146120371Y-81285311D01*
X146097833Y-81351446D01*
X146052780Y-81390485D01*
X145896305Y-81470213D01*
X145735533Y-81587021D01*
X145641874Y-81680681D01*
X145580551Y-81714166D01*
X145554193Y-81717000D01*
X143886180Y-81717000D01*
X143819141Y-81697315D01*
X143785863Y-81665887D01*
X143783382Y-81662472D01*
X143778104Y-81655208D01*
X143627792Y-81504896D01*
X143627786Y-81504890D01*
X143455820Y-81379951D01*
X143455115Y-81379591D01*
X143447054Y-81375485D01*
X143396259Y-81327512D01*
X143379463Y-81259692D01*
X143401999Y-81193556D01*
X143447054Y-81154515D01*
X143455816Y-81150051D01*
X143538763Y-81089787D01*
X143627786Y-81025109D01*
X143627788Y-81025106D01*
X143627792Y-81025104D01*
X143778104Y-80874792D01*
X143778106Y-80874788D01*
X143778109Y-80874786D01*
X143903048Y-80702820D01*
X143903047Y-80702820D01*
X143903051Y-80702816D01*
X143999557Y-80513412D01*
X144065246Y-80311243D01*
X144098500Y-80101287D01*
X144098500Y-79888713D01*
X144065246Y-79678757D01*
X143999557Y-79476588D01*
X143903051Y-79287184D01*
X143903049Y-79287181D01*
X143903048Y-79287179D01*
X143778109Y-79115213D01*
X143627786Y-78964890D01*
X143455820Y-78839951D01*
X143266414Y-78743444D01*
X143266413Y-78743443D01*
X143266412Y-78743443D01*
X143064243Y-78677754D01*
X143064241Y-78677753D01*
X143064240Y-78677753D01*
X142875387Y-78647842D01*
X142854287Y-78644500D01*
X142641713Y-78644500D01*
X142620613Y-78647842D01*
X142431760Y-78677753D01*
X142229585Y-78743444D01*
X142040179Y-78839951D01*
X141868213Y-78964890D01*
X141717890Y-79115213D01*
X141592951Y-79287179D01*
X141496444Y-79476585D01*
X141430753Y-79678760D01*
X141397500Y-79888713D01*
X140200500Y-79888713D01*
X140200500Y-75336992D01*
X140989500Y-75336992D01*
X140989500Y-75539007D01*
X141028907Y-75737119D01*
X141028909Y-75737127D01*
X141106213Y-75923755D01*
X141159904Y-76004109D01*
X141180782Y-76070787D01*
X141162297Y-76138167D01*
X141159904Y-76141891D01*
X141106213Y-76222244D01*
X141028909Y-76408872D01*
X141028907Y-76408880D01*
X140989500Y-76606992D01*
X140989500Y-76809007D01*
X141028907Y-77007119D01*
X141028909Y-77007127D01*
X141106212Y-77193752D01*
X141106217Y-77193762D01*
X141218441Y-77361718D01*
X141361281Y-77504558D01*
X141529237Y-77616782D01*
X141529241Y-77616784D01*
X141529244Y-77616786D01*
X141715873Y-77694091D01*
X141913992Y-77733499D01*
X141913996Y-77733500D01*
X141913997Y-77733500D01*
X142566004Y-77733500D01*
X142566005Y-77733499D01*
X142764127Y-77694091D01*
X142950756Y-77616786D01*
X143118718Y-77504558D01*
X143261558Y-77361718D01*
X143373786Y-77193756D01*
X143451091Y-77007127D01*
X143490500Y-76809003D01*
X143490500Y-76606997D01*
X143451091Y-76408873D01*
X143373786Y-76222244D01*
X143320094Y-76141889D01*
X143299217Y-76075214D01*
X143317701Y-76007834D01*
X143320078Y-76004134D01*
X143373786Y-75923756D01*
X143451091Y-75737127D01*
X143490500Y-75539003D01*
X143490500Y-75336997D01*
X143451091Y-75138873D01*
X143417451Y-75057661D01*
X143409983Y-74988194D01*
X143429592Y-74943144D01*
X143429101Y-74942876D01*
X143432102Y-74937379D01*
X143432748Y-74935896D01*
X143433352Y-74935089D01*
X143483597Y-74800376D01*
X143483598Y-74800372D01*
X143489999Y-74740844D01*
X143490000Y-74740827D01*
X143490000Y-74418000D01*
X142605866Y-74418000D01*
X142581674Y-74415617D01*
X142566004Y-74412500D01*
X142566003Y-74412500D01*
X142525830Y-74412500D01*
X142540075Y-74398255D01*
X142589444Y-74312745D01*
X142615000Y-74217370D01*
X142615000Y-74118630D01*
X142589444Y-74023255D01*
X142540075Y-73937745D01*
X142520330Y-73918000D01*
X143490000Y-73918000D01*
X143490000Y-73595172D01*
X143489999Y-73595155D01*
X143483598Y-73535627D01*
X143483596Y-73535620D01*
X143433354Y-73400913D01*
X143433350Y-73400906D01*
X143347190Y-73285812D01*
X143347187Y-73285809D01*
X143232093Y-73199649D01*
X143232086Y-73199645D01*
X143097379Y-73149403D01*
X143097372Y-73149401D01*
X143037844Y-73143000D01*
X142490000Y-73143000D01*
X142490000Y-73887670D01*
X142470255Y-73867925D01*
X142384745Y-73818556D01*
X142289370Y-73793000D01*
X142190630Y-73793000D01*
X142095255Y-73818556D01*
X142009745Y-73867925D01*
X141990000Y-73887670D01*
X141990000Y-73143000D01*
X141442155Y-73143000D01*
X141382627Y-73149401D01*
X141382620Y-73149403D01*
X141247913Y-73199645D01*
X141247906Y-73199649D01*
X141132812Y-73285809D01*
X141132809Y-73285812D01*
X141046649Y-73400906D01*
X141046645Y-73400913D01*
X140996403Y-73535620D01*
X140996401Y-73535627D01*
X140990000Y-73595155D01*
X140990000Y-73918000D01*
X141959670Y-73918000D01*
X141939925Y-73937745D01*
X141890556Y-74023255D01*
X141865000Y-74118630D01*
X141865000Y-74217370D01*
X141890556Y-74312745D01*
X141939925Y-74398255D01*
X141954170Y-74412500D01*
X141913997Y-74412500D01*
X141913996Y-74412500D01*
X141898326Y-74415617D01*
X141874134Y-74418000D01*
X140990000Y-74418000D01*
X140990000Y-74740844D01*
X140996401Y-74800372D01*
X140996403Y-74800379D01*
X141046645Y-74935086D01*
X141047251Y-74935895D01*
X141047604Y-74936841D01*
X141050897Y-74942872D01*
X141050030Y-74943345D01*
X141071670Y-75001359D01*
X141062547Y-75057661D01*
X141028910Y-75138868D01*
X141028907Y-75138880D01*
X140989500Y-75336992D01*
X140200500Y-75336992D01*
X140200500Y-65933713D01*
X140889500Y-65933713D01*
X140889500Y-66146286D01*
X140922753Y-66356239D01*
X140988444Y-66558414D01*
X141084951Y-66747820D01*
X141209890Y-66919786D01*
X141360213Y-67070109D01*
X141532179Y-67195048D01*
X141532181Y-67195049D01*
X141532184Y-67195051D01*
X141721588Y-67291557D01*
X141923757Y-67357246D01*
X142133713Y-67390500D01*
X142133714Y-67390500D01*
X142346286Y-67390500D01*
X142346287Y-67390500D01*
X142556243Y-67357246D01*
X142758412Y-67291557D01*
X142947816Y-67195051D01*
X142969789Y-67179086D01*
X143119786Y-67070109D01*
X143119788Y-67070106D01*
X143119792Y-67070104D01*
X143270104Y-66919792D01*
X143270106Y-66919788D01*
X143270109Y-66919786D01*
X143395048Y-66747820D01*
X143395047Y-66747820D01*
X143395051Y-66747816D01*
X143491557Y-66558412D01*
X143557246Y-66356243D01*
X143590500Y-66146287D01*
X143590500Y-65933713D01*
X173909500Y-65933713D01*
X173909500Y-66146286D01*
X173942753Y-66356239D01*
X174008444Y-66558414D01*
X174104951Y-66747820D01*
X174229890Y-66919786D01*
X174380213Y-67070109D01*
X174552179Y-67195048D01*
X174552181Y-67195049D01*
X174552184Y-67195051D01*
X174741588Y-67291557D01*
X174943757Y-67357246D01*
X175153713Y-67390500D01*
X175153714Y-67390500D01*
X175366286Y-67390500D01*
X175366287Y-67390500D01*
X175576243Y-67357246D01*
X175778412Y-67291557D01*
X175967816Y-67195051D01*
X175989789Y-67179086D01*
X176139786Y-67070109D01*
X176139788Y-67070106D01*
X176139792Y-67070104D01*
X176290104Y-66919792D01*
X176290106Y-66919788D01*
X176290109Y-66919786D01*
X176415048Y-66747820D01*
X176415047Y-66747820D01*
X176415051Y-66747816D01*
X176511557Y-66558412D01*
X176577246Y-66356243D01*
X176610500Y-66146287D01*
X176610500Y-65933713D01*
X176577246Y-65723757D01*
X176511557Y-65521588D01*
X176415051Y-65332184D01*
X176415049Y-65332181D01*
X176415048Y-65332179D01*
X176290109Y-65160213D01*
X176139786Y-65009890D01*
X175967820Y-64884951D01*
X175778414Y-64788444D01*
X175778413Y-64788443D01*
X175778412Y-64788443D01*
X175576243Y-64722754D01*
X175576241Y-64722753D01*
X175576240Y-64722753D01*
X175414957Y-64697208D01*
X175366287Y-64689500D01*
X175153713Y-64689500D01*
X175105042Y-64697208D01*
X174943760Y-64722753D01*
X174741585Y-64788444D01*
X174552179Y-64884951D01*
X174380213Y-65009890D01*
X174229890Y-65160213D01*
X174104951Y-65332179D01*
X174008444Y-65521585D01*
X173942753Y-65723760D01*
X173909500Y-65933713D01*
X143590500Y-65933713D01*
X143557246Y-65723757D01*
X143491557Y-65521588D01*
X143395051Y-65332184D01*
X143395049Y-65332181D01*
X143395048Y-65332179D01*
X143270109Y-65160213D01*
X143119786Y-65009890D01*
X142947820Y-64884951D01*
X142758414Y-64788444D01*
X142758413Y-64788443D01*
X142758412Y-64788443D01*
X142556243Y-64722754D01*
X142556241Y-64722753D01*
X142556240Y-64722753D01*
X142394957Y-64697208D01*
X142346287Y-64689500D01*
X142133713Y-64689500D01*
X142085042Y-64697208D01*
X141923760Y-64722753D01*
X141721585Y-64788444D01*
X141532179Y-64884951D01*
X141360213Y-65009890D01*
X141209890Y-65160213D01*
X141084951Y-65332179D01*
X140988444Y-65521585D01*
X140922753Y-65723760D01*
X140889500Y-65933713D01*
X140200500Y-65933713D01*
X140200500Y-65092912D01*
X140200972Y-65082105D01*
X140216068Y-64909554D01*
X140216068Y-64909553D01*
X140219821Y-64888268D01*
X140220710Y-64884949D01*
X140263248Y-64726193D01*
X140270635Y-64705899D01*
X140341545Y-64553830D01*
X140352351Y-64535115D01*
X140448594Y-64397666D01*
X140462478Y-64381121D01*
X140581121Y-64262478D01*
X140597666Y-64248594D01*
X140735118Y-64152349D01*
X140753830Y-64141545D01*
X140905899Y-64070635D01*
X140926193Y-64063248D01*
X141088268Y-64019820D01*
X141109551Y-64016068D01*
X141282105Y-64000971D01*
X141292912Y-64000500D01*
X141353392Y-64000500D01*
X176146608Y-64000500D01*
X176207088Y-64000500D01*
X176217894Y-64000971D01*
G37*
%TD.AperFunction*%
%TD*%
M02*
