%TF.GenerationSoftware,KiCad,Pcbnew,9.0.0*%
%TF.CreationDate,2025-08-24T16:33:36-07:00*%
%TF.ProjectId,sstv_backpack,73737476-5f62-4616-936b-7061636b2e6b,1.0*%
%TF.SameCoordinates,Original*%
%TF.FileFunction,Copper,L1,Top*%
%TF.FilePolarity,Positive*%
%FSLAX46Y46*%
G04 Gerber Fmt 4.6, Leading zero omitted, Abs format (unit mm)*
G04 Created by KiCad (PCBNEW 9.0.0) date 2025-08-24 16:33:36*
%MOMM*%
%LPD*%
G01*
G04 APERTURE LIST*
G04 Aperture macros list*
%AMRoundRect*
0 Rectangle with rounded corners*
0 $1 Rounding radius*
0 $2 $3 $4 $5 $6 $7 $8 $9 X,Y pos of 4 corners*
0 Add a 4 corners polygon primitive as box body*
4,1,4,$2,$3,$4,$5,$6,$7,$8,$9,$2,$3,0*
0 Add four circle primitives for the rounded corners*
1,1,$1+$1,$2,$3*
1,1,$1+$1,$4,$5*
1,1,$1+$1,$6,$7*
1,1,$1+$1,$8,$9*
0 Add four rect primitives between the rounded corners*
20,1,$1+$1,$2,$3,$4,$5,0*
20,1,$1+$1,$4,$5,$6,$7,0*
20,1,$1+$1,$6,$7,$8,$9,0*
20,1,$1+$1,$8,$9,$2,$3,0*%
G04 Aperture macros list end*
%TA.AperFunction,SMDPad,CuDef*%
%ADD10RoundRect,0.250000X1.125000X-1.275000X1.125000X1.275000X-1.125000X1.275000X-1.125000X-1.275000X0*%
%TD*%
%TA.AperFunction,SMDPad,CuDef*%
%ADD11RoundRect,0.249997X2.650003X-2.950003X2.650003X2.950003X-2.650003X2.950003X-2.650003X-2.950003X0*%
%TD*%
%TA.AperFunction,SMDPad,CuDef*%
%ADD12RoundRect,0.250000X0.350000X-0.850000X0.350000X0.850000X-0.350000X0.850000X-0.350000X-0.850000X0*%
%TD*%
%TA.AperFunction,ComponentPad*%
%ADD13C,1.600000*%
%TD*%
%TA.AperFunction,ComponentPad*%
%ADD14O,1.600000X1.600000*%
%TD*%
%TA.AperFunction,ComponentPad*%
%ADD15C,2.000000*%
%TD*%
%TA.AperFunction,ComponentPad*%
%ADD16R,2.000000X2.000000*%
%TD*%
%TA.AperFunction,ComponentPad*%
%ADD17O,2.600000X1.300000*%
%TD*%
%TA.AperFunction,ComponentPad*%
%ADD18R,1.524000X1.524000*%
%TD*%
%TA.AperFunction,ComponentPad*%
%ADD19O,3.048000X1.524000*%
%TD*%
%TA.AperFunction,SMDPad,CuDef*%
%ADD20R,2.000000X1.500000*%
%TD*%
%TA.AperFunction,ComponentPad*%
%ADD21O,1.700000X1.700000*%
%TD*%
%TA.AperFunction,ComponentPad*%
%ADD22R,1.700000X1.700000*%
%TD*%
%TA.AperFunction,ViaPad*%
%ADD23C,1.016000*%
%TD*%
%TA.AperFunction,Conductor*%
%ADD24C,0.889000*%
%TD*%
%TA.AperFunction,Conductor*%
%ADD25C,0.635000*%
%TD*%
G04 APERTURE END LIST*
D10*
%TO.P,VR1,2,GND*%
%TO.N,GND*%
X160275000Y-90585000D03*
X157225000Y-87235000D03*
X160275000Y-87235000D03*
D11*
X158750000Y-88910000D03*
D10*
X157225000Y-90585000D03*
D12*
%TO.P,VR1,1,OUT*%
%TO.N,+5V*%
X156470000Y-95210000D03*
%TO.P,VR1,3,IN*%
%TO.N,/8V IN*%
X161030000Y-95210000D03*
%TD*%
D13*
%TO.P,C1,2*%
%TO.N,GND*%
X153162000Y-90464000D03*
%TO.P,C1,1*%
%TO.N,+5V*%
X153162000Y-95464000D03*
%TD*%
D14*
%TO.P,R1,2*%
%TO.N,GND*%
X161798000Y-104140000D03*
D13*
%TO.P,R1,1*%
%TO.N,/CAPTURE*%
X169418000Y-104140000D03*
%TD*%
D15*
%TO.P,BZ1,2,-*%
%TO.N,GND*%
X162560000Y-74676000D03*
D16*
%TO.P,BZ1,1,+*%
%TO.N,/BUZZER*%
X154960000Y-74676000D03*
%TD*%
D13*
%TO.P,C2,2*%
%TO.N,GND*%
X164338000Y-90464000D03*
%TO.P,C2,1*%
%TO.N,/8V IN*%
X164338000Y-95464000D03*
%TD*%
D17*
%TO.P,SW2,3*%
%TO.N,unconnected-(SW2-Pad3)*%
X148844000Y-118620000D03*
%TO.P,SW2,2*%
%TO.N,/VIN*%
X148844000Y-113920000D03*
%TO.P,SW2,1*%
%TO.N,/8V IN*%
X148844000Y-109220000D03*
%TD*%
D18*
%TO.P,U1,P$5,GND@2*%
%TO.N,GND*%
X170180000Y-77470000D03*
%TO.P,U1,P$10,GND@3*%
X147320000Y-72390000D03*
%TO.P,U1,P$1,GND@1*%
X170180000Y-87630000D03*
D19*
%TO.P,U1,P$9,5V*%
%TO.N,+5V*%
X147320000Y-69850000D03*
%TO.P,U1,P$16,GPIO4*%
%TO.N,unconnected-(U1-GPIO4-PadP$16)*%
X147320000Y-87630000D03*
%TO.P,U1,P$15,GPIO2*%
%TO.N,unconnected-(U1-GPIO2-PadP$15)*%
X147320000Y-85090000D03*
%TO.P,U1,P$14,GPIO14*%
%TO.N,/TX OUT*%
X147320000Y-82550000D03*
%TO.P,U1,P$13,GPIO15*%
%TO.N,/PTT*%
X147320000Y-80010000D03*
%TO.P,U1,P$12,GPIO13*%
%TO.N,/BUZZER*%
X147320000Y-77470000D03*
%TO.P,U1,P$11,GPIO12*%
%TO.N,/CAPTURE*%
X147320000Y-74930000D03*
%TO.P,U1,P$8,3V3*%
%TO.N,unconnected-(U1-3V3-PadP$8)*%
X170180000Y-69850000D03*
%TO.P,U1,P$7,GPIO16*%
%TO.N,unconnected-(U1-GPIO16-PadP$7)*%
X170180000Y-72390000D03*
%TO.P,U1,P$6,GPIO0*%
%TO.N,unconnected-(U1-GPIO0-PadP$6)*%
X170180000Y-74930000D03*
%TO.P,U1,P$4,3V3/5V*%
%TO.N,unconnected-(U1-3V3{slash}5V-PadP$4)*%
X170180000Y-80010000D03*
%TO.P,U1,P$3,GPIO3*%
%TO.N,unconnected-(U1-GPIO3-PadP$3)*%
X170180000Y-82550000D03*
%TO.P,U1,P$2,GPIO1*%
%TO.N,unconnected-(U1-GPIO1-PadP$2)*%
X170180000Y-85090000D03*
%TD*%
D20*
%TO.P,SW1,2,2*%
%TO.N,+5V*%
X156896000Y-116332000D03*
X171196000Y-116332000D03*
%TO.P,SW1,1,1*%
%TO.N,/CAPTURE*%
X156896000Y-111332000D03*
X171196000Y-111332000D03*
%TD*%
D21*
%TO.P,J1,3,Pin_3*%
%TO.N,GND*%
X142748000Y-85090000D03*
%TO.P,J1,2,Pin_2*%
%TO.N,/TX OUT*%
X142748000Y-82550000D03*
D22*
%TO.P,J1,1,Pin_1*%
%TO.N,/PTT*%
X142748000Y-80010000D03*
%TD*%
D21*
%TO.P,BAT IN,2,Pin_2*%
%TO.N,GND*%
X160020000Y-124460000D03*
D22*
%TO.P,BAT IN,1,Pin_1*%
%TO.N,/VIN*%
X157480000Y-124460000D03*
%TD*%
D23*
%TO.N,GND*%
X158750000Y-88910000D03*
X160275000Y-90585000D03*
X158750000Y-88910000D03*
X160275000Y-87235000D03*
X157225000Y-87235000D03*
%TO.N,/CAPTURE*%
X156972000Y-108966000D03*
%TO.N,+5V*%
X161290000Y-114554000D03*
%TD*%
D24*
%TO.N,+5V*%
X161290000Y-114554000D02*
X163068000Y-116332000D01*
X156896000Y-116332000D02*
X163068000Y-116332000D01*
X163068000Y-116332000D02*
X171196000Y-116332000D01*
X153162000Y-95464000D02*
X156216000Y-95464000D01*
X156216000Y-95464000D02*
X156470000Y-95210000D01*
D25*
%TO.N,/CAPTURE*%
X156896000Y-111332000D02*
X159338000Y-111332000D01*
X159338000Y-111332000D02*
X171196000Y-111332000D01*
X156972000Y-108966000D02*
X159338000Y-111332000D01*
D24*
%TO.N,/8V IN*%
X161030000Y-96526000D02*
X161030000Y-95210000D01*
X149860000Y-109220000D02*
X158750000Y-100330000D01*
X158750000Y-100330000D02*
X158750000Y-98806000D01*
X148844000Y-109220000D02*
X149860000Y-109220000D01*
X158750000Y-98806000D02*
X161030000Y-96526000D01*
D25*
%TO.N,/BUZZER*%
X152166000Y-77470000D02*
X154960000Y-74676000D01*
X147320000Y-77470000D02*
X152166000Y-77470000D01*
%TO.N,/CAPTURE*%
X169672000Y-104140000D02*
X169418000Y-104140000D01*
X171196000Y-105664000D02*
X169672000Y-104140000D01*
X171196000Y-111332000D02*
X171196000Y-105664000D01*
D24*
%TO.N,/VIN*%
X152908000Y-119888000D02*
X152908000Y-116332000D01*
X157480000Y-124460000D02*
X152908000Y-119888000D01*
X152908000Y-116332000D02*
X150496000Y-113920000D01*
X150496000Y-113920000D02*
X148844000Y-113920000D01*
%TO.N,/8V IN*%
X161284000Y-95464000D02*
X161030000Y-95210000D01*
X164338000Y-95464000D02*
X161284000Y-95464000D01*
D25*
%TO.N,/TX OUT*%
X142748000Y-82550000D02*
X147320000Y-82550000D01*
%TO.N,/PTT*%
X142748000Y-80010000D02*
X147320000Y-80010000D01*
%TD*%
%TA.AperFunction,Conductor*%
%TO.N,GND*%
G36*
X176217894Y-64000971D02*
G01*
X176390446Y-64016068D01*
X176411731Y-64019821D01*
X176468954Y-64035153D01*
X176573802Y-64063247D01*
X176594103Y-64070636D01*
X176722120Y-64130331D01*
X176746165Y-64141544D01*
X176764884Y-64152351D01*
X176902327Y-64248590D01*
X176918884Y-64262484D01*
X177037515Y-64381115D01*
X177051409Y-64397672D01*
X177147648Y-64535115D01*
X177158455Y-64553834D01*
X177229360Y-64705889D01*
X177236753Y-64726201D01*
X177280178Y-64888268D01*
X177283931Y-64909553D01*
X177299028Y-65082104D01*
X177299500Y-65092912D01*
X177299500Y-125407087D01*
X177299028Y-125417894D01*
X177299028Y-125417895D01*
X177283931Y-125590446D01*
X177280178Y-125611731D01*
X177236753Y-125773798D01*
X177229360Y-125794110D01*
X177158455Y-125946165D01*
X177147648Y-125964884D01*
X177051409Y-126102327D01*
X177037515Y-126118884D01*
X176918884Y-126237515D01*
X176902327Y-126251409D01*
X176764884Y-126347648D01*
X176746165Y-126358455D01*
X176594110Y-126429360D01*
X176573798Y-126436753D01*
X176411731Y-126480178D01*
X176390446Y-126483931D01*
X176236074Y-126497437D01*
X176217893Y-126499028D01*
X176207088Y-126499500D01*
X141292912Y-126499500D01*
X141282106Y-126499028D01*
X141261813Y-126497252D01*
X141109553Y-126483931D01*
X141088268Y-126480178D01*
X140926201Y-126436753D01*
X140905889Y-126429360D01*
X140753834Y-126358455D01*
X140735115Y-126347648D01*
X140597672Y-126251409D01*
X140581115Y-126237515D01*
X140462484Y-126118884D01*
X140448590Y-126102327D01*
X140352351Y-125964884D01*
X140341544Y-125946165D01*
X140278282Y-125810500D01*
X140270636Y-125794103D01*
X140263246Y-125773798D01*
X140219821Y-125611731D01*
X140216068Y-125590445D01*
X140200972Y-125417894D01*
X140200500Y-125407087D01*
X140200500Y-124343947D01*
X140469500Y-124343947D01*
X140469500Y-124576052D01*
X140499794Y-124806148D01*
X140559862Y-125030328D01*
X140648677Y-125244745D01*
X140648685Y-125244762D01*
X140764720Y-125445743D01*
X140764721Y-125445745D01*
X140906009Y-125629875D01*
X140906015Y-125629882D01*
X141070117Y-125793984D01*
X141070124Y-125793990D01*
X141254254Y-125935278D01*
X141254256Y-125935279D01*
X141455237Y-126051314D01*
X141455240Y-126051315D01*
X141455248Y-126051320D01*
X141669670Y-126140137D01*
X141893851Y-126200206D01*
X142123955Y-126230500D01*
X142123962Y-126230500D01*
X142356038Y-126230500D01*
X142356045Y-126230500D01*
X142586149Y-126200206D01*
X142810330Y-126140137D01*
X143024752Y-126051320D01*
X143225748Y-125935276D01*
X143409877Y-125793989D01*
X143573989Y-125629877D01*
X143715276Y-125445748D01*
X143831320Y-125244752D01*
X143920137Y-125030330D01*
X143980206Y-124806149D01*
X144010500Y-124576045D01*
X144010500Y-124343955D01*
X143980206Y-124113851D01*
X143920137Y-123889670D01*
X143831320Y-123675248D01*
X143774846Y-123577431D01*
X143715279Y-123474256D01*
X143715278Y-123474254D01*
X143573990Y-123290124D01*
X143573984Y-123290117D01*
X143409882Y-123126015D01*
X143409875Y-123126009D01*
X143225745Y-122984721D01*
X143225743Y-122984720D01*
X143024762Y-122868685D01*
X143024754Y-122868681D01*
X143024752Y-122868680D01*
X142810330Y-122779863D01*
X142810331Y-122779863D01*
X142810328Y-122779862D01*
X142668203Y-122741780D01*
X142586149Y-122719794D01*
X142557386Y-122716007D01*
X142356052Y-122689500D01*
X142356045Y-122689500D01*
X142123955Y-122689500D01*
X142123947Y-122689500D01*
X141893851Y-122719794D01*
X141669671Y-122779862D01*
X141455254Y-122868677D01*
X141455237Y-122868685D01*
X141254256Y-122984720D01*
X141254254Y-122984721D01*
X141070124Y-123126009D01*
X141070117Y-123126015D01*
X140906015Y-123290117D01*
X140906009Y-123290124D01*
X140764721Y-123474254D01*
X140764720Y-123474256D01*
X140648685Y-123675237D01*
X140648677Y-123675254D01*
X140559862Y-123889671D01*
X140499794Y-124113851D01*
X140469500Y-124343947D01*
X140200500Y-124343947D01*
X140200500Y-118529448D01*
X147043500Y-118529448D01*
X147043500Y-118710551D01*
X147071829Y-118889410D01*
X147127787Y-119061636D01*
X147127788Y-119061639D01*
X147210006Y-119222997D01*
X147316441Y-119369494D01*
X147316445Y-119369499D01*
X147444500Y-119497554D01*
X147444505Y-119497558D01*
X147561419Y-119582500D01*
X147591006Y-119603996D01*
X147696484Y-119657740D01*
X147752360Y-119686211D01*
X147752363Y-119686212D01*
X147838476Y-119714191D01*
X147924591Y-119742171D01*
X148007429Y-119755291D01*
X148103449Y-119770500D01*
X148103454Y-119770500D01*
X149584551Y-119770500D01*
X149671259Y-119756765D01*
X149763409Y-119742171D01*
X149935639Y-119686211D01*
X150096994Y-119603996D01*
X150243501Y-119497553D01*
X150371553Y-119369501D01*
X150477996Y-119222994D01*
X150560211Y-119061639D01*
X150616171Y-118889409D01*
X150630765Y-118797259D01*
X150644500Y-118710551D01*
X150644500Y-118529448D01*
X150628019Y-118425397D01*
X150616171Y-118350591D01*
X150588191Y-118264476D01*
X150560212Y-118178363D01*
X150560211Y-118178360D01*
X150531740Y-118122484D01*
X150477996Y-118017006D01*
X150464396Y-117998287D01*
X150371558Y-117870505D01*
X150371554Y-117870500D01*
X150243499Y-117742445D01*
X150243494Y-117742441D01*
X150096997Y-117636006D01*
X150096996Y-117636005D01*
X150096994Y-117636004D01*
X150045300Y-117609664D01*
X149935639Y-117553788D01*
X149935636Y-117553787D01*
X149763410Y-117497829D01*
X149584551Y-117469500D01*
X149584546Y-117469500D01*
X148103454Y-117469500D01*
X148103449Y-117469500D01*
X147924589Y-117497829D01*
X147752363Y-117553787D01*
X147752360Y-117553788D01*
X147591002Y-117636006D01*
X147444505Y-117742441D01*
X147444500Y-117742445D01*
X147316445Y-117870500D01*
X147316441Y-117870505D01*
X147210006Y-118017002D01*
X147127788Y-118178360D01*
X147127787Y-118178363D01*
X147071829Y-118350589D01*
X147043500Y-118529448D01*
X140200500Y-118529448D01*
X140200500Y-113829448D01*
X147043500Y-113829448D01*
X147043500Y-114010551D01*
X147071829Y-114189410D01*
X147127787Y-114361636D01*
X147127788Y-114361639D01*
X147210006Y-114522997D01*
X147316441Y-114669494D01*
X147316445Y-114669499D01*
X147444500Y-114797554D01*
X147444505Y-114797558D01*
X147514155Y-114848161D01*
X147591006Y-114903996D01*
X147666686Y-114942557D01*
X147752360Y-114986211D01*
X147752363Y-114986212D01*
X147838476Y-115014191D01*
X147924591Y-115042171D01*
X148007429Y-115055291D01*
X148103449Y-115070500D01*
X148103454Y-115070500D01*
X149584551Y-115070500D01*
X149671259Y-115056765D01*
X149763409Y-115042171D01*
X149935639Y-114986211D01*
X149935639Y-114986210D01*
X149935644Y-114986209D01*
X150047572Y-114929178D01*
X150116242Y-114916281D01*
X150180982Y-114942557D01*
X150191549Y-114951981D01*
X151926681Y-116687113D01*
X151960166Y-116748436D01*
X151963000Y-116774794D01*
X151963000Y-119981078D01*
X151999314Y-120163638D01*
X151999316Y-120163646D01*
X152070552Y-120335627D01*
X152173967Y-120490398D01*
X152173973Y-120490406D01*
X156093181Y-124409613D01*
X156126666Y-124470936D01*
X156129500Y-124497294D01*
X156129500Y-125357870D01*
X156129501Y-125357876D01*
X156135908Y-125417483D01*
X156186202Y-125552328D01*
X156186206Y-125552335D01*
X156272452Y-125667544D01*
X156272455Y-125667547D01*
X156387664Y-125753793D01*
X156387671Y-125753797D01*
X156522517Y-125804091D01*
X156522516Y-125804091D01*
X156529444Y-125804835D01*
X156582127Y-125810500D01*
X158377872Y-125810499D01*
X158437483Y-125804091D01*
X158572331Y-125753796D01*
X158687546Y-125667546D01*
X158773796Y-125552331D01*
X158823002Y-125420401D01*
X158864872Y-125364468D01*
X158930337Y-125340050D01*
X158998610Y-125354901D01*
X159026865Y-125376053D01*
X159140535Y-125489723D01*
X159140540Y-125489727D01*
X159312442Y-125614620D01*
X159501782Y-125711095D01*
X159703871Y-125776757D01*
X159770000Y-125787231D01*
X159770000Y-124893012D01*
X159827007Y-124925925D01*
X159954174Y-124960000D01*
X160085826Y-124960000D01*
X160212993Y-124925925D01*
X160270000Y-124893012D01*
X160270000Y-125787230D01*
X160336126Y-125776757D01*
X160336129Y-125776757D01*
X160538217Y-125711095D01*
X160727557Y-125614620D01*
X160899459Y-125489727D01*
X160899464Y-125489723D01*
X161049723Y-125339464D01*
X161049727Y-125339459D01*
X161174620Y-125167557D01*
X161271095Y-124978217D01*
X161336757Y-124776129D01*
X161336757Y-124776126D01*
X161347231Y-124710000D01*
X160453012Y-124710000D01*
X160485925Y-124652993D01*
X160520000Y-124525826D01*
X160520000Y-124394174D01*
X160506541Y-124343947D01*
X173489500Y-124343947D01*
X173489500Y-124576052D01*
X173519794Y-124806148D01*
X173579862Y-125030328D01*
X173668677Y-125244745D01*
X173668685Y-125244762D01*
X173784720Y-125445743D01*
X173784721Y-125445745D01*
X173926009Y-125629875D01*
X173926015Y-125629882D01*
X174090117Y-125793984D01*
X174090124Y-125793990D01*
X174274254Y-125935278D01*
X174274256Y-125935279D01*
X174475237Y-126051314D01*
X174475240Y-126051315D01*
X174475248Y-126051320D01*
X174689670Y-126140137D01*
X174913851Y-126200206D01*
X175143955Y-126230500D01*
X175143962Y-126230500D01*
X175376038Y-126230500D01*
X175376045Y-126230500D01*
X175606149Y-126200206D01*
X175830330Y-126140137D01*
X176044752Y-126051320D01*
X176245748Y-125935276D01*
X176429877Y-125793989D01*
X176593989Y-125629877D01*
X176735276Y-125445748D01*
X176851320Y-125244752D01*
X176940137Y-125030330D01*
X177000206Y-124806149D01*
X177030500Y-124576045D01*
X177030500Y-124343955D01*
X177000206Y-124113851D01*
X176940137Y-123889670D01*
X176851320Y-123675248D01*
X176794846Y-123577431D01*
X176735279Y-123474256D01*
X176735278Y-123474254D01*
X176593990Y-123290124D01*
X176593984Y-123290117D01*
X176429882Y-123126015D01*
X176429875Y-123126009D01*
X176245745Y-122984721D01*
X176245743Y-122984720D01*
X176044762Y-122868685D01*
X176044754Y-122868681D01*
X176044752Y-122868680D01*
X175830330Y-122779863D01*
X175830331Y-122779863D01*
X175830328Y-122779862D01*
X175688203Y-122741780D01*
X175606149Y-122719794D01*
X175577386Y-122716007D01*
X175376052Y-122689500D01*
X175376045Y-122689500D01*
X175143955Y-122689500D01*
X175143947Y-122689500D01*
X174913851Y-122719794D01*
X174689671Y-122779862D01*
X174475254Y-122868677D01*
X174475237Y-122868685D01*
X174274256Y-122984720D01*
X174274254Y-122984721D01*
X174090124Y-123126009D01*
X174090117Y-123126015D01*
X173926015Y-123290117D01*
X173926009Y-123290124D01*
X173784721Y-123474254D01*
X173784720Y-123474256D01*
X173668685Y-123675237D01*
X173668677Y-123675254D01*
X173579862Y-123889671D01*
X173519794Y-124113851D01*
X173489500Y-124343947D01*
X160506541Y-124343947D01*
X160485925Y-124267007D01*
X160453012Y-124210000D01*
X161347231Y-124210000D01*
X161336757Y-124143873D01*
X161336757Y-124143870D01*
X161271095Y-123941782D01*
X161174620Y-123752442D01*
X161049727Y-123580540D01*
X161049723Y-123580535D01*
X160899464Y-123430276D01*
X160899459Y-123430272D01*
X160727557Y-123305379D01*
X160538215Y-123208903D01*
X160336124Y-123143241D01*
X160270000Y-123132768D01*
X160270000Y-124026988D01*
X160212993Y-123994075D01*
X160085826Y-123960000D01*
X159954174Y-123960000D01*
X159827007Y-123994075D01*
X159770000Y-124026988D01*
X159770000Y-123132768D01*
X159769999Y-123132768D01*
X159703875Y-123143241D01*
X159501784Y-123208903D01*
X159312442Y-123305379D01*
X159140541Y-123430271D01*
X159026865Y-123543947D01*
X158965542Y-123577431D01*
X158895850Y-123572447D01*
X158839917Y-123530575D01*
X158823002Y-123499598D01*
X158813549Y-123474254D01*
X158773796Y-123367669D01*
X158773795Y-123367668D01*
X158773793Y-123367664D01*
X158687547Y-123252455D01*
X158687544Y-123252452D01*
X158572335Y-123166206D01*
X158572328Y-123166202D01*
X158437482Y-123115908D01*
X158437483Y-123115908D01*
X158377883Y-123109501D01*
X158377881Y-123109500D01*
X158377873Y-123109500D01*
X158377865Y-123109500D01*
X157517294Y-123109500D01*
X157450255Y-123089815D01*
X157429613Y-123073181D01*
X153889319Y-119532887D01*
X153855834Y-119471564D01*
X153853000Y-119445206D01*
X153853000Y-116238923D01*
X153852999Y-116238921D01*
X153816685Y-116056361D01*
X153816684Y-116056354D01*
X153747775Y-115889993D01*
X153746130Y-115885394D01*
X153642029Y-115729597D01*
X153642026Y-115729593D01*
X153446568Y-115534135D01*
X155395500Y-115534135D01*
X155395500Y-117129870D01*
X155395501Y-117129876D01*
X155401908Y-117189483D01*
X155452202Y-117324328D01*
X155452206Y-117324335D01*
X155538452Y-117439544D01*
X155538455Y-117439547D01*
X155653664Y-117525793D01*
X155653671Y-117525797D01*
X155788517Y-117576091D01*
X155788516Y-117576091D01*
X155795444Y-117576835D01*
X155848127Y-117582500D01*
X157943872Y-117582499D01*
X158003483Y-117576091D01*
X158138331Y-117525796D01*
X158253546Y-117439546D01*
X158338032Y-117326688D01*
X158393966Y-117284818D01*
X158437298Y-117277000D01*
X162974926Y-117277000D01*
X163033164Y-117277000D01*
X163100203Y-117296685D01*
X163145958Y-117349489D01*
X163155902Y-117418647D01*
X163126877Y-117482203D01*
X163120845Y-117488681D01*
X163092174Y-117517351D01*
X163092174Y-117517352D01*
X163092172Y-117517354D01*
X163049497Y-117576091D01*
X162976476Y-117676594D01*
X162887117Y-117851970D01*
X162826290Y-118039173D01*
X162795500Y-118233577D01*
X162795500Y-118430422D01*
X162826290Y-118624826D01*
X162887117Y-118812029D01*
X162926545Y-118889410D01*
X162976476Y-118987405D01*
X163092172Y-119146646D01*
X163231354Y-119285828D01*
X163390595Y-119401524D01*
X163473455Y-119443743D01*
X163565970Y-119490882D01*
X163565972Y-119490882D01*
X163565975Y-119490884D01*
X163666317Y-119523487D01*
X163753173Y-119551709D01*
X163947578Y-119582500D01*
X163947583Y-119582500D01*
X164144422Y-119582500D01*
X164338826Y-119551709D01*
X164526025Y-119490884D01*
X164701405Y-119401524D01*
X164860646Y-119285828D01*
X164999828Y-119146646D01*
X165115524Y-118987405D01*
X165204884Y-118812025D01*
X165265709Y-118624826D01*
X165296500Y-118430422D01*
X165296500Y-118233577D01*
X165265709Y-118039173D01*
X165237487Y-117952317D01*
X165204884Y-117851975D01*
X165204882Y-117851972D01*
X165204882Y-117851970D01*
X165115523Y-117676594D01*
X165086034Y-117636006D01*
X164999828Y-117517354D01*
X164971155Y-117488681D01*
X164937670Y-117427358D01*
X164942654Y-117357666D01*
X164984526Y-117301733D01*
X165049990Y-117277316D01*
X165058836Y-117277000D01*
X169654702Y-117277000D01*
X169721741Y-117296685D01*
X169753968Y-117326688D01*
X169838455Y-117439547D01*
X169953664Y-117525793D01*
X169953671Y-117525797D01*
X170088517Y-117576091D01*
X170088516Y-117576091D01*
X170095444Y-117576835D01*
X170148127Y-117582500D01*
X172243872Y-117582499D01*
X172303483Y-117576091D01*
X172438331Y-117525796D01*
X172553546Y-117439546D01*
X172639796Y-117324331D01*
X172690091Y-117189483D01*
X172696500Y-117129873D01*
X172696499Y-115534128D01*
X172690091Y-115474517D01*
X172657449Y-115387000D01*
X172639797Y-115339671D01*
X172639793Y-115339664D01*
X172553547Y-115224455D01*
X172553544Y-115224452D01*
X172438335Y-115138206D01*
X172438328Y-115138202D01*
X172303482Y-115087908D01*
X172303483Y-115087908D01*
X172243883Y-115081501D01*
X172243881Y-115081500D01*
X172243873Y-115081500D01*
X172243864Y-115081500D01*
X170148129Y-115081500D01*
X170148123Y-115081501D01*
X170088516Y-115087908D01*
X169953671Y-115138202D01*
X169953664Y-115138206D01*
X169838455Y-115224452D01*
X169753968Y-115337312D01*
X169698034Y-115379182D01*
X169654702Y-115387000D01*
X163510793Y-115387000D01*
X163443754Y-115367315D01*
X163423112Y-115350681D01*
X162225906Y-114153474D01*
X162199026Y-114113245D01*
X162183724Y-114076301D01*
X162183717Y-114076289D01*
X162073353Y-113911119D01*
X162073350Y-113911115D01*
X161932884Y-113770649D01*
X161932880Y-113770646D01*
X161767710Y-113660282D01*
X161767701Y-113660277D01*
X161584169Y-113584256D01*
X161584161Y-113584254D01*
X161389333Y-113545500D01*
X161389329Y-113545500D01*
X161190671Y-113545500D01*
X161190666Y-113545500D01*
X160995838Y-113584254D01*
X160995830Y-113584256D01*
X160812298Y-113660277D01*
X160812289Y-113660282D01*
X160647119Y-113770646D01*
X160647115Y-113770649D01*
X160506649Y-113911115D01*
X160506646Y-113911119D01*
X160396282Y-114076289D01*
X160396277Y-114076298D01*
X160320256Y-114259830D01*
X160320254Y-114259838D01*
X160281500Y-114454666D01*
X160281500Y-114653333D01*
X160320254Y-114848161D01*
X160320256Y-114848169D01*
X160396277Y-115031701D01*
X160396282Y-115031710D01*
X160504794Y-115194109D01*
X160525672Y-115260787D01*
X160507187Y-115328167D01*
X160455209Y-115374857D01*
X160401692Y-115387000D01*
X158437298Y-115387000D01*
X158370259Y-115367315D01*
X158338032Y-115337312D01*
X158280745Y-115260787D01*
X158253546Y-115224454D01*
X158253544Y-115224453D01*
X158253544Y-115224452D01*
X158138335Y-115138206D01*
X158138328Y-115138202D01*
X158003482Y-115087908D01*
X158003483Y-115087908D01*
X157943883Y-115081501D01*
X157943881Y-115081500D01*
X157943873Y-115081500D01*
X157943864Y-115081500D01*
X155848129Y-115081500D01*
X155848123Y-115081501D01*
X155788516Y-115087908D01*
X155653671Y-115138202D01*
X155653664Y-115138206D01*
X155538455Y-115224452D01*
X155538452Y-115224455D01*
X155452206Y-115339664D01*
X155452202Y-115339671D01*
X155401908Y-115474517D01*
X155395501Y-115534116D01*
X155395501Y-115534123D01*
X155395500Y-115534135D01*
X153446568Y-115534135D01*
X151098406Y-113185973D01*
X151098398Y-113185967D01*
X150943626Y-113082552D01*
X150943627Y-113082552D01*
X150771646Y-113011316D01*
X150771638Y-113011314D01*
X150589077Y-112975000D01*
X150589074Y-112975000D01*
X150190958Y-112975000D01*
X150123919Y-112955315D01*
X150118073Y-112951318D01*
X150096997Y-112936006D01*
X150096996Y-112936005D01*
X150096994Y-112936004D01*
X150045300Y-112909664D01*
X149935639Y-112853788D01*
X149935636Y-112853787D01*
X149763410Y-112797829D01*
X149584551Y-112769500D01*
X149584546Y-112769500D01*
X148103454Y-112769500D01*
X148103449Y-112769500D01*
X147924589Y-112797829D01*
X147752363Y-112853787D01*
X147752360Y-112853788D01*
X147591002Y-112936006D01*
X147444505Y-113042441D01*
X147444500Y-113042445D01*
X147316445Y-113170500D01*
X147316441Y-113170505D01*
X147210006Y-113317002D01*
X147127788Y-113478360D01*
X147127787Y-113478363D01*
X147071829Y-113650589D01*
X147043500Y-113829448D01*
X140200500Y-113829448D01*
X140200500Y-110534135D01*
X155395500Y-110534135D01*
X155395500Y-112129870D01*
X155395501Y-112129876D01*
X155401908Y-112189483D01*
X155452202Y-112324328D01*
X155452206Y-112324335D01*
X155538452Y-112439544D01*
X155538455Y-112439547D01*
X155653664Y-112525793D01*
X155653671Y-112525797D01*
X155788517Y-112576091D01*
X155788516Y-112576091D01*
X155795444Y-112576835D01*
X155848127Y-112582500D01*
X157943872Y-112582499D01*
X158003483Y-112576091D01*
X158138331Y-112525796D01*
X158253546Y-112439546D01*
X158339796Y-112324331D01*
X158345397Y-112309313D01*
X158374731Y-112230667D01*
X158416602Y-112174733D01*
X158482067Y-112150316D01*
X158490913Y-112150000D01*
X159257434Y-112150000D01*
X159418565Y-112150000D01*
X169601087Y-112150000D01*
X169668126Y-112169685D01*
X169713881Y-112222489D01*
X169717269Y-112230667D01*
X169752202Y-112324328D01*
X169752206Y-112324335D01*
X169838452Y-112439544D01*
X169838455Y-112439547D01*
X169953664Y-112525793D01*
X169953671Y-112525797D01*
X170088517Y-112576091D01*
X170088516Y-112576091D01*
X170095444Y-112576835D01*
X170148127Y-112582500D01*
X172243872Y-112582499D01*
X172303483Y-112576091D01*
X172438331Y-112525796D01*
X172553546Y-112439546D01*
X172639796Y-112324331D01*
X172690091Y-112189483D01*
X172696500Y-112129873D01*
X172696499Y-110534128D01*
X172690091Y-110474517D01*
X172674730Y-110433333D01*
X172639797Y-110339671D01*
X172639793Y-110339664D01*
X172553547Y-110224455D01*
X172553544Y-110224452D01*
X172438335Y-110138206D01*
X172438328Y-110138202D01*
X172303482Y-110087908D01*
X172303483Y-110087908D01*
X172243883Y-110081501D01*
X172243881Y-110081500D01*
X172243873Y-110081500D01*
X172243865Y-110081500D01*
X172138000Y-110081500D01*
X172070961Y-110061815D01*
X172025206Y-110009011D01*
X172014000Y-109957500D01*
X172014000Y-105583433D01*
X172013999Y-105583429D01*
X171982566Y-105425405D01*
X171982565Y-105425398D01*
X171923228Y-105282149D01*
X171921584Y-105277551D01*
X171831382Y-105142554D01*
X171831379Y-105142551D01*
X170745488Y-104056661D01*
X170712003Y-103995338D01*
X170710696Y-103988378D01*
X170695114Y-103890000D01*
X170686477Y-103835466D01*
X170623220Y-103640781D01*
X170623218Y-103640778D01*
X170623218Y-103640776D01*
X170530419Y-103458650D01*
X170530287Y-103458390D01*
X170522556Y-103447749D01*
X170409971Y-103292786D01*
X170265213Y-103148028D01*
X170099613Y-103027715D01*
X170099612Y-103027714D01*
X170099610Y-103027713D01*
X170042653Y-102998691D01*
X169917223Y-102934781D01*
X169722534Y-102871522D01*
X169547995Y-102843878D01*
X169520352Y-102839500D01*
X169315648Y-102839500D01*
X169291329Y-102843351D01*
X169113465Y-102871522D01*
X168918776Y-102934781D01*
X168736386Y-103027715D01*
X168570786Y-103148028D01*
X168426028Y-103292786D01*
X168305715Y-103458386D01*
X168212781Y-103640776D01*
X168149522Y-103835465D01*
X168117500Y-104037648D01*
X168117500Y-104242351D01*
X168149522Y-104444534D01*
X168212781Y-104639223D01*
X168305715Y-104821613D01*
X168426028Y-104987213D01*
X168570786Y-105131971D01*
X168725749Y-105244556D01*
X168736390Y-105252287D01*
X168852607Y-105311503D01*
X168918776Y-105345218D01*
X168918778Y-105345218D01*
X168918781Y-105345220D01*
X169023137Y-105379127D01*
X169113465Y-105408477D01*
X169179639Y-105418958D01*
X169315648Y-105440500D01*
X169315649Y-105440500D01*
X169520351Y-105440500D01*
X169520352Y-105440500D01*
X169712891Y-105410004D01*
X169782183Y-105418958D01*
X169819969Y-105444796D01*
X170341681Y-105966508D01*
X170375166Y-106027831D01*
X170378000Y-106054189D01*
X170378000Y-109957500D01*
X170358315Y-110024539D01*
X170305511Y-110070294D01*
X170254001Y-110081500D01*
X170148130Y-110081500D01*
X170148123Y-110081501D01*
X170088516Y-110087908D01*
X169953671Y-110138202D01*
X169953664Y-110138206D01*
X169838455Y-110224452D01*
X169838452Y-110224455D01*
X169752206Y-110339664D01*
X169752202Y-110339671D01*
X169717269Y-110433333D01*
X169675398Y-110489267D01*
X169609933Y-110513684D01*
X169601087Y-110514000D01*
X164928227Y-110514000D01*
X164861188Y-110494315D01*
X164815433Y-110441511D01*
X164805489Y-110372353D01*
X164834514Y-110308797D01*
X164855339Y-110289684D01*
X164856365Y-110288938D01*
X164860646Y-110285828D01*
X164999828Y-110146646D01*
X165115524Y-109987405D01*
X165204884Y-109812025D01*
X165265709Y-109624826D01*
X165294396Y-109443704D01*
X165296500Y-109430422D01*
X165296500Y-109233577D01*
X165265709Y-109039173D01*
X165204882Y-108851970D01*
X165115523Y-108676594D01*
X165112068Y-108671838D01*
X164999828Y-108517354D01*
X164860646Y-108378172D01*
X164701405Y-108262476D01*
X164526029Y-108173117D01*
X164338826Y-108112290D01*
X164144422Y-108081500D01*
X164144417Y-108081500D01*
X163947583Y-108081500D01*
X163947578Y-108081500D01*
X163753173Y-108112290D01*
X163565970Y-108173117D01*
X163390594Y-108262476D01*
X163299741Y-108328485D01*
X163231354Y-108378172D01*
X163231352Y-108378174D01*
X163231351Y-108378174D01*
X163092174Y-108517351D01*
X163092174Y-108517352D01*
X163092172Y-108517354D01*
X163042485Y-108585741D01*
X162976476Y-108676594D01*
X162887117Y-108851970D01*
X162826290Y-109039173D01*
X162795500Y-109233577D01*
X162795500Y-109430422D01*
X162826290Y-109624826D01*
X162887117Y-109812029D01*
X162971345Y-109977335D01*
X162976476Y-109987405D01*
X163092172Y-110146646D01*
X163231354Y-110285828D01*
X163231357Y-110285830D01*
X163236661Y-110289684D01*
X163279325Y-110345015D01*
X163285303Y-110414629D01*
X163252695Y-110476423D01*
X163191855Y-110510778D01*
X163163773Y-110514000D01*
X159728189Y-110514000D01*
X159661150Y-110494315D01*
X159640508Y-110477681D01*
X157994931Y-108832104D01*
X157961446Y-108770781D01*
X157961009Y-108768685D01*
X157941744Y-108671831D01*
X157865721Y-108488296D01*
X157865720Y-108488295D01*
X157865717Y-108488289D01*
X157755353Y-108323119D01*
X157755350Y-108323115D01*
X157614884Y-108182649D01*
X157614880Y-108182646D01*
X157449710Y-108072282D01*
X157449701Y-108072277D01*
X157266169Y-107996256D01*
X157266161Y-107996254D01*
X157071333Y-107957500D01*
X157071329Y-107957500D01*
X156872671Y-107957500D01*
X156872666Y-107957500D01*
X156677838Y-107996254D01*
X156677830Y-107996256D01*
X156494298Y-108072277D01*
X156494289Y-108072282D01*
X156329119Y-108182646D01*
X156329115Y-108182649D01*
X156188649Y-108323115D01*
X156188646Y-108323119D01*
X156078282Y-108488289D01*
X156078277Y-108488298D01*
X156002256Y-108671830D01*
X156002254Y-108671838D01*
X155963500Y-108866666D01*
X155963500Y-109065333D01*
X156002254Y-109260161D01*
X156002256Y-109260169D01*
X156078277Y-109443701D01*
X156078282Y-109443710D01*
X156188646Y-109608880D01*
X156188649Y-109608884D01*
X156329115Y-109749350D01*
X156329119Y-109749353D01*
X156486329Y-109854398D01*
X156531134Y-109908010D01*
X156539841Y-109977335D01*
X156509687Y-110040363D01*
X156450243Y-110077082D01*
X156417438Y-110081500D01*
X155848129Y-110081500D01*
X155848123Y-110081501D01*
X155788516Y-110087908D01*
X155653671Y-110138202D01*
X155653664Y-110138206D01*
X155538455Y-110224452D01*
X155538452Y-110224455D01*
X155452206Y-110339664D01*
X155452202Y-110339671D01*
X155401908Y-110474517D01*
X155397664Y-110514000D01*
X155395501Y-110534123D01*
X155395500Y-110534135D01*
X140200500Y-110534135D01*
X140200500Y-109129448D01*
X147043500Y-109129448D01*
X147043500Y-109310551D01*
X147071829Y-109489410D01*
X147127787Y-109661636D01*
X147127788Y-109661639D01*
X147210006Y-109822997D01*
X147316441Y-109969494D01*
X147316445Y-109969499D01*
X147444500Y-110097554D01*
X147444505Y-110097558D01*
X147572287Y-110190396D01*
X147591006Y-110203996D01*
X147696484Y-110257740D01*
X147752360Y-110286211D01*
X147752363Y-110286212D01*
X147838476Y-110314191D01*
X147924591Y-110342171D01*
X148007429Y-110355291D01*
X148103449Y-110370500D01*
X148103454Y-110370500D01*
X149584551Y-110370500D01*
X149671259Y-110356765D01*
X149763409Y-110342171D01*
X149935639Y-110286211D01*
X150096994Y-110203996D01*
X150243501Y-110097553D01*
X150249179Y-110091874D01*
X150272248Y-110073718D01*
X150280485Y-110068688D01*
X150307625Y-110057448D01*
X150397884Y-109997139D01*
X150462403Y-109954029D01*
X154971636Y-105444796D01*
X156526432Y-103890000D01*
X160521391Y-103890000D01*
X161482314Y-103890000D01*
X161477920Y-103894394D01*
X161425259Y-103985606D01*
X161398000Y-104087339D01*
X161398000Y-104192661D01*
X161425259Y-104294394D01*
X161477920Y-104385606D01*
X161482314Y-104390000D01*
X160521391Y-104390000D01*
X160530009Y-104444413D01*
X160593244Y-104639029D01*
X160686140Y-104821349D01*
X160806417Y-104986894D01*
X160806417Y-104986895D01*
X160951104Y-105131582D01*
X161116650Y-105251859D01*
X161298968Y-105344754D01*
X161493578Y-105407988D01*
X161548000Y-105416607D01*
X161548000Y-104455686D01*
X161552394Y-104460080D01*
X161643606Y-104512741D01*
X161745339Y-104540000D01*
X161850661Y-104540000D01*
X161952394Y-104512741D01*
X162043606Y-104460080D01*
X162048000Y-104455686D01*
X162048000Y-105416606D01*
X162102421Y-105407988D01*
X162297031Y-105344754D01*
X162479349Y-105251859D01*
X162644894Y-105131582D01*
X162644895Y-105131582D01*
X162789582Y-104986895D01*
X162789582Y-104986894D01*
X162909859Y-104821349D01*
X163002755Y-104639029D01*
X163065990Y-104444413D01*
X163074609Y-104390000D01*
X162113686Y-104390000D01*
X162118080Y-104385606D01*
X162170741Y-104294394D01*
X162198000Y-104192661D01*
X162198000Y-104087339D01*
X162170741Y-103985606D01*
X162118080Y-103894394D01*
X162113686Y-103890000D01*
X163074609Y-103890000D01*
X163065990Y-103835586D01*
X163002755Y-103640970D01*
X162909859Y-103458650D01*
X162789582Y-103293105D01*
X162789582Y-103293104D01*
X162644895Y-103148417D01*
X162479349Y-103028140D01*
X162297029Y-102935244D01*
X162102413Y-102872009D01*
X162048000Y-102863390D01*
X162048000Y-103824314D01*
X162043606Y-103819920D01*
X161952394Y-103767259D01*
X161850661Y-103740000D01*
X161745339Y-103740000D01*
X161643606Y-103767259D01*
X161552394Y-103819920D01*
X161548000Y-103824314D01*
X161548000Y-102863390D01*
X161493586Y-102872009D01*
X161298970Y-102935244D01*
X161116650Y-103028140D01*
X160951105Y-103148417D01*
X160951104Y-103148417D01*
X160806417Y-103293104D01*
X160806417Y-103293105D01*
X160686140Y-103458650D01*
X160593244Y-103640970D01*
X160530009Y-103835586D01*
X160521391Y-103890000D01*
X156526432Y-103890000D01*
X156577050Y-103839382D01*
X159484026Y-100932405D01*
X159484025Y-100932405D01*
X159484029Y-100932402D01*
X159587448Y-100777625D01*
X159658684Y-100605646D01*
X159695000Y-100423074D01*
X159695000Y-100236925D01*
X159695000Y-99248794D01*
X159714685Y-99181755D01*
X159731319Y-99161113D01*
X161764026Y-97128406D01*
X161764029Y-97128403D01*
X161867448Y-96973625D01*
X161938684Y-96801646D01*
X161946073Y-96764500D01*
X161975000Y-96619074D01*
X161975000Y-96551657D01*
X161976147Y-96543284D01*
X161986002Y-96521315D01*
X161993462Y-96495015D01*
X162010185Y-96467903D01*
X162062133Y-96421178D01*
X162115723Y-96409000D01*
X163392453Y-96409000D01*
X163459492Y-96428685D01*
X163480134Y-96445319D01*
X163490786Y-96455971D01*
X163645749Y-96568556D01*
X163656390Y-96576287D01*
X163772607Y-96635503D01*
X163838776Y-96669218D01*
X163838778Y-96669218D01*
X163838781Y-96669220D01*
X163943137Y-96703127D01*
X164033465Y-96732477D01*
X164111345Y-96744812D01*
X164235648Y-96764500D01*
X164235649Y-96764500D01*
X164440351Y-96764500D01*
X164440352Y-96764500D01*
X164642534Y-96732477D01*
X164837219Y-96669220D01*
X165019610Y-96576287D01*
X165168788Y-96467904D01*
X165185213Y-96455971D01*
X165185215Y-96455968D01*
X165185219Y-96455966D01*
X165329966Y-96311219D01*
X165329968Y-96311215D01*
X165329971Y-96311213D01*
X165401473Y-96212797D01*
X165450287Y-96145610D01*
X165543220Y-95963219D01*
X165606477Y-95768534D01*
X165638500Y-95566352D01*
X165638500Y-95361648D01*
X165606477Y-95159466D01*
X165543220Y-94964781D01*
X165543218Y-94964778D01*
X165543218Y-94964776D01*
X165509503Y-94898607D01*
X165450287Y-94782390D01*
X165442556Y-94771749D01*
X165329971Y-94616786D01*
X165185213Y-94472028D01*
X165019613Y-94351715D01*
X165019612Y-94351714D01*
X165019610Y-94351713D01*
X164937726Y-94309991D01*
X164837223Y-94258781D01*
X164642534Y-94195522D01*
X164467995Y-94167878D01*
X164440352Y-94163500D01*
X164235648Y-94163500D01*
X164211329Y-94167351D01*
X164033465Y-94195522D01*
X163838776Y-94258781D01*
X163656386Y-94351715D01*
X163490786Y-94472028D01*
X163490782Y-94472032D01*
X163480134Y-94482681D01*
X163418811Y-94516166D01*
X163392453Y-94519000D01*
X162254499Y-94519000D01*
X162187460Y-94499315D01*
X162141705Y-94446511D01*
X162130499Y-94395000D01*
X162130499Y-94309998D01*
X162130498Y-94309981D01*
X162119999Y-94207203D01*
X162119998Y-94207200D01*
X162105517Y-94163500D01*
X162064814Y-94040666D01*
X161972712Y-93891344D01*
X161848656Y-93767288D01*
X161699334Y-93675186D01*
X161532797Y-93620001D01*
X161532795Y-93620000D01*
X161430010Y-93609500D01*
X160629998Y-93609500D01*
X160629980Y-93609501D01*
X160527203Y-93620000D01*
X160527200Y-93620001D01*
X160360668Y-93675185D01*
X160360663Y-93675187D01*
X160211342Y-93767289D01*
X160087289Y-93891342D01*
X159995187Y-94040663D01*
X159995186Y-94040666D01*
X159940001Y-94207203D01*
X159940001Y-94207204D01*
X159940000Y-94207204D01*
X159929500Y-94309983D01*
X159929500Y-96110001D01*
X159929501Y-96110019D01*
X159940201Y-96214760D01*
X159927431Y-96283453D01*
X159904524Y-96315042D01*
X158015973Y-98203593D01*
X158015967Y-98203601D01*
X157912552Y-98358372D01*
X157841316Y-98530353D01*
X157841314Y-98530361D01*
X157805000Y-98712921D01*
X157805000Y-99887205D01*
X157785315Y-99954244D01*
X157768681Y-99974886D01*
X149706503Y-108037063D01*
X149645180Y-108070548D01*
X149599428Y-108071856D01*
X149584550Y-108069500D01*
X149584546Y-108069500D01*
X148103454Y-108069500D01*
X148103449Y-108069500D01*
X147924589Y-108097829D01*
X147752363Y-108153787D01*
X147752360Y-108153788D01*
X147591002Y-108236006D01*
X147444505Y-108342441D01*
X147444500Y-108342445D01*
X147316445Y-108470500D01*
X147316441Y-108470505D01*
X147210006Y-108617002D01*
X147127788Y-108778360D01*
X147127787Y-108778363D01*
X147071829Y-108950589D01*
X147043500Y-109129448D01*
X140200500Y-109129448D01*
X140200500Y-95361648D01*
X151861500Y-95361648D01*
X151861500Y-95566351D01*
X151893522Y-95768534D01*
X151956781Y-95963223D01*
X152020691Y-96088653D01*
X152031578Y-96110019D01*
X152049715Y-96145613D01*
X152170028Y-96311213D01*
X152314786Y-96455971D01*
X152469749Y-96568556D01*
X152480390Y-96576287D01*
X152596607Y-96635503D01*
X152662776Y-96669218D01*
X152662778Y-96669218D01*
X152662781Y-96669220D01*
X152767137Y-96703127D01*
X152857465Y-96732477D01*
X152935345Y-96744812D01*
X153059648Y-96764500D01*
X153059649Y-96764500D01*
X153264351Y-96764500D01*
X153264352Y-96764500D01*
X153466534Y-96732477D01*
X153661219Y-96669220D01*
X153843610Y-96576287D01*
X153992788Y-96467904D01*
X154009213Y-96455971D01*
X154009215Y-96455968D01*
X154009219Y-96455966D01*
X154019866Y-96445319D01*
X154081189Y-96411834D01*
X154107547Y-96409000D01*
X155384277Y-96409000D01*
X155451316Y-96428685D01*
X155489815Y-96467903D01*
X155527288Y-96528656D01*
X155651344Y-96652712D01*
X155800666Y-96744814D01*
X155967203Y-96799999D01*
X156069991Y-96810500D01*
X156870008Y-96810499D01*
X156870016Y-96810498D01*
X156870019Y-96810498D01*
X156926302Y-96804748D01*
X156972797Y-96799999D01*
X157139334Y-96744814D01*
X157288656Y-96652712D01*
X157412712Y-96528656D01*
X157504814Y-96379334D01*
X157559999Y-96212797D01*
X157570500Y-96110009D01*
X157570499Y-94309992D01*
X157559999Y-94207203D01*
X157504814Y-94040666D01*
X157412712Y-93891344D01*
X157288656Y-93767288D01*
X157139334Y-93675186D01*
X156972797Y-93620001D01*
X156972795Y-93620000D01*
X156870010Y-93609500D01*
X156069998Y-93609500D01*
X156069980Y-93609501D01*
X155967203Y-93620000D01*
X155967200Y-93620001D01*
X155800668Y-93675185D01*
X155800663Y-93675187D01*
X155651342Y-93767289D01*
X155527289Y-93891342D01*
X155435187Y-94040663D01*
X155435186Y-94040666D01*
X155380001Y-94207203D01*
X155380001Y-94207204D01*
X155380000Y-94207204D01*
X155369500Y-94309983D01*
X155369500Y-94395000D01*
X155349815Y-94462039D01*
X155297011Y-94507794D01*
X155245500Y-94519000D01*
X154107547Y-94519000D01*
X154040508Y-94499315D01*
X154019866Y-94482681D01*
X154009213Y-94472028D01*
X153843613Y-94351715D01*
X153843612Y-94351714D01*
X153843610Y-94351713D01*
X153761726Y-94309991D01*
X153661223Y-94258781D01*
X153466534Y-94195522D01*
X153291995Y-94167878D01*
X153264352Y-94163500D01*
X153059648Y-94163500D01*
X153035329Y-94167351D01*
X152857465Y-94195522D01*
X152662776Y-94258781D01*
X152480386Y-94351715D01*
X152314786Y-94472028D01*
X152170028Y-94616786D01*
X152049715Y-94782386D01*
X151956781Y-94964776D01*
X151893522Y-95159465D01*
X151861500Y-95361648D01*
X140200500Y-95361648D01*
X140200500Y-91909988D01*
X155350001Y-91909988D01*
X155360494Y-92012699D01*
X155415640Y-92179120D01*
X155415642Y-92179125D01*
X155507683Y-92328346D01*
X155631653Y-92452316D01*
X155780874Y-92544357D01*
X155780879Y-92544359D01*
X155947302Y-92599506D01*
X155947300Y-92599506D01*
X156006134Y-92605516D01*
X156006137Y-92605516D01*
X156056305Y-92610642D01*
X156063461Y-92611373D01*
X156071419Y-92610000D01*
X156101375Y-92610000D01*
X156101384Y-92609999D01*
X156975000Y-92609999D01*
X157475000Y-92609999D01*
X158500000Y-92609999D01*
X159000000Y-92609999D01*
X160024999Y-92609999D01*
X160525000Y-92609999D01*
X161449974Y-92609999D01*
X161449988Y-92609998D01*
X161552699Y-92599505D01*
X161719120Y-92544359D01*
X161719125Y-92544357D01*
X161868346Y-92452316D01*
X161992316Y-92328346D01*
X162084357Y-92179125D01*
X162084359Y-92179120D01*
X162139505Y-92012698D01*
X162149999Y-91909988D01*
X162150000Y-91909975D01*
X162150000Y-90835000D01*
X160525000Y-90835000D01*
X160525000Y-92609999D01*
X160024999Y-92609999D01*
X160025000Y-92609998D01*
X160025000Y-90835000D01*
X159000000Y-90835000D01*
X159000000Y-92609999D01*
X158500000Y-92609999D01*
X158500000Y-90835000D01*
X157475000Y-90835000D01*
X157475000Y-92609999D01*
X156975000Y-92609999D01*
X156975000Y-90835000D01*
X155350001Y-90835000D01*
X155350001Y-91909988D01*
X140200500Y-91909988D01*
X140200500Y-90361682D01*
X151862000Y-90361682D01*
X151862000Y-90566317D01*
X151894009Y-90768417D01*
X151957244Y-90963031D01*
X152050141Y-91145350D01*
X152050147Y-91145359D01*
X152082523Y-91189921D01*
X152082524Y-91189922D01*
X152762000Y-90510446D01*
X152762000Y-90516661D01*
X152789259Y-90618394D01*
X152841920Y-90709606D01*
X152916394Y-90784080D01*
X153007606Y-90836741D01*
X153109339Y-90864000D01*
X153115553Y-90864000D01*
X152436076Y-91543474D01*
X152480650Y-91575859D01*
X152662968Y-91668755D01*
X152857582Y-91731990D01*
X153059683Y-91764000D01*
X153264317Y-91764000D01*
X153466417Y-91731990D01*
X153661031Y-91668755D01*
X153843349Y-91575859D01*
X153887921Y-91543474D01*
X153208447Y-90864000D01*
X153214661Y-90864000D01*
X153316394Y-90836741D01*
X153407606Y-90784080D01*
X153482080Y-90709606D01*
X153534741Y-90618394D01*
X153562000Y-90516661D01*
X153562000Y-90510448D01*
X154241474Y-91189922D01*
X154241474Y-91189921D01*
X154273859Y-91145349D01*
X154366755Y-90963031D01*
X154429989Y-90768420D01*
X154430652Y-90764236D01*
X154430652Y-90764233D01*
X154462000Y-90566317D01*
X154462000Y-90361682D01*
X163038000Y-90361682D01*
X163038000Y-90566317D01*
X163070009Y-90768417D01*
X163133244Y-90963031D01*
X163226141Y-91145350D01*
X163226147Y-91145359D01*
X163258523Y-91189921D01*
X163258524Y-91189922D01*
X163938000Y-90510446D01*
X163938000Y-90516661D01*
X163965259Y-90618394D01*
X164017920Y-90709606D01*
X164092394Y-90784080D01*
X164183606Y-90836741D01*
X164285339Y-90864000D01*
X164291553Y-90864000D01*
X163612076Y-91543474D01*
X163656650Y-91575859D01*
X163838968Y-91668755D01*
X164033582Y-91731990D01*
X164235683Y-91764000D01*
X164440317Y-91764000D01*
X164642417Y-91731990D01*
X164837031Y-91668755D01*
X165019349Y-91575859D01*
X165063921Y-91543474D01*
X164384447Y-90864000D01*
X164390661Y-90864000D01*
X164492394Y-90836741D01*
X164583606Y-90784080D01*
X164658080Y-90709606D01*
X164710741Y-90618394D01*
X164738000Y-90516661D01*
X164738000Y-90510447D01*
X165417474Y-91189921D01*
X165449859Y-91145349D01*
X165542755Y-90963031D01*
X165605990Y-90768417D01*
X165638000Y-90566317D01*
X165638000Y-90361682D01*
X165605990Y-90159582D01*
X165542755Y-89964968D01*
X165449859Y-89782650D01*
X165417474Y-89738077D01*
X165417474Y-89738076D01*
X164738000Y-90417551D01*
X164738000Y-90411339D01*
X164710741Y-90309606D01*
X164658080Y-90218394D01*
X164583606Y-90143920D01*
X164492394Y-90091259D01*
X164390661Y-90064000D01*
X164384446Y-90064000D01*
X165063922Y-89384524D01*
X165063921Y-89384523D01*
X165019359Y-89352147D01*
X165019350Y-89352141D01*
X164837031Y-89259244D01*
X164642417Y-89196009D01*
X164440317Y-89164000D01*
X164235683Y-89164000D01*
X164033582Y-89196009D01*
X163838968Y-89259244D01*
X163656644Y-89352143D01*
X163612077Y-89384523D01*
X163612077Y-89384524D01*
X164291554Y-90064000D01*
X164285339Y-90064000D01*
X164183606Y-90091259D01*
X164092394Y-90143920D01*
X164017920Y-90218394D01*
X163965259Y-90309606D01*
X163938000Y-90411339D01*
X163938000Y-90417553D01*
X163258524Y-89738077D01*
X163258523Y-89738077D01*
X163226143Y-89782644D01*
X163133244Y-89964968D01*
X163070009Y-90159582D01*
X163038000Y-90361682D01*
X154462000Y-90361682D01*
X154457774Y-90334999D01*
X155350000Y-90334999D01*
X155350002Y-90335000D01*
X156975000Y-90335000D01*
X157475000Y-90335000D01*
X158500000Y-90335000D01*
X159000000Y-90335000D01*
X160025000Y-90335000D01*
X160525000Y-90335000D01*
X162149999Y-90335000D01*
X162149999Y-89160000D01*
X160525000Y-89160000D01*
X160525000Y-90335000D01*
X160025000Y-90335000D01*
X160025000Y-89160000D01*
X159000000Y-89160000D01*
X159000000Y-90335000D01*
X158500000Y-90335000D01*
X158500000Y-89160000D01*
X157475000Y-89160000D01*
X157475000Y-90335000D01*
X156975000Y-90335000D01*
X156975000Y-89160000D01*
X155350000Y-89160000D01*
X155350000Y-90334999D01*
X154457774Y-90334999D01*
X154429990Y-90159582D01*
X154366755Y-89964968D01*
X154273859Y-89782650D01*
X154241474Y-89738077D01*
X154241474Y-89738076D01*
X153562000Y-90417551D01*
X153562000Y-90411339D01*
X153534741Y-90309606D01*
X153482080Y-90218394D01*
X153407606Y-90143920D01*
X153316394Y-90091259D01*
X153214661Y-90064000D01*
X153208446Y-90064000D01*
X153887922Y-89384524D01*
X153887921Y-89384523D01*
X153843359Y-89352147D01*
X153843350Y-89352141D01*
X153661031Y-89259244D01*
X153560467Y-89226569D01*
X153466417Y-89196009D01*
X153264317Y-89164000D01*
X153059683Y-89164000D01*
X152857582Y-89196009D01*
X152662968Y-89259244D01*
X152480644Y-89352143D01*
X152436077Y-89384523D01*
X152436077Y-89384524D01*
X153115554Y-90064000D01*
X153109339Y-90064000D01*
X153007606Y-90091259D01*
X152916394Y-90143920D01*
X152841920Y-90218394D01*
X152789259Y-90309606D01*
X152762000Y-90411339D01*
X152762000Y-90417553D01*
X152082524Y-89738077D01*
X152082523Y-89738077D01*
X152050143Y-89782644D01*
X151957244Y-89964968D01*
X151894009Y-90159582D01*
X151862000Y-90361682D01*
X140200500Y-90361682D01*
X140200500Y-79112135D01*
X141397500Y-79112135D01*
X141397500Y-80907870D01*
X141397501Y-80907876D01*
X141403908Y-80967483D01*
X141454202Y-81102328D01*
X141454206Y-81102335D01*
X141540452Y-81217544D01*
X141540455Y-81217547D01*
X141655664Y-81303793D01*
X141655671Y-81303797D01*
X141787082Y-81352810D01*
X141843016Y-81394681D01*
X141867433Y-81460145D01*
X141852582Y-81528418D01*
X141831431Y-81556673D01*
X141717889Y-81670215D01*
X141592951Y-81842179D01*
X141496444Y-82031585D01*
X141496443Y-82031587D01*
X141496443Y-82031588D01*
X141485467Y-82065368D01*
X141430753Y-82233760D01*
X141427490Y-82254362D01*
X141397500Y-82443713D01*
X141397500Y-82656287D01*
X141430754Y-82866243D01*
X141485467Y-83034632D01*
X141496444Y-83068414D01*
X141592951Y-83257820D01*
X141717890Y-83429786D01*
X141868213Y-83580109D01*
X142040179Y-83705048D01*
X142040181Y-83705049D01*
X142040184Y-83705051D01*
X142049493Y-83709794D01*
X142100290Y-83757766D01*
X142117087Y-83825587D01*
X142094552Y-83891722D01*
X142049502Y-83930762D01*
X142040443Y-83935378D01*
X141868540Y-84060272D01*
X141868535Y-84060276D01*
X141718276Y-84210535D01*
X141718272Y-84210540D01*
X141593379Y-84382442D01*
X141496904Y-84571782D01*
X141431242Y-84773870D01*
X141431242Y-84773873D01*
X141420769Y-84840000D01*
X142314988Y-84840000D01*
X142282075Y-84897007D01*
X142248000Y-85024174D01*
X142248000Y-85155826D01*
X142282075Y-85282993D01*
X142314988Y-85340000D01*
X141420769Y-85340000D01*
X141431242Y-85406126D01*
X141431242Y-85406129D01*
X141496904Y-85608217D01*
X141593379Y-85797557D01*
X141718272Y-85969459D01*
X141718276Y-85969464D01*
X141868535Y-86119723D01*
X141868540Y-86119727D01*
X142040442Y-86244620D01*
X142229782Y-86341095D01*
X142431871Y-86406757D01*
X142498000Y-86417231D01*
X142498000Y-85523012D01*
X142555007Y-85555925D01*
X142682174Y-85590000D01*
X142813826Y-85590000D01*
X142940993Y-85555925D01*
X142998000Y-85523012D01*
X142998000Y-86417230D01*
X143064126Y-86406757D01*
X143064129Y-86406757D01*
X143266217Y-86341095D01*
X143455557Y-86244620D01*
X143627459Y-86119727D01*
X143627464Y-86119723D01*
X143777723Y-85969464D01*
X143777727Y-85969459D01*
X143902620Y-85797557D01*
X143999095Y-85608217D01*
X144064757Y-85406129D01*
X144064757Y-85406126D01*
X144075231Y-85340000D01*
X143181012Y-85340000D01*
X143213925Y-85282993D01*
X143248000Y-85155826D01*
X143248000Y-85024174D01*
X143213925Y-84897007D01*
X143181012Y-84840000D01*
X144075231Y-84840000D01*
X144064757Y-84773873D01*
X144064757Y-84773870D01*
X143999095Y-84571782D01*
X143902620Y-84382442D01*
X143777727Y-84210540D01*
X143777723Y-84210535D01*
X143627464Y-84060276D01*
X143627459Y-84060272D01*
X143455555Y-83935377D01*
X143446500Y-83930763D01*
X143395706Y-83882788D01*
X143378912Y-83814966D01*
X143401451Y-83748832D01*
X143446508Y-83709793D01*
X143455816Y-83705051D01*
X143559410Y-83629786D01*
X143627786Y-83580109D01*
X143627788Y-83580106D01*
X143627792Y-83580104D01*
X143778104Y-83429792D01*
X143785863Y-83419113D01*
X143841194Y-83376448D01*
X143886180Y-83368000D01*
X145539193Y-83368000D01*
X145606232Y-83387685D01*
X145626874Y-83404319D01*
X145735536Y-83512981D01*
X145896306Y-83629787D01*
X146014832Y-83690179D01*
X146052780Y-83709515D01*
X146103576Y-83757490D01*
X146120371Y-83825311D01*
X146097833Y-83891446D01*
X146052780Y-83930485D01*
X145896305Y-84010213D01*
X145735533Y-84127021D01*
X145595021Y-84267533D01*
X145478213Y-84428305D01*
X145387994Y-84605367D01*
X145387993Y-84605370D01*
X145326587Y-84794362D01*
X145295500Y-84990639D01*
X145295500Y-85189360D01*
X145326587Y-85385637D01*
X145387993Y-85574629D01*
X145387994Y-85574632D01*
X145478213Y-85751694D01*
X145595019Y-85912464D01*
X145735536Y-86052981D01*
X145896306Y-86169787D01*
X146014832Y-86230179D01*
X146052780Y-86249515D01*
X146103576Y-86297490D01*
X146120371Y-86365311D01*
X146097833Y-86431446D01*
X146052780Y-86470485D01*
X145896305Y-86550213D01*
X145735533Y-86667021D01*
X145595021Y-86807533D01*
X145478213Y-86968305D01*
X145387994Y-87145367D01*
X145387993Y-87145370D01*
X145326587Y-87334362D01*
X145295500Y-87530639D01*
X145295500Y-87729360D01*
X145326587Y-87925637D01*
X145387993Y-88114629D01*
X145387994Y-88114632D01*
X145478213Y-88291694D01*
X145595019Y-88452464D01*
X145735536Y-88592981D01*
X145896306Y-88709787D01*
X145983149Y-88754035D01*
X146073367Y-88800005D01*
X146073370Y-88800006D01*
X146167866Y-88830709D01*
X146262364Y-88861413D01*
X146458639Y-88892500D01*
X146458640Y-88892500D01*
X148181360Y-88892500D01*
X148181361Y-88892500D01*
X148377636Y-88861413D01*
X148566632Y-88800005D01*
X148743694Y-88709787D01*
X148812220Y-88660000D01*
X155350000Y-88660000D01*
X156975000Y-88660000D01*
X157475000Y-88660000D01*
X158500000Y-88660000D01*
X159000000Y-88660000D01*
X160025000Y-88660000D01*
X160525000Y-88660000D01*
X162149999Y-88660000D01*
X162149999Y-88566113D01*
X162150000Y-88566092D01*
X162150000Y-87485000D01*
X160525000Y-87485000D01*
X160525000Y-88660000D01*
X160025000Y-88660000D01*
X160025000Y-87485000D01*
X159000000Y-87485000D01*
X159000000Y-88660000D01*
X158500000Y-88660000D01*
X158500000Y-87485000D01*
X157475000Y-87485000D01*
X157475000Y-88660000D01*
X156975000Y-88660000D01*
X156975000Y-87485000D01*
X155350000Y-87485000D01*
X155350000Y-88660000D01*
X148812220Y-88660000D01*
X148904464Y-88592981D01*
X149044981Y-88452464D01*
X149161787Y-88291694D01*
X149252005Y-88114632D01*
X149313413Y-87925636D01*
X149344500Y-87729361D01*
X149344500Y-87530639D01*
X149332209Y-87453036D01*
X149320641Y-87380000D01*
X149313413Y-87334364D01*
X149252005Y-87145368D01*
X149252005Y-87145367D01*
X149161786Y-86968305D01*
X149044981Y-86807536D01*
X148904464Y-86667019D01*
X148743694Y-86550213D01*
X148587218Y-86470484D01*
X148536423Y-86422510D01*
X148519628Y-86354689D01*
X148542165Y-86288554D01*
X148587218Y-86249515D01*
X148743694Y-86169787D01*
X148904464Y-86052981D01*
X149044981Y-85912464D01*
X149046763Y-85910011D01*
X155350000Y-85910011D01*
X155350000Y-86985000D01*
X156975000Y-86985000D01*
X157475000Y-86985000D01*
X158500000Y-86985000D01*
X159000000Y-86985000D01*
X160025000Y-86985000D01*
X160525000Y-86985000D01*
X162149999Y-86985000D01*
X162149999Y-85910028D01*
X162149998Y-85910013D01*
X162140148Y-85813589D01*
X162139976Y-85810219D01*
X162139505Y-85807300D01*
X162084359Y-85640879D01*
X162084357Y-85640874D01*
X161992316Y-85491653D01*
X161868346Y-85367683D01*
X161719125Y-85275642D01*
X161719120Y-85275640D01*
X161552698Y-85220494D01*
X161449988Y-85210000D01*
X160525000Y-85210000D01*
X160525000Y-86985000D01*
X160025000Y-86985000D01*
X160025000Y-85210000D01*
X159000000Y-85210000D01*
X159000000Y-86985000D01*
X158500000Y-86985000D01*
X158500000Y-85210000D01*
X157475000Y-85210000D01*
X157475000Y-86985000D01*
X156975000Y-86985000D01*
X156975000Y-85210000D01*
X156049197Y-85210000D01*
X156046364Y-85210374D01*
X155947300Y-85220494D01*
X155780879Y-85275640D01*
X155780874Y-85275642D01*
X155631653Y-85367683D01*
X155507683Y-85491653D01*
X155415642Y-85640874D01*
X155415640Y-85640879D01*
X155360494Y-85807301D01*
X155350000Y-85910011D01*
X149046763Y-85910011D01*
X149161787Y-85751694D01*
X149252005Y-85574632D01*
X149313413Y-85385636D01*
X149344500Y-85189361D01*
X149344500Y-84990639D01*
X149313413Y-84794364D01*
X149279471Y-84689901D01*
X149252006Y-84605370D01*
X149252005Y-84605367D01*
X149161786Y-84428305D01*
X149044981Y-84267536D01*
X148904464Y-84127019D01*
X148743694Y-84010213D01*
X148587218Y-83930484D01*
X148536423Y-83882510D01*
X148519628Y-83814689D01*
X148542165Y-83748554D01*
X148587218Y-83709515D01*
X148743694Y-83629787D01*
X148904464Y-83512981D01*
X149044981Y-83372464D01*
X149161787Y-83211694D01*
X149252005Y-83034632D01*
X149313413Y-82845636D01*
X149344500Y-82649361D01*
X149344500Y-82450639D01*
X149313413Y-82254364D01*
X149252005Y-82065368D01*
X149252005Y-82065367D01*
X149161786Y-81888305D01*
X149128277Y-81842184D01*
X149044981Y-81727536D01*
X148904464Y-81587019D01*
X148743694Y-81470213D01*
X148587218Y-81390484D01*
X148536423Y-81342510D01*
X148519628Y-81274689D01*
X148542165Y-81208554D01*
X148587218Y-81169515D01*
X148743694Y-81089787D01*
X148904464Y-80972981D01*
X149044981Y-80832464D01*
X149161787Y-80671694D01*
X149252005Y-80494632D01*
X149313413Y-80305636D01*
X149344500Y-80109361D01*
X149344500Y-79910639D01*
X149313413Y-79714364D01*
X149252005Y-79525368D01*
X149252005Y-79525367D01*
X149161786Y-79348305D01*
X149044981Y-79187536D01*
X148904464Y-79047019D01*
X148743694Y-78930213D01*
X148587218Y-78850484D01*
X148536423Y-78802510D01*
X148519628Y-78734689D01*
X148542165Y-78668554D01*
X148587218Y-78629515D01*
X148743694Y-78549787D01*
X148904464Y-78432981D01*
X149013126Y-78324319D01*
X149074449Y-78290834D01*
X149100807Y-78288000D01*
X152246567Y-78288000D01*
X152246568Y-78287999D01*
X152404602Y-78256565D01*
X152479035Y-78225733D01*
X152553468Y-78194903D01*
X152687445Y-78105382D01*
X154580007Y-76212817D01*
X154641330Y-76179333D01*
X154667688Y-76176499D01*
X156007871Y-76176499D01*
X156007872Y-76176499D01*
X156067483Y-76170091D01*
X156202331Y-76119796D01*
X156317546Y-76033546D01*
X156403796Y-75918331D01*
X156454091Y-75783483D01*
X156460500Y-75723873D01*
X156460499Y-74557947D01*
X161060000Y-74557947D01*
X161060000Y-74794052D01*
X161096934Y-75027247D01*
X161169897Y-75251802D01*
X161277087Y-75462174D01*
X161337338Y-75545104D01*
X161337340Y-75545105D01*
X162077037Y-74805408D01*
X162094075Y-74868993D01*
X162159901Y-74983007D01*
X162252993Y-75076099D01*
X162367007Y-75141925D01*
X162430590Y-75158962D01*
X161690893Y-75898658D01*
X161773828Y-75958914D01*
X161984197Y-76066102D01*
X162208752Y-76139065D01*
X162208751Y-76139065D01*
X162441948Y-76176000D01*
X162678052Y-76176000D01*
X162911247Y-76139065D01*
X163135802Y-76066102D01*
X163346163Y-75958918D01*
X163346169Y-75958914D01*
X163429104Y-75898658D01*
X163429105Y-75898658D01*
X162689408Y-75158962D01*
X162752993Y-75141925D01*
X162867007Y-75076099D01*
X162960099Y-74983007D01*
X163025925Y-74868993D01*
X163042962Y-74805409D01*
X163782658Y-75545105D01*
X163782658Y-75545104D01*
X163842914Y-75462169D01*
X163842918Y-75462163D01*
X163950102Y-75251802D01*
X164023065Y-75027247D01*
X164060000Y-74794052D01*
X164060000Y-74557947D01*
X164023065Y-74324752D01*
X163950102Y-74100197D01*
X163842914Y-73889828D01*
X163782658Y-73806894D01*
X163782658Y-73806893D01*
X163042962Y-74546590D01*
X163025925Y-74483007D01*
X162960099Y-74368993D01*
X162867007Y-74275901D01*
X162752993Y-74210075D01*
X162689409Y-74193037D01*
X163429105Y-73453340D01*
X163429104Y-73453338D01*
X163346174Y-73393087D01*
X163135802Y-73285897D01*
X162911247Y-73212934D01*
X162911248Y-73212934D01*
X162678052Y-73176000D01*
X162441948Y-73176000D01*
X162208752Y-73212934D01*
X161984197Y-73285897D01*
X161773830Y-73393084D01*
X161690894Y-73453340D01*
X162430591Y-74193037D01*
X162367007Y-74210075D01*
X162252993Y-74275901D01*
X162159901Y-74368993D01*
X162094075Y-74483007D01*
X162077037Y-74546591D01*
X161337340Y-73806894D01*
X161277084Y-73889830D01*
X161169897Y-74100197D01*
X161096934Y-74324752D01*
X161060000Y-74557947D01*
X156460499Y-74557947D01*
X156460499Y-73628128D01*
X156454091Y-73568517D01*
X156453839Y-73567842D01*
X156444922Y-73543931D01*
X156403797Y-73433671D01*
X156403793Y-73433664D01*
X156317547Y-73318455D01*
X156317544Y-73318452D01*
X156202335Y-73232206D01*
X156202328Y-73232202D01*
X156067482Y-73181908D01*
X156067483Y-73181908D01*
X156007883Y-73175501D01*
X156007881Y-73175500D01*
X156007873Y-73175500D01*
X156007864Y-73175500D01*
X153912129Y-73175500D01*
X153912123Y-73175501D01*
X153852516Y-73181908D01*
X153717671Y-73232202D01*
X153717664Y-73232206D01*
X153602455Y-73318452D01*
X153602452Y-73318455D01*
X153516206Y-73433664D01*
X153516202Y-73433671D01*
X153465908Y-73568517D01*
X153460222Y-73621413D01*
X153459501Y-73628123D01*
X153459500Y-73628135D01*
X153459500Y-74968310D01*
X153439815Y-75035349D01*
X153423181Y-75055991D01*
X151863492Y-76615681D01*
X151802169Y-76649166D01*
X151775811Y-76652000D01*
X149100807Y-76652000D01*
X149033768Y-76632315D01*
X149013126Y-76615681D01*
X148904466Y-76507021D01*
X148904464Y-76507019D01*
X148743694Y-76390213D01*
X148587218Y-76310484D01*
X148536423Y-76262510D01*
X148519628Y-76194689D01*
X148542165Y-76128554D01*
X148587218Y-76089515D01*
X148743694Y-76009787D01*
X148904464Y-75892981D01*
X149044981Y-75752464D01*
X149161787Y-75591694D01*
X149252005Y-75414632D01*
X149313413Y-75225636D01*
X149344500Y-75029361D01*
X149344500Y-74830639D01*
X149313413Y-74634364D01*
X149252005Y-74445368D01*
X149252005Y-74445367D01*
X149189373Y-74322446D01*
X149161787Y-74268306D01*
X149044981Y-74107536D01*
X148904464Y-73967019D01*
X148743694Y-73850213D01*
X148566632Y-73759994D01*
X148566629Y-73759993D01*
X148471554Y-73729102D01*
X148413878Y-73689665D01*
X148386680Y-73625306D01*
X148398595Y-73556460D01*
X148435562Y-73511903D01*
X148439191Y-73509185D01*
X148525350Y-73394093D01*
X148525354Y-73394086D01*
X148575596Y-73259379D01*
X148575598Y-73259372D01*
X148581999Y-73199844D01*
X148582000Y-73199827D01*
X148582000Y-72640000D01*
X147762251Y-72640000D01*
X147793381Y-72586081D01*
X147828000Y-72456880D01*
X147828000Y-72323120D01*
X147793381Y-72193919D01*
X147762251Y-72140000D01*
X148582000Y-72140000D01*
X148582000Y-71580172D01*
X148581999Y-71580155D01*
X148575598Y-71520627D01*
X148575596Y-71520620D01*
X148525354Y-71385913D01*
X148525350Y-71385906D01*
X148439190Y-71270812D01*
X148439188Y-71270810D01*
X148435556Y-71268091D01*
X148393688Y-71212156D01*
X148388707Y-71142464D01*
X148422195Y-71081142D01*
X148471555Y-71050897D01*
X148566626Y-71020007D01*
X148566632Y-71020005D01*
X148743694Y-70929787D01*
X148904464Y-70812981D01*
X149044981Y-70672464D01*
X149161787Y-70511694D01*
X149252005Y-70334632D01*
X149313413Y-70145636D01*
X149344500Y-69949361D01*
X149344500Y-69750639D01*
X168155500Y-69750639D01*
X168155500Y-69949360D01*
X168186587Y-70145637D01*
X168247993Y-70334629D01*
X168247994Y-70334632D01*
X168338213Y-70511694D01*
X168455019Y-70672464D01*
X168595536Y-70812981D01*
X168756306Y-70929787D01*
X168874832Y-70990179D01*
X168912780Y-71009515D01*
X168963576Y-71057490D01*
X168980371Y-71125311D01*
X168957833Y-71191446D01*
X168912780Y-71230485D01*
X168756305Y-71310213D01*
X168595533Y-71427021D01*
X168455021Y-71567533D01*
X168338213Y-71728305D01*
X168247994Y-71905367D01*
X168247993Y-71905370D01*
X168186587Y-72094362D01*
X168155500Y-72290639D01*
X168155500Y-72489360D01*
X168186587Y-72685637D01*
X168247993Y-72874629D01*
X168247994Y-72874632D01*
X168338213Y-73051694D01*
X168455019Y-73212464D01*
X168595536Y-73352981D01*
X168756306Y-73469787D01*
X168838963Y-73511903D01*
X168912780Y-73549515D01*
X168963576Y-73597490D01*
X168980371Y-73665311D01*
X168957833Y-73731446D01*
X168912780Y-73770485D01*
X168756305Y-73850213D01*
X168595533Y-73967021D01*
X168455021Y-74107533D01*
X168338213Y-74268305D01*
X168247994Y-74445367D01*
X168247993Y-74445370D01*
X168186587Y-74634362D01*
X168161295Y-74794052D01*
X168155500Y-74830639D01*
X168155500Y-75029361D01*
X168159718Y-75055991D01*
X168186587Y-75225637D01*
X168247993Y-75414629D01*
X168247994Y-75414632D01*
X168338213Y-75591694D01*
X168455019Y-75752464D01*
X168595536Y-75892981D01*
X168756306Y-76009787D01*
X168843149Y-76054035D01*
X168933367Y-76100005D01*
X168933373Y-76100007D01*
X169028444Y-76130897D01*
X169086120Y-76170334D01*
X169113319Y-76234692D01*
X169101405Y-76303539D01*
X169064447Y-76348088D01*
X169060813Y-76350808D01*
X169060809Y-76350812D01*
X168974649Y-76465906D01*
X168974645Y-76465913D01*
X168924403Y-76600620D01*
X168924401Y-76600627D01*
X168918000Y-76660155D01*
X168918000Y-77220000D01*
X169737749Y-77220000D01*
X169706619Y-77273919D01*
X169672000Y-77403120D01*
X169672000Y-77536880D01*
X169706619Y-77666081D01*
X169737749Y-77720000D01*
X168918000Y-77720000D01*
X168918000Y-78279844D01*
X168924401Y-78339372D01*
X168924403Y-78339379D01*
X168974645Y-78474086D01*
X168974649Y-78474093D01*
X169060809Y-78589187D01*
X169060812Y-78589190D01*
X169064441Y-78591907D01*
X169106310Y-78647842D01*
X169111292Y-78717534D01*
X169077805Y-78778855D01*
X169028445Y-78809102D01*
X168933370Y-78839993D01*
X168933367Y-78839994D01*
X168756305Y-78930213D01*
X168595533Y-79047021D01*
X168455021Y-79187533D01*
X168338213Y-79348305D01*
X168247994Y-79525367D01*
X168247993Y-79525370D01*
X168186587Y-79714362D01*
X168155500Y-79910639D01*
X168155500Y-80109360D01*
X168186587Y-80305637D01*
X168247993Y-80494629D01*
X168247994Y-80494632D01*
X168338213Y-80671694D01*
X168455019Y-80832464D01*
X168595536Y-80972981D01*
X168756306Y-81089787D01*
X168780933Y-81102335D01*
X168912780Y-81169515D01*
X168963576Y-81217490D01*
X168980371Y-81285311D01*
X168957833Y-81351446D01*
X168912780Y-81390485D01*
X168756305Y-81470213D01*
X168595533Y-81587021D01*
X168455021Y-81727533D01*
X168338213Y-81888305D01*
X168247994Y-82065367D01*
X168247993Y-82065370D01*
X168186587Y-82254362D01*
X168155500Y-82450639D01*
X168155500Y-82649360D01*
X168186587Y-82845637D01*
X168247993Y-83034629D01*
X168247994Y-83034632D01*
X168338213Y-83211694D01*
X168455019Y-83372464D01*
X168595536Y-83512981D01*
X168756306Y-83629787D01*
X168874832Y-83690179D01*
X168912780Y-83709515D01*
X168963576Y-83757490D01*
X168980371Y-83825311D01*
X168957833Y-83891446D01*
X168912780Y-83930485D01*
X168756305Y-84010213D01*
X168595533Y-84127021D01*
X168455021Y-84267533D01*
X168338213Y-84428305D01*
X168247994Y-84605367D01*
X168247993Y-84605370D01*
X168186587Y-84794362D01*
X168155500Y-84990639D01*
X168155500Y-85189360D01*
X168186587Y-85385637D01*
X168247993Y-85574629D01*
X168247994Y-85574632D01*
X168338213Y-85751694D01*
X168455019Y-85912464D01*
X168595536Y-86052981D01*
X168756306Y-86169787D01*
X168843149Y-86214035D01*
X168933367Y-86260005D01*
X168933373Y-86260007D01*
X169028444Y-86290897D01*
X169086120Y-86330334D01*
X169113319Y-86394692D01*
X169101405Y-86463539D01*
X169064447Y-86508088D01*
X169060813Y-86510808D01*
X169060809Y-86510812D01*
X168974649Y-86625906D01*
X168974645Y-86625913D01*
X168924403Y-86760620D01*
X168924401Y-86760627D01*
X168918000Y-86820155D01*
X168918000Y-87380000D01*
X169737749Y-87380000D01*
X169706619Y-87433919D01*
X169672000Y-87563120D01*
X169672000Y-87696880D01*
X169706619Y-87826081D01*
X169737749Y-87880000D01*
X168918000Y-87880000D01*
X168918000Y-88439844D01*
X168924401Y-88499372D01*
X168924403Y-88499379D01*
X168974645Y-88634086D01*
X168974649Y-88634093D01*
X169060809Y-88749187D01*
X169060812Y-88749190D01*
X169175906Y-88835350D01*
X169175913Y-88835354D01*
X169310620Y-88885596D01*
X169310627Y-88885598D01*
X169370155Y-88891999D01*
X169370172Y-88892000D01*
X169930000Y-88892000D01*
X169930000Y-88072251D01*
X169983919Y-88103381D01*
X170113120Y-88138000D01*
X170246880Y-88138000D01*
X170376081Y-88103381D01*
X170430000Y-88072251D01*
X170430000Y-88892000D01*
X170989828Y-88892000D01*
X170989844Y-88891999D01*
X171049372Y-88885598D01*
X171049379Y-88885596D01*
X171184086Y-88835354D01*
X171184093Y-88835350D01*
X171299187Y-88749190D01*
X171299190Y-88749187D01*
X171385350Y-88634093D01*
X171385354Y-88634086D01*
X171435596Y-88499379D01*
X171435598Y-88499372D01*
X171441999Y-88439844D01*
X171442000Y-88439827D01*
X171442000Y-87880000D01*
X170622251Y-87880000D01*
X170653381Y-87826081D01*
X170688000Y-87696880D01*
X170688000Y-87563120D01*
X170653381Y-87433919D01*
X170622251Y-87380000D01*
X171442000Y-87380000D01*
X171442000Y-86820172D01*
X171441999Y-86820155D01*
X171435598Y-86760627D01*
X171435596Y-86760620D01*
X171385354Y-86625913D01*
X171385350Y-86625906D01*
X171299190Y-86510812D01*
X171299188Y-86510810D01*
X171295556Y-86508091D01*
X171253688Y-86452156D01*
X171248707Y-86382464D01*
X171282195Y-86321142D01*
X171331555Y-86290897D01*
X171426626Y-86260007D01*
X171426632Y-86260005D01*
X171603694Y-86169787D01*
X171764464Y-86052981D01*
X171904981Y-85912464D01*
X172021787Y-85751694D01*
X172112005Y-85574632D01*
X172173413Y-85385636D01*
X172204500Y-85189361D01*
X172204500Y-84990639D01*
X172173413Y-84794364D01*
X172139471Y-84689901D01*
X172112006Y-84605370D01*
X172112005Y-84605367D01*
X172021786Y-84428305D01*
X171904981Y-84267536D01*
X171764464Y-84127019D01*
X171603694Y-84010213D01*
X171447218Y-83930484D01*
X171396423Y-83882510D01*
X171379628Y-83814689D01*
X171402165Y-83748554D01*
X171447218Y-83709515D01*
X171603694Y-83629787D01*
X171764464Y-83512981D01*
X171904981Y-83372464D01*
X172021787Y-83211694D01*
X172112005Y-83034632D01*
X172173413Y-82845636D01*
X172204500Y-82649361D01*
X172204500Y-82450639D01*
X172173413Y-82254364D01*
X172112005Y-82065368D01*
X172112005Y-82065367D01*
X172021786Y-81888305D01*
X171988277Y-81842184D01*
X171904981Y-81727536D01*
X171764464Y-81587019D01*
X171603694Y-81470213D01*
X171447218Y-81390484D01*
X171396423Y-81342510D01*
X171379628Y-81274689D01*
X171402165Y-81208554D01*
X171447218Y-81169515D01*
X171603694Y-81089787D01*
X171764464Y-80972981D01*
X171904981Y-80832464D01*
X172021787Y-80671694D01*
X172112005Y-80494632D01*
X172173413Y-80305636D01*
X172204500Y-80109361D01*
X172204500Y-79910639D01*
X172173413Y-79714364D01*
X172112005Y-79525368D01*
X172112005Y-79525367D01*
X172021786Y-79348305D01*
X171904981Y-79187536D01*
X171764464Y-79047019D01*
X171603694Y-78930213D01*
X171579075Y-78917669D01*
X171426632Y-78839994D01*
X171426629Y-78839993D01*
X171331554Y-78809102D01*
X171273878Y-78769665D01*
X171246680Y-78705306D01*
X171258595Y-78636460D01*
X171295562Y-78591903D01*
X171299191Y-78589185D01*
X171385350Y-78474093D01*
X171385354Y-78474086D01*
X171435596Y-78339379D01*
X171435598Y-78339372D01*
X171441999Y-78279844D01*
X171442000Y-78279827D01*
X171442000Y-77720000D01*
X170622251Y-77720000D01*
X170653381Y-77666081D01*
X170688000Y-77536880D01*
X170688000Y-77403120D01*
X170653381Y-77273919D01*
X170622251Y-77220000D01*
X171442000Y-77220000D01*
X171442000Y-76660172D01*
X171441999Y-76660155D01*
X171435598Y-76600627D01*
X171435596Y-76600620D01*
X171385354Y-76465913D01*
X171385350Y-76465906D01*
X171299190Y-76350812D01*
X171299188Y-76350810D01*
X171295556Y-76348091D01*
X171253688Y-76292156D01*
X171248707Y-76222464D01*
X171282195Y-76161142D01*
X171331555Y-76130897D01*
X171426626Y-76100007D01*
X171426632Y-76100005D01*
X171603694Y-76009787D01*
X171764464Y-75892981D01*
X171904981Y-75752464D01*
X172021787Y-75591694D01*
X172112005Y-75414632D01*
X172173413Y-75225636D01*
X172204500Y-75029361D01*
X172204500Y-74830639D01*
X172173413Y-74634364D01*
X172112005Y-74445368D01*
X172112005Y-74445367D01*
X172049373Y-74322446D01*
X172021787Y-74268306D01*
X171904981Y-74107536D01*
X171764464Y-73967019D01*
X171603694Y-73850213D01*
X171447218Y-73770484D01*
X171396423Y-73722510D01*
X171379628Y-73654689D01*
X171402165Y-73588554D01*
X171447218Y-73549515D01*
X171603694Y-73469787D01*
X171764464Y-73352981D01*
X171904981Y-73212464D01*
X172021787Y-73051694D01*
X172112005Y-72874632D01*
X172173413Y-72685636D01*
X172204500Y-72489361D01*
X172204500Y-72290639D01*
X172173413Y-72094364D01*
X172112005Y-71905368D01*
X172112005Y-71905367D01*
X172021786Y-71728305D01*
X171904981Y-71567536D01*
X171764464Y-71427019D01*
X171603694Y-71310213D01*
X171447218Y-71230484D01*
X171396423Y-71182510D01*
X171379628Y-71114689D01*
X171402165Y-71048554D01*
X171447218Y-71009515D01*
X171603694Y-70929787D01*
X171764464Y-70812981D01*
X171904981Y-70672464D01*
X172021787Y-70511694D01*
X172112005Y-70334632D01*
X172173413Y-70145636D01*
X172204500Y-69949361D01*
X172204500Y-69750639D01*
X172173413Y-69554364D01*
X172112005Y-69365368D01*
X172112005Y-69365367D01*
X172021786Y-69188305D01*
X171904981Y-69027536D01*
X171764464Y-68887019D01*
X171603694Y-68770213D01*
X171426632Y-68679994D01*
X171426629Y-68679993D01*
X171237637Y-68618587D01*
X171139498Y-68603043D01*
X171041361Y-68587500D01*
X169318639Y-68587500D01*
X169253214Y-68597862D01*
X169122362Y-68618587D01*
X168933370Y-68679993D01*
X168933367Y-68679994D01*
X168756305Y-68770213D01*
X168595533Y-68887021D01*
X168455021Y-69027533D01*
X168338213Y-69188305D01*
X168247994Y-69365367D01*
X168247993Y-69365370D01*
X168186587Y-69554362D01*
X168155500Y-69750639D01*
X149344500Y-69750639D01*
X149313413Y-69554364D01*
X149252005Y-69365368D01*
X149252005Y-69365367D01*
X149161786Y-69188305D01*
X149044981Y-69027536D01*
X148904464Y-68887019D01*
X148743694Y-68770213D01*
X148566632Y-68679994D01*
X148566629Y-68679993D01*
X148377637Y-68618587D01*
X148279498Y-68603043D01*
X148181361Y-68587500D01*
X146458639Y-68587500D01*
X146393214Y-68597862D01*
X146262362Y-68618587D01*
X146073370Y-68679993D01*
X146073367Y-68679994D01*
X145896305Y-68770213D01*
X145735533Y-68887021D01*
X145595021Y-69027533D01*
X145478213Y-69188305D01*
X145387994Y-69365367D01*
X145387993Y-69365370D01*
X145326587Y-69554362D01*
X145295500Y-69750639D01*
X145295500Y-69949360D01*
X145326587Y-70145637D01*
X145387993Y-70334629D01*
X145387994Y-70334632D01*
X145478213Y-70511694D01*
X145595019Y-70672464D01*
X145735536Y-70812981D01*
X145896306Y-70929787D01*
X145983149Y-70974035D01*
X146073367Y-71020005D01*
X146073373Y-71020007D01*
X146168444Y-71050897D01*
X146226120Y-71090334D01*
X146253319Y-71154692D01*
X146241405Y-71223539D01*
X146204447Y-71268088D01*
X146200813Y-71270808D01*
X146200809Y-71270812D01*
X146114649Y-71385906D01*
X146114645Y-71385913D01*
X146064403Y-71520620D01*
X146064401Y-71520627D01*
X146058000Y-71580155D01*
X146058000Y-72140000D01*
X146877749Y-72140000D01*
X146846619Y-72193919D01*
X146812000Y-72323120D01*
X146812000Y-72456880D01*
X146846619Y-72586081D01*
X146877749Y-72640000D01*
X146058000Y-72640000D01*
X146058000Y-73199844D01*
X146064401Y-73259372D01*
X146064403Y-73259379D01*
X146114645Y-73394086D01*
X146114649Y-73394093D01*
X146200809Y-73509187D01*
X146200812Y-73509190D01*
X146204441Y-73511907D01*
X146246310Y-73567842D01*
X146251292Y-73637534D01*
X146217805Y-73698855D01*
X146168445Y-73729102D01*
X146073370Y-73759993D01*
X146073367Y-73759994D01*
X145896305Y-73850213D01*
X145735533Y-73967021D01*
X145595021Y-74107533D01*
X145478213Y-74268305D01*
X145387994Y-74445367D01*
X145387993Y-74445370D01*
X145326587Y-74634362D01*
X145301295Y-74794052D01*
X145295500Y-74830639D01*
X145295500Y-75029361D01*
X145299718Y-75055991D01*
X145326587Y-75225637D01*
X145387993Y-75414629D01*
X145387994Y-75414632D01*
X145478213Y-75591694D01*
X145595019Y-75752464D01*
X145735536Y-75892981D01*
X145896306Y-76009787D01*
X146006830Y-76066102D01*
X146052780Y-76089515D01*
X146103576Y-76137490D01*
X146120371Y-76205311D01*
X146097833Y-76271446D01*
X146052780Y-76310485D01*
X145896305Y-76390213D01*
X145735533Y-76507021D01*
X145595021Y-76647533D01*
X145478213Y-76808305D01*
X145387994Y-76985367D01*
X145387993Y-76985370D01*
X145326587Y-77174362D01*
X145295500Y-77370639D01*
X145295500Y-77569360D01*
X145326587Y-77765637D01*
X145387993Y-77954629D01*
X145387994Y-77954632D01*
X145464805Y-78105379D01*
X145478213Y-78131694D01*
X145595019Y-78292464D01*
X145735536Y-78432981D01*
X145896306Y-78549787D01*
X145978963Y-78591903D01*
X146052780Y-78629515D01*
X146103576Y-78677490D01*
X146120371Y-78745311D01*
X146097833Y-78811446D01*
X146052780Y-78850485D01*
X145896305Y-78930213D01*
X145735533Y-79047021D01*
X145626874Y-79155681D01*
X145565551Y-79189166D01*
X145539193Y-79192000D01*
X144218470Y-79192000D01*
X144151431Y-79172315D01*
X144105676Y-79119511D01*
X144095180Y-79081253D01*
X144092091Y-79052516D01*
X144041797Y-78917671D01*
X144041793Y-78917664D01*
X143955547Y-78802455D01*
X143955544Y-78802452D01*
X143840335Y-78716206D01*
X143840328Y-78716202D01*
X143705482Y-78665908D01*
X143705483Y-78665908D01*
X143645883Y-78659501D01*
X143645881Y-78659500D01*
X143645873Y-78659500D01*
X143645864Y-78659500D01*
X141850129Y-78659500D01*
X141850123Y-78659501D01*
X141790516Y-78665908D01*
X141655671Y-78716202D01*
X141655664Y-78716206D01*
X141540455Y-78802452D01*
X141540452Y-78802455D01*
X141454206Y-78917664D01*
X141454202Y-78917671D01*
X141403908Y-79052517D01*
X141397501Y-79112116D01*
X141397500Y-79112135D01*
X140200500Y-79112135D01*
X140200500Y-65923947D01*
X140469500Y-65923947D01*
X140469500Y-66156052D01*
X140499794Y-66386148D01*
X140559862Y-66610328D01*
X140648677Y-66824745D01*
X140648685Y-66824762D01*
X140764720Y-67025743D01*
X140764721Y-67025745D01*
X140906009Y-67209875D01*
X140906015Y-67209882D01*
X141070117Y-67373984D01*
X141070124Y-67373990D01*
X141254254Y-67515278D01*
X141254256Y-67515279D01*
X141455237Y-67631314D01*
X141455240Y-67631315D01*
X141455248Y-67631320D01*
X141669670Y-67720137D01*
X141893851Y-67780206D01*
X142123955Y-67810500D01*
X142123962Y-67810500D01*
X142356038Y-67810500D01*
X142356045Y-67810500D01*
X142586149Y-67780206D01*
X142810330Y-67720137D01*
X143024752Y-67631320D01*
X143225748Y-67515276D01*
X143409877Y-67373989D01*
X143573989Y-67209877D01*
X143715276Y-67025748D01*
X143831320Y-66824752D01*
X143920137Y-66610330D01*
X143980206Y-66386149D01*
X144010500Y-66156045D01*
X144010500Y-65923955D01*
X144010499Y-65923947D01*
X173489500Y-65923947D01*
X173489500Y-66156052D01*
X173519794Y-66386148D01*
X173579862Y-66610328D01*
X173668677Y-66824745D01*
X173668685Y-66824762D01*
X173784720Y-67025743D01*
X173784721Y-67025745D01*
X173926009Y-67209875D01*
X173926015Y-67209882D01*
X174090117Y-67373984D01*
X174090124Y-67373990D01*
X174274254Y-67515278D01*
X174274256Y-67515279D01*
X174475237Y-67631314D01*
X174475240Y-67631315D01*
X174475248Y-67631320D01*
X174689670Y-67720137D01*
X174913851Y-67780206D01*
X175143955Y-67810500D01*
X175143962Y-67810500D01*
X175376038Y-67810500D01*
X175376045Y-67810500D01*
X175606149Y-67780206D01*
X175830330Y-67720137D01*
X176044752Y-67631320D01*
X176245748Y-67515276D01*
X176429877Y-67373989D01*
X176593989Y-67209877D01*
X176735276Y-67025748D01*
X176851320Y-66824752D01*
X176940137Y-66610330D01*
X177000206Y-66386149D01*
X177030500Y-66156045D01*
X177030500Y-65923955D01*
X177000206Y-65693851D01*
X176940137Y-65469670D01*
X176851320Y-65255248D01*
X176851314Y-65255237D01*
X176735279Y-65054256D01*
X176735278Y-65054254D01*
X176593990Y-64870124D01*
X176593984Y-64870117D01*
X176429882Y-64706015D01*
X176429875Y-64706009D01*
X176245745Y-64564721D01*
X176245743Y-64564720D01*
X176044762Y-64448685D01*
X176044754Y-64448681D01*
X176044752Y-64448680D01*
X175963186Y-64414894D01*
X175830328Y-64359862D01*
X175688203Y-64321780D01*
X175606149Y-64299794D01*
X175577386Y-64296007D01*
X175376052Y-64269500D01*
X175376045Y-64269500D01*
X175143955Y-64269500D01*
X175143947Y-64269500D01*
X174913851Y-64299794D01*
X174689671Y-64359862D01*
X174475254Y-64448677D01*
X174475237Y-64448685D01*
X174274256Y-64564720D01*
X174274254Y-64564721D01*
X174090124Y-64706009D01*
X174090117Y-64706015D01*
X173926015Y-64870117D01*
X173926009Y-64870124D01*
X173784721Y-65054254D01*
X173784720Y-65054256D01*
X173668685Y-65255237D01*
X173668677Y-65255254D01*
X173579862Y-65469671D01*
X173519794Y-65693851D01*
X173489500Y-65923947D01*
X144010499Y-65923947D01*
X143980206Y-65693851D01*
X143920137Y-65469670D01*
X143831320Y-65255248D01*
X143831314Y-65255237D01*
X143715279Y-65054256D01*
X143715278Y-65054254D01*
X143573990Y-64870124D01*
X143573984Y-64870117D01*
X143409882Y-64706015D01*
X143409875Y-64706009D01*
X143225745Y-64564721D01*
X143225743Y-64564720D01*
X143024762Y-64448685D01*
X143024754Y-64448681D01*
X143024752Y-64448680D01*
X142943186Y-64414894D01*
X142810328Y-64359862D01*
X142668203Y-64321780D01*
X142586149Y-64299794D01*
X142557386Y-64296007D01*
X142356052Y-64269500D01*
X142356045Y-64269500D01*
X142123955Y-64269500D01*
X142123947Y-64269500D01*
X141893851Y-64299794D01*
X141669671Y-64359862D01*
X141455254Y-64448677D01*
X141455237Y-64448685D01*
X141254256Y-64564720D01*
X141254254Y-64564721D01*
X141070124Y-64706009D01*
X141070117Y-64706015D01*
X140906015Y-64870117D01*
X140906009Y-64870124D01*
X140764721Y-65054254D01*
X140764720Y-65054256D01*
X140648685Y-65255237D01*
X140648677Y-65255254D01*
X140559862Y-65469671D01*
X140499794Y-65693851D01*
X140469500Y-65923947D01*
X140200500Y-65923947D01*
X140200500Y-65092912D01*
X140200972Y-65082105D01*
X140216068Y-64909554D01*
X140219821Y-64888268D01*
X140224683Y-64870123D01*
X140263248Y-64726193D01*
X140270635Y-64705899D01*
X140341545Y-64553830D01*
X140352351Y-64535115D01*
X140448594Y-64397666D01*
X140462478Y-64381121D01*
X140581121Y-64262478D01*
X140597666Y-64248594D01*
X140735118Y-64152349D01*
X140753830Y-64141545D01*
X140905899Y-64070635D01*
X140926193Y-64063248D01*
X141088268Y-64019820D01*
X141109551Y-64016068D01*
X141282105Y-64000971D01*
X141292912Y-64000500D01*
X141353392Y-64000500D01*
X176146608Y-64000500D01*
X176207088Y-64000500D01*
X176217894Y-64000971D01*
G37*
%TD.AperFunction*%
%TD*%
M02*
