%TF.GenerationSoftware,KiCad,Pcbnew,9.0.0*%
%TF.CreationDate,2025-08-24T16:33:36-07:00*%
%TF.ProjectId,sstv_backpack,73737476-5f62-4616-936b-7061636b2e6b,1.0*%
%TF.SameCoordinates,Original*%
%TF.FileFunction,Legend,Top*%
%TF.FilePolarity,Positive*%
%FSLAX46Y46*%
G04 Gerber Fmt 4.6, Leading zero omitted, Abs format (unit mm)*
G04 Created by KiCad (PCBNEW 9.0.0) date 2025-08-24 16:33:36*
%MOMM*%
%LPD*%
G01*
G04 APERTURE LIST*
%ADD10C,0.150000*%
%ADD11C,0.120000*%
%ADD12C,0.200000*%
%ADD13C,0.127000*%
G04 APERTURE END LIST*
D10*
X157350476Y-83869819D02*
X157683809Y-84869819D01*
X157683809Y-84869819D02*
X158017142Y-83869819D01*
X158921904Y-84869819D02*
X158588571Y-84393628D01*
X158350476Y-84869819D02*
X158350476Y-83869819D01*
X158350476Y-83869819D02*
X158731428Y-83869819D01*
X158731428Y-83869819D02*
X158826666Y-83917438D01*
X158826666Y-83917438D02*
X158874285Y-83965057D01*
X158874285Y-83965057D02*
X158921904Y-84060295D01*
X158921904Y-84060295D02*
X158921904Y-84203152D01*
X158921904Y-84203152D02*
X158874285Y-84298390D01*
X158874285Y-84298390D02*
X158826666Y-84346009D01*
X158826666Y-84346009D02*
X158731428Y-84393628D01*
X158731428Y-84393628D02*
X158350476Y-84393628D01*
X159874285Y-84869819D02*
X159302857Y-84869819D01*
X159588571Y-84869819D02*
X159588571Y-83869819D01*
X159588571Y-83869819D02*
X159493333Y-84012676D01*
X159493333Y-84012676D02*
X159398095Y-84107914D01*
X159398095Y-84107914D02*
X159302857Y-84155533D01*
X152995333Y-88878580D02*
X152947714Y-88926200D01*
X152947714Y-88926200D02*
X152804857Y-88973819D01*
X152804857Y-88973819D02*
X152709619Y-88973819D01*
X152709619Y-88973819D02*
X152566762Y-88926200D01*
X152566762Y-88926200D02*
X152471524Y-88830961D01*
X152471524Y-88830961D02*
X152423905Y-88735723D01*
X152423905Y-88735723D02*
X152376286Y-88545247D01*
X152376286Y-88545247D02*
X152376286Y-88402390D01*
X152376286Y-88402390D02*
X152423905Y-88211914D01*
X152423905Y-88211914D02*
X152471524Y-88116676D01*
X152471524Y-88116676D02*
X152566762Y-88021438D01*
X152566762Y-88021438D02*
X152709619Y-87973819D01*
X152709619Y-87973819D02*
X152804857Y-87973819D01*
X152804857Y-87973819D02*
X152947714Y-88021438D01*
X152947714Y-88021438D02*
X152995333Y-88069057D01*
X153947714Y-88973819D02*
X153376286Y-88973819D01*
X153662000Y-88973819D02*
X153662000Y-87973819D01*
X153662000Y-87973819D02*
X153566762Y-88116676D01*
X153566762Y-88116676D02*
X153471524Y-88211914D01*
X153471524Y-88211914D02*
X153376286Y-88259533D01*
X153616819Y-93559238D02*
X153616819Y-94130666D01*
X153616819Y-93844952D02*
X152616819Y-93844952D01*
X152616819Y-93844952D02*
X152759676Y-93940190D01*
X152759676Y-93940190D02*
X152854914Y-94035428D01*
X152854914Y-94035428D02*
X152902533Y-94130666D01*
X152950152Y-92702095D02*
X153616819Y-92702095D01*
X152950152Y-93130666D02*
X153473961Y-93130666D01*
X153473961Y-93130666D02*
X153569200Y-93083047D01*
X153569200Y-93083047D02*
X153616819Y-92987809D01*
X153616819Y-92987809D02*
X153616819Y-92844952D01*
X153616819Y-92844952D02*
X153569200Y-92749714D01*
X153569200Y-92749714D02*
X153521580Y-92702095D01*
X153093009Y-91892571D02*
X153093009Y-92225904D01*
X153616819Y-92225904D02*
X152616819Y-92225904D01*
X152616819Y-92225904D02*
X152616819Y-91749714D01*
X165441333Y-102308819D02*
X165108000Y-101832628D01*
X164869905Y-102308819D02*
X164869905Y-101308819D01*
X164869905Y-101308819D02*
X165250857Y-101308819D01*
X165250857Y-101308819D02*
X165346095Y-101356438D01*
X165346095Y-101356438D02*
X165393714Y-101404057D01*
X165393714Y-101404057D02*
X165441333Y-101499295D01*
X165441333Y-101499295D02*
X165441333Y-101642152D01*
X165441333Y-101642152D02*
X165393714Y-101737390D01*
X165393714Y-101737390D02*
X165346095Y-101785009D01*
X165346095Y-101785009D02*
X165250857Y-101832628D01*
X165250857Y-101832628D02*
X164869905Y-101832628D01*
X166393714Y-102308819D02*
X165822286Y-102308819D01*
X166108000Y-102308819D02*
X166108000Y-101308819D01*
X166108000Y-101308819D02*
X166012762Y-101451676D01*
X166012762Y-101451676D02*
X165917524Y-101546914D01*
X165917524Y-101546914D02*
X165822286Y-101594533D01*
X164917523Y-104594819D02*
X164346095Y-104594819D01*
X164631809Y-104594819D02*
X164631809Y-103594819D01*
X164631809Y-103594819D02*
X164536571Y-103737676D01*
X164536571Y-103737676D02*
X164441333Y-103832914D01*
X164441333Y-103832914D02*
X164346095Y-103880533D01*
X165536571Y-103594819D02*
X165631809Y-103594819D01*
X165631809Y-103594819D02*
X165727047Y-103642438D01*
X165727047Y-103642438D02*
X165774666Y-103690057D01*
X165774666Y-103690057D02*
X165822285Y-103785295D01*
X165822285Y-103785295D02*
X165869904Y-103975771D01*
X165869904Y-103975771D02*
X165869904Y-104213866D01*
X165869904Y-104213866D02*
X165822285Y-104404342D01*
X165822285Y-104404342D02*
X165774666Y-104499580D01*
X165774666Y-104499580D02*
X165727047Y-104547200D01*
X165727047Y-104547200D02*
X165631809Y-104594819D01*
X165631809Y-104594819D02*
X165536571Y-104594819D01*
X165536571Y-104594819D02*
X165441333Y-104547200D01*
X165441333Y-104547200D02*
X165393714Y-104499580D01*
X165393714Y-104499580D02*
X165346095Y-104404342D01*
X165346095Y-104404342D02*
X165298476Y-104213866D01*
X165298476Y-104213866D02*
X165298476Y-103975771D01*
X165298476Y-103975771D02*
X165346095Y-103785295D01*
X165346095Y-103785295D02*
X165393714Y-103690057D01*
X165393714Y-103690057D02*
X165441333Y-103642438D01*
X165441333Y-103642438D02*
X165536571Y-103594819D01*
X166298476Y-104594819D02*
X166298476Y-103594819D01*
X166869904Y-104594819D02*
X166441333Y-104023390D01*
X166869904Y-103594819D02*
X166298476Y-104166247D01*
X157869047Y-74607009D02*
X158011904Y-74654628D01*
X158011904Y-74654628D02*
X158059523Y-74702247D01*
X158059523Y-74702247D02*
X158107142Y-74797485D01*
X158107142Y-74797485D02*
X158107142Y-74940342D01*
X158107142Y-74940342D02*
X158059523Y-75035580D01*
X158059523Y-75035580D02*
X158011904Y-75083200D01*
X158011904Y-75083200D02*
X157916666Y-75130819D01*
X157916666Y-75130819D02*
X157535714Y-75130819D01*
X157535714Y-75130819D02*
X157535714Y-74130819D01*
X157535714Y-74130819D02*
X157869047Y-74130819D01*
X157869047Y-74130819D02*
X157964285Y-74178438D01*
X157964285Y-74178438D02*
X158011904Y-74226057D01*
X158011904Y-74226057D02*
X158059523Y-74321295D01*
X158059523Y-74321295D02*
X158059523Y-74416533D01*
X158059523Y-74416533D02*
X158011904Y-74511771D01*
X158011904Y-74511771D02*
X157964285Y-74559390D01*
X157964285Y-74559390D02*
X157869047Y-74607009D01*
X157869047Y-74607009D02*
X157535714Y-74607009D01*
X158440476Y-74130819D02*
X159107142Y-74130819D01*
X159107142Y-74130819D02*
X158440476Y-75130819D01*
X158440476Y-75130819D02*
X159107142Y-75130819D01*
X160011904Y-75130819D02*
X159440476Y-75130819D01*
X159726190Y-75130819D02*
X159726190Y-74130819D01*
X159726190Y-74130819D02*
X159630952Y-74273676D01*
X159630952Y-74273676D02*
X159535714Y-74368914D01*
X159535714Y-74368914D02*
X159440476Y-74416533D01*
X154569048Y-72209866D02*
X155330953Y-72209866D01*
X154950000Y-72590819D02*
X154950000Y-71828914D01*
X164171333Y-88838580D02*
X164123714Y-88886200D01*
X164123714Y-88886200D02*
X163980857Y-88933819D01*
X163980857Y-88933819D02*
X163885619Y-88933819D01*
X163885619Y-88933819D02*
X163742762Y-88886200D01*
X163742762Y-88886200D02*
X163647524Y-88790961D01*
X163647524Y-88790961D02*
X163599905Y-88695723D01*
X163599905Y-88695723D02*
X163552286Y-88505247D01*
X163552286Y-88505247D02*
X163552286Y-88362390D01*
X163552286Y-88362390D02*
X163599905Y-88171914D01*
X163599905Y-88171914D02*
X163647524Y-88076676D01*
X163647524Y-88076676D02*
X163742762Y-87981438D01*
X163742762Y-87981438D02*
X163885619Y-87933819D01*
X163885619Y-87933819D02*
X163980857Y-87933819D01*
X163980857Y-87933819D02*
X164123714Y-87981438D01*
X164123714Y-87981438D02*
X164171333Y-88029057D01*
X164552286Y-88029057D02*
X164599905Y-87981438D01*
X164599905Y-87981438D02*
X164695143Y-87933819D01*
X164695143Y-87933819D02*
X164933238Y-87933819D01*
X164933238Y-87933819D02*
X165028476Y-87981438D01*
X165028476Y-87981438D02*
X165076095Y-88029057D01*
X165076095Y-88029057D02*
X165123714Y-88124295D01*
X165123714Y-88124295D02*
X165123714Y-88219533D01*
X165123714Y-88219533D02*
X165076095Y-88362390D01*
X165076095Y-88362390D02*
X164504667Y-88933819D01*
X164504667Y-88933819D02*
X165123714Y-88933819D01*
X164792819Y-93559238D02*
X164792819Y-94130666D01*
X164792819Y-93844952D02*
X163792819Y-93844952D01*
X163792819Y-93844952D02*
X163935676Y-93940190D01*
X163935676Y-93940190D02*
X164030914Y-94035428D01*
X164030914Y-94035428D02*
X164078533Y-94130666D01*
X164126152Y-92702095D02*
X164792819Y-92702095D01*
X164126152Y-93130666D02*
X164649961Y-93130666D01*
X164649961Y-93130666D02*
X164745200Y-93083047D01*
X164745200Y-93083047D02*
X164792819Y-92987809D01*
X164792819Y-92987809D02*
X164792819Y-92844952D01*
X164792819Y-92844952D02*
X164745200Y-92749714D01*
X164745200Y-92749714D02*
X164697580Y-92702095D01*
X164269009Y-91892571D02*
X164269009Y-92225904D01*
X164792819Y-92225904D02*
X163792819Y-92225904D01*
X163792819Y-92225904D02*
X163792819Y-91749714D01*
X145224667Y-121947200D02*
X145367524Y-121994819D01*
X145367524Y-121994819D02*
X145605619Y-121994819D01*
X145605619Y-121994819D02*
X145700857Y-121947200D01*
X145700857Y-121947200D02*
X145748476Y-121899580D01*
X145748476Y-121899580D02*
X145796095Y-121804342D01*
X145796095Y-121804342D02*
X145796095Y-121709104D01*
X145796095Y-121709104D02*
X145748476Y-121613866D01*
X145748476Y-121613866D02*
X145700857Y-121566247D01*
X145700857Y-121566247D02*
X145605619Y-121518628D01*
X145605619Y-121518628D02*
X145415143Y-121471009D01*
X145415143Y-121471009D02*
X145319905Y-121423390D01*
X145319905Y-121423390D02*
X145272286Y-121375771D01*
X145272286Y-121375771D02*
X145224667Y-121280533D01*
X145224667Y-121280533D02*
X145224667Y-121185295D01*
X145224667Y-121185295D02*
X145272286Y-121090057D01*
X145272286Y-121090057D02*
X145319905Y-121042438D01*
X145319905Y-121042438D02*
X145415143Y-120994819D01*
X145415143Y-120994819D02*
X145653238Y-120994819D01*
X145653238Y-120994819D02*
X145796095Y-121042438D01*
X146129429Y-120994819D02*
X146367524Y-121994819D01*
X146367524Y-121994819D02*
X146558000Y-121280533D01*
X146558000Y-121280533D02*
X146748476Y-121994819D01*
X146748476Y-121994819D02*
X146986572Y-120994819D01*
X147319905Y-121090057D02*
X147367524Y-121042438D01*
X147367524Y-121042438D02*
X147462762Y-120994819D01*
X147462762Y-120994819D02*
X147700857Y-120994819D01*
X147700857Y-120994819D02*
X147796095Y-121042438D01*
X147796095Y-121042438D02*
X147843714Y-121090057D01*
X147843714Y-121090057D02*
X147891333Y-121185295D01*
X147891333Y-121185295D02*
X147891333Y-121280533D01*
X147891333Y-121280533D02*
X147843714Y-121423390D01*
X147843714Y-121423390D02*
X147272286Y-121994819D01*
X147272286Y-121994819D02*
X147891333Y-121994819D01*
X145450074Y-66561565D02*
X145450074Y-67198986D01*
X145450074Y-67198986D02*
X145487570Y-67273976D01*
X145487570Y-67273976D02*
X145525065Y-67311472D01*
X145525065Y-67311472D02*
X145600056Y-67348967D01*
X145600056Y-67348967D02*
X145750037Y-67348967D01*
X145750037Y-67348967D02*
X145825028Y-67311472D01*
X145825028Y-67311472D02*
X145862523Y-67273976D01*
X145862523Y-67273976D02*
X145900018Y-67198986D01*
X145900018Y-67198986D02*
X145900018Y-66561565D01*
X146687420Y-67348967D02*
X146237476Y-67348967D01*
X146462448Y-67348967D02*
X146462448Y-66561565D01*
X146462448Y-66561565D02*
X146387457Y-66674051D01*
X146387457Y-66674051D02*
X146312467Y-66749042D01*
X146312467Y-66749042D02*
X146237476Y-66786537D01*
X146433334Y-102776533D02*
X146900001Y-102776533D01*
X147100001Y-103509866D02*
X146433334Y-103509866D01*
X146433334Y-103509866D02*
X146433334Y-102109866D01*
X146433334Y-102109866D02*
X147100001Y-102109866D01*
X147633334Y-103443200D02*
X147833334Y-103509866D01*
X147833334Y-103509866D02*
X148166668Y-103509866D01*
X148166668Y-103509866D02*
X148300001Y-103443200D01*
X148300001Y-103443200D02*
X148366668Y-103376533D01*
X148366668Y-103376533D02*
X148433334Y-103243200D01*
X148433334Y-103243200D02*
X148433334Y-103109866D01*
X148433334Y-103109866D02*
X148366668Y-102976533D01*
X148366668Y-102976533D02*
X148300001Y-102909866D01*
X148300001Y-102909866D02*
X148166668Y-102843200D01*
X148166668Y-102843200D02*
X147900001Y-102776533D01*
X147900001Y-102776533D02*
X147766668Y-102709866D01*
X147766668Y-102709866D02*
X147700001Y-102643200D01*
X147700001Y-102643200D02*
X147633334Y-102509866D01*
X147633334Y-102509866D02*
X147633334Y-102376533D01*
X147633334Y-102376533D02*
X147700001Y-102243200D01*
X147700001Y-102243200D02*
X147766668Y-102176533D01*
X147766668Y-102176533D02*
X147900001Y-102109866D01*
X147900001Y-102109866D02*
X148233334Y-102109866D01*
X148233334Y-102109866D02*
X148433334Y-102176533D01*
X149033334Y-103509866D02*
X149033334Y-102109866D01*
X149033334Y-102109866D02*
X149566667Y-102109866D01*
X149566667Y-102109866D02*
X149700001Y-102176533D01*
X149700001Y-102176533D02*
X149766667Y-102243200D01*
X149766667Y-102243200D02*
X149833334Y-102376533D01*
X149833334Y-102376533D02*
X149833334Y-102576533D01*
X149833334Y-102576533D02*
X149766667Y-102709866D01*
X149766667Y-102709866D02*
X149700001Y-102776533D01*
X149700001Y-102776533D02*
X149566667Y-102843200D01*
X149566667Y-102843200D02*
X149033334Y-102843200D01*
X150300001Y-102109866D02*
X151166667Y-102109866D01*
X151166667Y-102109866D02*
X150700001Y-102643200D01*
X150700001Y-102643200D02*
X150900001Y-102643200D01*
X150900001Y-102643200D02*
X151033334Y-102709866D01*
X151033334Y-102709866D02*
X151100001Y-102776533D01*
X151100001Y-102776533D02*
X151166667Y-102909866D01*
X151166667Y-102909866D02*
X151166667Y-103243200D01*
X151166667Y-103243200D02*
X151100001Y-103376533D01*
X151100001Y-103376533D02*
X151033334Y-103443200D01*
X151033334Y-103443200D02*
X150900001Y-103509866D01*
X150900001Y-103509866D02*
X150500001Y-103509866D01*
X150500001Y-103509866D02*
X150366667Y-103443200D01*
X150366667Y-103443200D02*
X150300001Y-103376533D01*
X151700000Y-102243200D02*
X151766667Y-102176533D01*
X151766667Y-102176533D02*
X151900000Y-102109866D01*
X151900000Y-102109866D02*
X152233334Y-102109866D01*
X152233334Y-102109866D02*
X152366667Y-102176533D01*
X152366667Y-102176533D02*
X152433334Y-102243200D01*
X152433334Y-102243200D02*
X152500000Y-102376533D01*
X152500000Y-102376533D02*
X152500000Y-102509866D01*
X152500000Y-102509866D02*
X152433334Y-102709866D01*
X152433334Y-102709866D02*
X151633334Y-103509866D01*
X151633334Y-103509866D02*
X152500000Y-103509866D01*
X153100000Y-102976533D02*
X154166667Y-102976533D01*
X155633333Y-103376533D02*
X155566666Y-103443200D01*
X155566666Y-103443200D02*
X155366666Y-103509866D01*
X155366666Y-103509866D02*
X155233333Y-103509866D01*
X155233333Y-103509866D02*
X155033333Y-103443200D01*
X155033333Y-103443200D02*
X154900000Y-103309866D01*
X154900000Y-103309866D02*
X154833333Y-103176533D01*
X154833333Y-103176533D02*
X154766666Y-102909866D01*
X154766666Y-102909866D02*
X154766666Y-102709866D01*
X154766666Y-102709866D02*
X154833333Y-102443200D01*
X154833333Y-102443200D02*
X154900000Y-102309866D01*
X154900000Y-102309866D02*
X155033333Y-102176533D01*
X155033333Y-102176533D02*
X155233333Y-102109866D01*
X155233333Y-102109866D02*
X155366666Y-102109866D01*
X155366666Y-102109866D02*
X155566666Y-102176533D01*
X155566666Y-102176533D02*
X155633333Y-102243200D01*
X156166666Y-103109866D02*
X156833333Y-103109866D01*
X156033333Y-103509866D02*
X156500000Y-102109866D01*
X156500000Y-102109866D02*
X156966666Y-103509866D01*
X157433333Y-103509866D02*
X157433333Y-102109866D01*
X157433333Y-102109866D02*
X157900000Y-103109866D01*
X157900000Y-103109866D02*
X158366666Y-102109866D01*
X158366666Y-102109866D02*
X158366666Y-103509866D01*
X170078667Y-121351200D02*
X170221524Y-121398819D01*
X170221524Y-121398819D02*
X170459619Y-121398819D01*
X170459619Y-121398819D02*
X170554857Y-121351200D01*
X170554857Y-121351200D02*
X170602476Y-121303580D01*
X170602476Y-121303580D02*
X170650095Y-121208342D01*
X170650095Y-121208342D02*
X170650095Y-121113104D01*
X170650095Y-121113104D02*
X170602476Y-121017866D01*
X170602476Y-121017866D02*
X170554857Y-120970247D01*
X170554857Y-120970247D02*
X170459619Y-120922628D01*
X170459619Y-120922628D02*
X170269143Y-120875009D01*
X170269143Y-120875009D02*
X170173905Y-120827390D01*
X170173905Y-120827390D02*
X170126286Y-120779771D01*
X170126286Y-120779771D02*
X170078667Y-120684533D01*
X170078667Y-120684533D02*
X170078667Y-120589295D01*
X170078667Y-120589295D02*
X170126286Y-120494057D01*
X170126286Y-120494057D02*
X170173905Y-120446438D01*
X170173905Y-120446438D02*
X170269143Y-120398819D01*
X170269143Y-120398819D02*
X170507238Y-120398819D01*
X170507238Y-120398819D02*
X170650095Y-120446438D01*
X170983429Y-120398819D02*
X171221524Y-121398819D01*
X171221524Y-121398819D02*
X171412000Y-120684533D01*
X171412000Y-120684533D02*
X171602476Y-121398819D01*
X171602476Y-121398819D02*
X171840572Y-120398819D01*
X172745333Y-121398819D02*
X172173905Y-121398819D01*
X172459619Y-121398819D02*
X172459619Y-120398819D01*
X172459619Y-120398819D02*
X172364381Y-120541676D01*
X172364381Y-120541676D02*
X172269143Y-120636914D01*
X172269143Y-120636914D02*
X172173905Y-120684533D01*
X142414666Y-77134819D02*
X142414666Y-77849104D01*
X142414666Y-77849104D02*
X142367047Y-77991961D01*
X142367047Y-77991961D02*
X142271809Y-78087200D01*
X142271809Y-78087200D02*
X142128952Y-78134819D01*
X142128952Y-78134819D02*
X142033714Y-78134819D01*
X143414666Y-78134819D02*
X142843238Y-78134819D01*
X143128952Y-78134819D02*
X143128952Y-77134819D01*
X143128952Y-77134819D02*
X143033714Y-77277676D01*
X143033714Y-77277676D02*
X142938476Y-77372914D01*
X142938476Y-77372914D02*
X142843238Y-77420533D01*
X156874047Y-121851009D02*
X157016904Y-121898628D01*
X157016904Y-121898628D02*
X157064523Y-121946247D01*
X157064523Y-121946247D02*
X157112142Y-122041485D01*
X157112142Y-122041485D02*
X157112142Y-122184342D01*
X157112142Y-122184342D02*
X157064523Y-122279580D01*
X157064523Y-122279580D02*
X157016904Y-122327200D01*
X157016904Y-122327200D02*
X156921666Y-122374819D01*
X156921666Y-122374819D02*
X156540714Y-122374819D01*
X156540714Y-122374819D02*
X156540714Y-121374819D01*
X156540714Y-121374819D02*
X156874047Y-121374819D01*
X156874047Y-121374819D02*
X156969285Y-121422438D01*
X156969285Y-121422438D02*
X157016904Y-121470057D01*
X157016904Y-121470057D02*
X157064523Y-121565295D01*
X157064523Y-121565295D02*
X157064523Y-121660533D01*
X157064523Y-121660533D02*
X157016904Y-121755771D01*
X157016904Y-121755771D02*
X156969285Y-121803390D01*
X156969285Y-121803390D02*
X156874047Y-121851009D01*
X156874047Y-121851009D02*
X156540714Y-121851009D01*
X157493095Y-122089104D02*
X157969285Y-122089104D01*
X157397857Y-122374819D02*
X157731190Y-121374819D01*
X157731190Y-121374819D02*
X158064523Y-122374819D01*
X158255000Y-121374819D02*
X158826428Y-121374819D01*
X158540714Y-122374819D02*
X158540714Y-121374819D01*
X159921667Y-122374819D02*
X159921667Y-121374819D01*
X160397857Y-122374819D02*
X160397857Y-121374819D01*
X160397857Y-121374819D02*
X160969285Y-122374819D01*
X160969285Y-122374819D02*
X160969285Y-121374819D01*
D11*
%TO.C,VR1*%
X155610000Y-95210000D02*
X155140000Y-95550000D01*
X155140000Y-94870000D01*
X155610000Y-95210000D01*
G36*
X155610000Y-95210000D02*
G01*
X155140000Y-95550000D01*
X155140000Y-94870000D01*
X155610000Y-95210000D01*
G37*
X162200000Y-87060000D02*
X162200000Y-93480000D01*
X155300000Y-87060000D02*
X155300000Y-93480000D01*
X162200000Y-93480000D02*
X161930000Y-93480000D01*
X155300000Y-93480000D02*
X155570000Y-93480000D01*
%TO.C,C1*%
X154217000Y-90494000D02*
X154532000Y-90494000D01*
X151792000Y-90494000D02*
X152107000Y-90494000D01*
X154532000Y-95434000D02*
X154532000Y-90494000D01*
X154217000Y-95434000D02*
X154532000Y-95434000D01*
X151792000Y-95434000D02*
X151792000Y-90494000D01*
X151792000Y-95434000D02*
X152107000Y-95434000D01*
%TO.C,R1*%
X162338000Y-102770000D02*
X162338000Y-103100000D01*
X162338000Y-105510000D02*
X162338000Y-105180000D01*
X168878000Y-102770000D02*
X162338000Y-102770000D01*
X168878000Y-103100000D02*
X168878000Y-102770000D01*
X168878000Y-105180000D02*
X168878000Y-105510000D01*
X168878000Y-105510000D02*
X162338000Y-105510000D01*
%TO.C,BZ1*%
X164860000Y-74676000D02*
G75*
G02*
X152660000Y-74676000I-6100000J0D01*
G01*
X152660000Y-74676000D02*
G75*
G02*
X164860000Y-74676000I6100000J0D01*
G01*
%TO.C,C2*%
X165393000Y-90494000D02*
X165708000Y-90494000D01*
X162968000Y-90494000D02*
X163283000Y-90494000D01*
X165708000Y-95434000D02*
X165708000Y-90494000D01*
X165393000Y-95434000D02*
X165708000Y-95434000D01*
X162968000Y-95434000D02*
X162968000Y-90494000D01*
X162968000Y-95434000D02*
X163283000Y-95434000D01*
D12*
%TO.C,SW2*%
X148944000Y-107020000D02*
G75*
G02*
X148744000Y-107020000I-100000J0D01*
G01*
X148744000Y-107020000D02*
G75*
G02*
X148944000Y-107020000I100000J0D01*
G01*
D13*
X152244000Y-120270000D02*
X152244000Y-107570000D01*
X145444000Y-120270000D02*
X152244000Y-120270000D01*
X145444000Y-107570000D02*
X145444000Y-120270000D01*
X152244000Y-107570000D02*
X145444000Y-107570000D01*
%TO.C,U1*%
X162766090Y-74930000D02*
G75*
G02*
X154733910Y-74930000I-4016090J0D01*
G01*
X154733910Y-74930000D02*
G75*
G02*
X162766090Y-74930000I4016090J0D01*
G01*
X144780000Y-106045000D02*
X172720000Y-106045000D01*
X144780000Y-66040000D02*
X144780000Y-106045000D01*
X172720000Y-66040000D02*
X144780000Y-66040000D01*
X172720000Y-106045000D02*
X172720000Y-66040000D01*
D11*
%TO.C,SW1*%
X157846000Y-109232000D02*
X159446000Y-107682000D01*
X157846000Y-110382000D02*
X157846000Y-109232000D01*
X157846000Y-112282000D02*
X157846000Y-115382000D01*
X157846000Y-117282000D02*
X157846000Y-118432000D01*
X157846000Y-118432000D02*
X159446000Y-119982000D01*
X159446000Y-107682000D02*
X168646000Y-107682000D01*
X159446000Y-119982000D02*
X168646000Y-119982000D01*
X168646000Y-107682000D02*
X170246000Y-109232000D01*
X168646000Y-119982000D02*
X170246000Y-118432000D01*
X170246000Y-110382000D02*
X170246000Y-109232000D01*
X170246000Y-112282000D02*
X170246000Y-115382000D01*
X170246000Y-117282000D02*
X170246000Y-118432000D01*
%TO.C,J1*%
X144078000Y-81280000D02*
X144078000Y-86420000D01*
X141418000Y-86420000D02*
X144078000Y-86420000D01*
X141418000Y-81280000D02*
X144078000Y-81280000D01*
X141418000Y-81280000D02*
X141418000Y-86420000D01*
X141418000Y-80010000D02*
X141418000Y-78680000D01*
X141418000Y-78680000D02*
X142748000Y-78680000D01*
%TO.C,BAT IN*%
X158750000Y-123130000D02*
X161350000Y-123130000D01*
X161350000Y-125790000D02*
X161350000Y-123130000D01*
X158750000Y-125790000D02*
X158750000Y-123130000D01*
X158750000Y-125790000D02*
X161350000Y-125790000D01*
X157480000Y-125790000D02*
X156150000Y-125790000D01*
X156150000Y-125790000D02*
X156150000Y-124460000D01*
%TD*%
M02*
