M48
; DRILL file {KiCad 9.0.0} date 2025-08-24T16:33:34-0700
; FORMAT={-:-/ absolute / inch / decimal}
; #@! TF.CreationDate,2025-08-24T16:33:34-07:00
; #@! TF.GenerationSoftware,Kicad,Pcbnew,9.0.0
; #@! TF.FileFunction,Plated,1,2,PTH
FMAT,2
INCH
; #@! TA.AperFunction,Plated,PTH,ViaDrill
T1C0.0200
; #@! TA.AperFunction,Plated,PTH,ComponentDrill
T2C0.0315
; #@! TA.AperFunction,Plated,PTH,ComponentDrill
T3C0.0394
; #@! TA.AperFunction,Plated,PTH,ComponentDrill
T4C0.0400
%
G90
G05
T1
X6.18Y-4.29
X6.19Y-3.4344
X6.25Y-3.5004
X6.25Y-3.5004
X6.31Y-3.4344
X6.31Y-3.5663
X6.35Y-4.51
T2
X6.03Y-3.5616
X6.03Y-3.7584
X6.37Y-4.1
X6.47Y-3.5616
X6.47Y-3.7584
X6.67Y-4.1
T3
X5.62Y-3.15
X5.62Y-3.25
X5.62Y-3.35
X6.1008Y-2.94
X6.2Y-4.9
X6.3Y-4.9
X6.4Y-2.94
T4
X5.8Y-2.75
X5.8Y-2.85
X5.8Y-2.95
X5.8Y-3.05
X5.8Y-3.15
X5.8Y-3.25
X5.8Y-3.35
X5.8Y-3.45
X6.7Y-2.75
X6.7Y-2.85
X6.7Y-2.95
X6.7Y-3.05
X6.7Y-3.15
X6.7Y-3.25
X6.7Y-3.35
X6.7Y-3.45
T3
G00X5.8718Y-4.3
M15
G01X5.8482Y-4.3
M16
G05
G00X5.8718Y-4.485
M15
G01X5.8482Y-4.485
M16
G05
G00X5.8718Y-4.6701
M15
G01X5.8482Y-4.6701
M16
G05
M30
